  0
SECTION
  2
HEADER
  9
$ACADVER
  1
AC1009
  9
$INSBASE
 10
0.0
 20
0.0
 30
0.0
  9
$EXTMIN
 10
0.0
 20
-325.95439308639891
 30
0.0
  9
$EXTMAX
 10
799.77446039492884
 20
495.0
 30
0.0
  9
$LIMMIN
 10
0.0
 20
0.0
  9
$LIMMAX
 10
420.0
 20
297.0
  9
$ORTHOMODE
 70
     0
  9
$REGENMODE
 70
     1
  9
$FILLMODE
 70
     1
  9
$QTEXTMODE
 70
     0
  9
$MIRRTEXT
 70
     0
  9
$DRAGMODE
 70
     2
  9
$LTSCALE
 40
1.0
  9
$OSMODE
 70
    39
  9
$ATTMODE
 70
     1
  9
$TEXTSIZE
 40
2.5
  9
$TRACEWID
 40
1.0
  9
$TEXTSTYLE
  7
STANDARD
  9
$CLAYER
  8
0
  9
$CELTYPE
  6
BYLAYER
  9
$CECOLOR
 62
   256
  9
$DIMSCALE
 40
1.0
  9
$DIMASZ
 40
2.5
  9
$DIMEXO
 40
0.625
  9
$DIMDLI
 40
3.75
  9
$DIMRND
 40
0.0
  9
$DIMDLE
 40
0.0
  9
$DIMEXE
 40
1.25
  9
$DIMTP
 40
0.0
  9
$DIMTM
 40
0.0
  9
$DIMTXT
 40
2.5
  9
$DIMCEN
 40
2.5
  9
$DIMTSZ
 40
0.0
  9
$DIMTOL
 70
     0
  9
$DIMLIM
 70
     0
  9
$DIMTIH
 70
     0
  9
$DIMTOH
 70
     0
  9
$DIMSE1
 70
     0
  9
$DIMSE2
 70
     0
  9
$DIMTAD
 70
     1
  9
$DIMZIN
 70
     8
  9
$DIMBLK
  1

  9
$DIMASO
 70
     1
  9
$DIMSHO
 70
     1
  9
$DIMPOST
  1

  9
$DIMAPOST
  1

  9
$DIMALT
 70
     0
  9
$DIMALTD
 70
     3
  9
$DIMALTF
 40
0.03937007874016
  9
$DIMLFAC
 40
1.0
  9
$DIMTOFL
 70
     1
  9
$DIMTVP
 40
0.0
  9
$DIMTIX
 70
     0
  9
$DIMSOXD
 70
     0
  9
$DIMSAH
 70
     0
  9
$DIMBLK1
  1

  9
$DIMBLK2
  1

  9
$DIMSTYLE
  2
ISO-25
  9
$DIMCLRD
 70
     0
  9
$DIMCLRE
 70
     0
  9
$DIMCLRT
 70
     0
  9
$DIMTFAC
 40
1.0
  9
$DIMGAP
 40
0.625
  9
$LUNITS
 70
     2
  9
$LUPREC
 70
     4
  9
$SKETCHINC
 40
1.0
  9
$FILLETRAD
 40
0.0
  9
$AUNITS
 70
     0
  9
$AUPREC
 70
     0
  9
$MENU
  1
.
  9
$ELEVATION
 40
0.0
  9
$PELEVATION
 40
0.0
  9
$THICKNESS
 40
0.0
  9
$LIMCHECK
 70
     0
  9
$BLIPMODE
 70
     0
  9
$CHAMFERA
 40
0.0
  9
$CHAMFERB
 40
0.0
  9
$SKPOLY
 70
     0
  9
$TDCREATE
 40
2456921.9099242478
  9
$TDUPDATE
 40
2456921.9433704629
  9
$TDINDWG
 40
0.0334474306
  9
$TDUSRTIMER
 40
0.0334471412
  9
$USRTIMER
 70
     1
  9
$ANGBASE
 50
0.0
  9
$ANGDIR
 70
     0
  9
$PDMODE
 70
     0
  9
$PDSIZE
 40
0.0
  9
$PLINEWID
 40
0.0
  9
$COORDS
 70
     1
  9
$SPLFRAME
 70
     0
  9
$SPLINETYPE
 70
     6
  9
$SPLINESEGS
 70
     8
  9
$ATTDIA
 70
     1
  9
$ATTREQ
 70
     1
  9
$HANDLING
 70
     1
  9
$HANDSEED
  5
360
  9
$SURFTAB1
 70
     6
  9
$SURFTAB2
 70
     6
  9
$SURFTYPE
 70
     6
  9
$SURFU
 70
     6
  9
$SURFV
 70
     6
  9
$UCSNAME
  2

  9
$UCSORG
 10
0.0
 20
0.0
 30
0.0
  9
$UCSXDIR
 10
1.0
 20
0.0
 30
0.0
  9
$UCSYDIR
 10
0.0
 20
1.0
 30
0.0
  9
$PUCSNAME
  2

  9
$PUCSORG
 10
0.0
 20
0.0
 30
0.0
  9
$PUCSXDIR
 10
1.0
 20
0.0
 30
0.0
  9
$PUCSYDIR
 10
0.0
 20
1.0
 30
0.0
  9
$USERI1
 70
     0
  9
$USERI2
 70
     0
  9
$USERI3
 70
     0
  9
$USERI4
 70
     0
  9
$USERI5
 70
     0
  9
$USERR1
 40
0.0
  9
$USERR2
 40
0.0
  9
$USERR3
 40
0.0
  9
$USERR4
 40
0.0
  9
$USERR5
 40
0.0
  9
$WORLDVIEW
 70
     1
  9
$SHADEDGE
 70
     3
  9
$SHADEDIF
 70
    70
  9
$TILEMODE
 70
     1
  9
$MAXACTVP
 70
    64
  9
$PLIMCHECK
 70
     0
  9
$PEXTMIN
 10
0.0
 20
0.0
 30
0.0
  9
$PEXTMAX
 10
0.0
 20
0.0
 30
0.0
  9
$PLIMMIN
 10
0.0
 20
0.0
  9
$PLIMMAX
 10
12.0
 20
9.0
  9
$UNITMODE
 70
     0
  9
$VISRETAIN
 70
     1
  9
$PLINEGEN
 70
     0
  9
$PSLTSCALE
 70
     1
  0
ENDSEC
  0
SECTION
  2
TABLES
  0
TABLE
  2
VPORT
 70
     1
  0
VPORT
  2
*ACTIVE
 70
     0
 10
0.0
 20
0.0
 11
1.0
 21
1.0
 12
1178.180858756358
 22
-78.69757725749696
 13
0.0
 23
0.0
 14
10.0
 24
10.0
 15
10.0
 25
10.0
 16
0.0
 26
0.0
 36
1.0
 17
0.0
 27
0.0
 37
0.0
 40
2410.7356455521881
 41
2.0340760157273921
 42
50.0
 43
0.0
 44
0.0
 50
0.0
 51
0.0
 71
     0
 72
  1000
 73
     1
 74
     3
 75
     0
 76
     1
 77
     0
 78
     0
  0
ENDTAB
  0
TABLE
  2
LTYPE
 70
     3
  0
LTYPE
  2
CONTINUOUS
 70
     0
  3
Solid line
 72
    65
 73
     0
 40
0.0
  0
ENDTAB
  0
TABLE
  2
LAYER
 70
     1
  0
LAYER
  2
0
 70
     0
 62
     7
  6
CONTINUOUS
  0
ENDTAB
  0
TABLE
  2
STYLE
 70
     2
  0
STYLE
  2
STANDARD
 70
     0
 40
0.0
 41
1.0
 50
0.0
 71
     0
 42
2.5
  3
txt
  4

  0
STYLE
  2
ANNOTATIVE
 70
     0
 40
0.0
 41
1.0
 50
0.0
 71
     0
 42
2.5
  3
txt
  4

  0
ENDTAB
  0
TABLE
  2
VIEW
 70
     0
  0
ENDTAB
  0
TABLE
  2
UCS
 70
     0
  0
ENDTAB
  0
TABLE
  2
APPID
 70
     9
  0
APPID
  2
ACAD
 70
     0
  0
APPID
  2
ACAD_PSEXT
 70
     0
  0
APPID
  2
ACADANNOPO
 70
     0
  0
APPID
  2
ACADANNOTATIVE
 70
     0
  0
APPID
  2
ACAD_DSTYLE_DIMJAG
 70
     0
  0
APPID
  2
ACAD_DSTYLE_DIMTALN
 70
     0
  0
APPID
  2
ACAD_MLEADERVER
 70
     0
  0
APPID
  2
ACAD_NAV_VCDISPLAY
 70
     0
  0
APPID
  2
ACAD_EXEMPT_FROM_CAD_STANDARDS
 70
     0
  0
ENDTAB
  0
TABLE
  2
DIMSTYLE
 70
     4
  0
DIMSTYLE
  2
STANDARD
 70
     0
  3

  4

  5

  6

  7

 40
1.0
 41
0.18
 42
0.0625
 43
0.38
 44
0.18
 45
0.0
 46
0.0
 47
0.0
 48
0.0
140
0.18
141
0.09
142
0.0
143
25.399999999999999
144
1.0
145
0.0
146
1.0
147
0.09
 71
     0
 72
     0
 73
     1
 74
     1
 75
     0
 76
     0
 77
     0
 78
     0
170
     0
171
     2
172
     0
173
     0
174
     0
175
     0
176
     0
177
     0
178
     0
  0
DIMSTYLE
  2
ANNOTATIVE
 70
     0
  3

  4

  5

  6

  7

 40
0.0
 41
2.5
 42
0.625
 43
3.75
 44
1.25
 45
0.0
 46
0.0
 47
0.0
 48
0.0
140
2.5
141
2.5
142
0.0
143
0.03937007874016
144
1.0
145
0.0
146
1.0
147
0.625
 71
     0
 72
     0
 73
     0
 74
     0
 75
     0
 76
     0
 77
     1
 78
     8
170
     0
171
     3
172
     1
173
     0
174
     0
175
     0
176
     0
177
     0
178
     0
  0
DIMSTYLE
  2
ISO-25
 70
     0
  3

  4

  5

  6

  7

 40
1.0
 41
2.5
 42
0.625
 43
3.75
 44
1.25
 45
0.0
 46
0.0
 47
0.0
 48
0.0
140
2.5
141
2.5
142
0.0
143
0.03937007874016
144
1.0
145
0.0
146
1.0
147
0.625
 71
     0
 72
     0
 73
     0
 74
     0
 75
     0
 76
     0
 77
     1
 78
     8
170
     0
171
     3
172
     1
173
     0
174
     0
175
     0
176
     0
177
     0
178
     0
  0
ENDTAB
  0
ENDSEC
  0
SECTION
  2
BLOCKS
  0
BLOCK
  8
0
  2
$MODEL_SPACE
 70
     0
 10
0.0
 20
0.0
 30
0.0
  3
$MODEL_SPACE
  1

  0
ENDBLK
  5
21
  8
0
  0
BLOCK
 67
     1
  8
0
  2
$PAPER_SPACE
 70
     0
 10
0.0
 20
0.0
 30
0.0
  3
$PAPER_SPACE
  1

  0
ENDBLK
  5
D5
 67
     1
  8
0
  0
BLOCK
  8
0
  2
*U2
 70
     1
 10
0.0
 20
0.0
 30
0.0
  3
*U2
  1

  0
TEXT
  5
35D
  8
0
 10
260.40700411488677
 20
-315.10310633351042
 30
0.0
 40
30.0
  1
Full Frame
  0
ENDBLK
  5
35F
  8
0
  0
ENDSEC
  0
SECTION
  2
ENTITIES
  0
LINE
  5
244
  8
0
 10
0.0
 20
0.0
 30
0.0
 11
0.0000000000000148
 21
241.0
 31
0.0
  0
LINE
  5
245
  8
0
 10
0.0
 20
0.0
 30
0.0
 11
351.60631393648202
 21
-203.0000000000002
 31
0.0
  0
LINE
  5
246
  8
0
 10
351.60631393648202
 20
-203.0000000000002
 30
0.0
 11
791.54721905897691
 21
50.999999999999801
 31
0.0
  0
LINE
  5
247
  8
0
 10
791.54721905897691
 20
50.999999999999801
 30
0.0
 11
791.54721905897691
 21
291.99999999999977
 31
0.0
  0
LINE
  5
248
  8
0
 10
791.54721905897691
 20
291.99999999999977
 30
0.0
 11
351.60631393648208
 21
37.999999999999723
 31
0.0
  0
LINE
  5
249
  8
0
 10
351.60631393648208
 20
37.999999999999723
 30
0.0
 11
351.60631393648202
 21
-203.00000000000031
 31
0.0
  0
LINE
  5
24A
  8
0
 10
351.60631393648208
 20
37.999999999999723
 30
0.0
 11
0.0000000000000148
 21
241.0
 31
0.0
  0
LINE
  5
24B
  8
0
 10
0.0000000000000148
 20
241.0
 30
0.0
 11
439.94090512249488
 21
495.0
 31
0.0
  0
LINE
  5
24C
  8
0
 10
439.94090512249488
 20
495.0
 30
0.0
 11
791.54721905897691
 21
291.99999999999977
 31
0.0
  0
LINE
  5
24D
  8
0
 10
368.0607966083864
 20
47.499999999999709
 30
0.0
 11
351.60631393648208
 21
56.999999999999687
 31
0.0
  0
LINE
  5
24F
  8
0
 10
32.908965343808561
 20
241.0
 30
0.0
 11
448.16814645844681
 21
480.74999999999989
 31
0.0
  0
LINE
  5
250
  8
0
 10
423.48642245059028
 20
485.5
 30
0.0
 11
439.94090512249483
 21
476.0
 31
0.0
  0
LINE
  5
251
  8
0
 10
766.86549505112043
 20
296.74999999999972
 30
0.0
 11
351.60631393648208
 21
56.999999999999687
 31
0.0
  0
LINE
  5
2A7
  8
0
 10
351.60631393648208
 20
37.999999999999723
 30
0.0
 11
351.60631393648208
 21
18.999999999999709
 31
0.0
  0
LINE
  5
2A8
  8
0
 10
351.60631393648208
 20
18.999999999999709
 30
0.0
 11
368.0607966083864
 21
28.499999999999719
 31
0.0
  0
LINE
  5
2A9
  8
0
 10
368.0607966083864
 20
47.49999999999968
 30
0.0
 11
368.0607966083864
 21
28.499999999999691
 31
0.0
  0
LINE
  5
2AB
  8
0
 10
351.60631393648208
 20
18.999999999999709
 30
0.0
 11
335.15183126457782
 21
28.499999999999719
 31
0.0
  0
LINE
  5
2AC
  8
0
 10
335.15183126457782
 20
9.4999999999997158
 30
0.0
 11
335.15183126457782
 21
28.499999999999719
 31
0.0
  0
LINE
  5
2AD
  8
0
 10
351.60631393648208
 20
-0.0000000000002842
 30
0.0
 11
368.0607966083864
 21
9.4999999999997158
 31
0.0
  0
LINE
  5
2AE
  8
0
 10
351.60631393648208
 20
-0.0000000000002878
 30
0.0
 11
335.15183126457782
 21
9.4999999999997122
 31
0.0
  0
LINE
  5
2AF
  8
0
 10
351.60631393648208
 20
-19.000000000000281
 30
0.0
 11
368.0607966083864
 21
-9.5000000000002842
 31
0.0
  0
LINE
  5
2B0
  8
0
 10
368.0607966083864
 20
9.4999999999996874
 30
0.0
 11
368.0607966083864
 21
-9.5000000000003126
 31
0.0
  0
LINE
  5
2B1
  8
0
 10
351.60631393648208
 20
-19.000000000000281
 30
0.0
 11
335.15183126457782
 21
-9.5000000000002842
 31
0.0
  0
LINE
  5
2B2
  8
0
 10
335.15183126457782
 20
-28.500000000000281
 30
0.0
 11
335.15183126457782
 21
-9.5000000000002842
 31
0.0
  0
LINE
  5
2B3
  8
0
 10
351.60631393648208
 20
-38.000000000000291
 30
0.0
 11
368.0607966083864
 21
-28.500000000000281
 31
0.0
  0
LINE
  5
2B4
  8
0
 10
351.60631393648208
 20
-38.000000000000291
 30
0.0
 11
335.15183126457782
 21
-28.500000000000291
 31
0.0
  0
LINE
  5
2B5
  8
0
 10
351.60631393648208
 20
-57.000000000000277
 30
0.0
 11
368.0607966083864
 21
-47.500000000000277
 31
0.0
  0
LINE
  5
2B6
  8
0
 10
368.0607966083864
 20
-28.500000000000309
 30
0.0
 11
368.0607966083864
 21
-47.500000000000313
 31
0.0
  0
LINE
  5
2B7
  8
0
 10
351.60631393648208
 20
-57.000000000000277
 30
0.0
 11
335.15183126457782
 21
-47.500000000000277
 31
0.0
  0
LINE
  5
2B8
  8
0
 10
335.15183126457782
 20
-66.500000000000284
 30
0.0
 11
335.15183126457782
 21
-47.500000000000277
 31
0.0
  0
LINE
  5
2B9
  8
0
 10
351.60631393648208
 20
-76.000000000000284
 30
0.0
 11
368.0607966083864
 21
-66.500000000000284
 31
0.0
  0
LINE
  5
2BA
  8
0
 10
351.60631393648208
 20
-76.000000000000284
 30
0.0
 11
335.15183126457782
 21
-66.500000000000284
 31
0.0
  0
LINE
  5
2BB
  8
0
 10
351.60631393648208
 20
-95.000000000000284
 30
0.0
 11
368.0607966083864
 21
-85.500000000000284
 31
0.0
  0
LINE
  5
2BC
  8
0
 10
368.0607966083864
 20
-66.500000000000313
 30
0.0
 11
368.0607966083864
 21
-85.500000000000298
 31
0.0
  0
LINE
  5
2BD
  8
0
 10
351.60631393648208
 20
-95.000000000000284
 30
0.0
 11
335.15183126457782
 21
-85.500000000000284
 31
0.0
  0
LINE
  5
2BE
  8
0
 10
335.15183126457782
 20
-104.5000000000003
 30
0.0
 11
335.15183126457782
 21
-85.500000000000284
 31
0.0
  0
LINE
  5
2BF
  8
0
 10
351.60631393648208
 20
-114.0000000000003
 30
0.0
 11
368.0607966083864
 21
-104.5000000000003
 31
0.0
  0
LINE
  5
2C0
  8
0
 10
351.60631393648208
 20
-114.0000000000003
 30
0.0
 11
335.15183126457782
 21
-104.5000000000003
 31
0.0
  0
LINE
  5
2C1
  8
0
 10
351.60631393648208
 20
-133.00000000000031
 30
0.0
 11
368.0607966083864
 21
-123.5000000000002
 31
0.0
  0
LINE
  5
2C2
  8
0
 10
368.0607966083864
 20
-104.5000000000003
 30
0.0
 11
368.0607966083864
 21
-123.5000000000003
 31
0.0
  0
LINE
  5
2C3
  8
0
 10
351.60631393648208
 20
-133.00000000000031
 30
0.0
 11
335.15183126457782
 21
-123.5000000000002
 31
0.0
  0
LINE
  5
2C4
  8
0
 10
335.15183126457782
 20
-142.50000000000031
 30
0.0
 11
335.15183126457782
 21
-123.5000000000002
 31
0.0
  0
LINE
  5
2C5
  8
0
 10
351.60631393648208
 20
-152.00000000000031
 30
0.0
 11
368.0607966083864
 21
-142.50000000000031
 31
0.0
  0
LINE
  5
2C6
  8
0
 10
351.60631393648208
 20
-152.00000000000031
 30
0.0
 11
335.15183126457782
 21
-142.50000000000031
 31
0.0
  0
LINE
  5
2C7
  8
0
 10
351.60631393648208
 20
-171.00000000000031
 30
0.0
 11
368.0607966083864
 21
-161.50000000000031
 31
0.0
  0
LINE
  5
2C8
  8
0
 10
368.0607966083864
 20
-142.50000000000031
 30
0.0
 11
368.0607966083864
 21
-161.50000000000031
 31
0.0
  0
LINE
  5
2C9
  8
0
 10
351.60631393648208
 20
-171.00000000000031
 30
0.0
 11
335.15183126457782
 21
-161.50000000000031
 31
0.0
  0
LINE
  5
2CA
  8
0
 10
335.15183126457782
 20
-180.50000000000031
 30
0.0
 11
335.15183126457782
 21
-161.50000000000031
 31
0.0
  0
LINE
  5
2CB
  8
0
 10
351.60631393648208
 20
-190.00000000000031
 30
0.0
 11
368.0607966083864
 21
-180.50000000000031
 31
0.0
  0
LINE
  5
2CC
  8
0
 10
351.60631393648208
 20
-190.00000000000031
 30
0.0
 11
335.15183126457782
 21
-180.50000000000031
 31
0.0
  0
LINE
  5
2CD
  8
0
 10
368.0607966083864
 20
-180.50000000000031
 30
0.0
 11
368.0607966083864
 21
-193.5000000000002
 31
0.0
  0
LINE
  5
2CE
  8
0
 10
775.09273638707259
 20
263.49999999999977
 30
0.0
 11
791.54721905897691
 21
272.99999999999977
 31
0.0
  0
LINE
  5
2CF
  8
0
 10
775.09273638707259
 20
244.4999999999998
 30
0.0
 11
791.54721905897691
 21
253.9999999999998
 31
0.0
  0
LINE
  5
2D0
  8
0
 10
775.09273638707259
 20
225.4999999999998
 30
0.0
 11
791.54721905897691
 21
234.9999999999998
 31
0.0
  0
LINE
  5
2D1
  8
0
 10
775.09273638707259
 20
206.4999999999998
 30
0.0
 11
791.54721905897691
 21
215.9999999999998
 31
0.0
  0
LINE
  5
2D2
  8
0
 10
775.09273638707259
 20
187.4999999999998
 30
0.0
 11
791.54721905897691
 21
196.99999999999969
 31
0.0
  0
LINE
  5
2D3
  8
0
 10
775.09273638707259
 20
168.4999999999998
 30
0.0
 11
791.54721905897691
 21
177.9999999999998
 31
0.0
  0
LINE
  5
2D4
  8
0
 10
775.09273638707259
 20
149.49999999999969
 30
0.0
 11
791.54721905897691
 21
158.9999999999998
 31
0.0
  0
LINE
  5
2D5
  8
0
 10
775.09273638707259
 20
130.49999999999969
 30
0.0
 11
791.54721905897691
 21
139.99999999999969
 31
0.0
  0
LINE
  5
2D6
  8
0
 10
775.09273638707259
 20
111.4999999999997
 30
0.0
 11
791.54721905897691
 21
120.9999999999997
 31
0.0
  0
LINE
  5
2D7
  8
0
 10
775.09273638707259
 20
92.499999999999758
 30
0.0
 11
791.54721905897691
 21
101.9999999999998
 31
0.0
  0
LINE
  5
2D8
  8
0
 10
775.09273638707259
 20
73.499999999999773
 30
0.0
 11
791.54721905897691
 21
82.999999999999773
 31
0.0
  0
LINE
  5
2D9
  8
0
 10
775.09273638707259
 20
54.499999999999773
 30
0.0
 11
791.54721905897691
 21
63.999999999999773
 31
0.0
  0
LINE
  5
2DA
  8
0
 10
775.09273638707259
 20
263.49999999999977
 30
0.0
 11
775.09273638707259
 21
282.49999999999977
 31
0.0
  0
LINE
  5
2DB
  8
0
 10
775.09273638707259
 20
225.4999999999998
 30
0.0
 11
775.09273638707259
 21
244.4999999999998
 31
0.0
  0
LINE
  5
2DC
  8
0
 10
775.09273638707259
 20
187.4999999999998
 30
0.0
 11
775.09273638707259
 21
206.4999999999998
 31
0.0
  0
LINE
  5
2DD
  8
0
 10
775.09273638707259
 20
149.49999999999969
 30
0.0
 11
775.09273638707259
 21
168.4999999999998
 31
0.0
  0
LINE
  5
2DE
  8
0
 10
775.09273638707259
 20
111.4999999999997
 30
0.0
 11
775.09273638707259
 21
130.49999999999969
 31
0.0
  0
LINE
  5
2DF
  8
0
 10
775.09273638707259
 20
73.499999999999773
 30
0.0
 11
775.09273638707259
 21
92.499999999999758
 31
0.0
  0
LINE
  5
2E0
  8
0
 10
775.09273638707259
 20
41.499999999999829
 30
0.0
 11
775.09273638707259
 21
54.499999999999773
 31
0.0
  0
LINE
  5
2E4
  8
0
 10
16.454482671904309
 20
212.5
 30
0.0
 11
0.0
 21
222.0
 31
0.0
  0
LINE
  5
2E5
  8
0
 10
16.454482671904309
 20
193.5
 30
0.0
 11
0.0
 21
203.0
 31
0.0
  0
LINE
  5
2E6
  8
0
 10
16.454482671904309
 20
174.5
 30
0.0
 11
0.0
 21
184.0
 31
0.0
  0
LINE
  5
2E7
  8
0
 10
16.454482671904309
 20
155.5
 30
0.0
 11
0.0
 21
165.0
 31
0.0
  0
LINE
  5
2E8
  8
0
 10
16.454482671904309
 20
136.5
 30
0.0
 11
0.0
 21
146.0
 31
0.0
  0
LINE
  5
2E9
  8
0
 10
16.454482671904309
 20
117.5
 30
0.0
 11
0.0
 21
127.0
 31
0.0
  0
LINE
  5
2EA
  8
0
 10
16.454482671904309
 20
98.500000000000014
 30
0.0
 11
0.0
 21
108.0
 31
0.0
  0
LINE
  5
2EB
  8
0
 10
16.454482671904309
 20
79.5
 30
0.0
 11
0.0
 21
89.0
 31
0.0
  0
LINE
  5
2EC
  8
0
 10
16.454482671904309
 20
60.5
 30
0.0
 11
0.0
 21
70.0
 31
0.0
  0
LINE
  5
2ED
  8
0
 10
16.454482671904309
 20
41.5
 30
0.0
 11
0.0
 21
51.0
 31
0.0
  0
LINE
  5
2EE
  8
0
 10
16.454482671904309
 20
22.5
 30
0.0
 11
0.0
 21
32.0
 31
0.0
  0
LINE
  5
2EF
  8
0
 10
16.454482671904309
 20
3.5
 30
0.0
 11
0.0
 21
13.0
 31
0.0
  0
LINE
  5
2F0
  8
0
 10
16.454482671904309
 20
212.5
 30
0.0
 11
16.454482671904309
 21
193.5
 31
0.0
  0
LINE
  5
2F1
  8
0
 10
16.454482671904309
 20
174.5
 30
0.0
 11
16.454482671904309
 21
155.5
 31
0.0
  0
LINE
  5
2F2
  8
0
 10
16.454482671904309
 20
136.5
 30
0.0
 11
16.454482671904309
 21
117.5
 31
0.0
  0
LINE
  5
2F3
  8
0
 10
16.454482671904309
 20
98.500000000000014
 30
0.0
 11
16.454482671904309
 21
79.5
 31
0.0
  0
LINE
  5
2F4
  8
0
 10
16.454482671904309
 20
60.5
 30
0.0
 11
16.454482671904309
 21
41.5
 31
0.0
  0
LINE
  5
2F5
  8
0
 10
16.454482671904309
 20
22.5
 30
0.0
 11
16.454482671904309
 21
3.5
 31
0.0
  0
LINE
  5
2FA
  8
0
 10
439.94090512249488
 20
235.0
 30
0.0
 11
439.94090512249483
 21
476.0
 31
0.0
  0
LINE
  5
2FB
  8
0
 10
233.393846319906
 20
115.7499999999999
 30
0.0
 11
439.94090512249488
 21
235.0
 31
0.0
  0
LINE
  5
2FC
  8
0
 10
439.94090512249488
 20
235.0
 30
0.0
 11
549.9261314031188
 21
171.4999999999998
 31
0.0
  0
LINE
  5
2FD
  8
0
 10
32.908965343808561
 20
241.0
 30
0.0
 11
24.681724007856388
 21
236.25
 31
0.0
  0
LINE
  5
2FE
  8
0
 10
24.681724007856388
 20
236.25
 30
0.0
 11
343.37907260052992
 21
52.249999999999737
 31
0.0
  0
LINE
  5
302
  8
0
 10
351.60631393648208
 20
56.999999999999687
 30
0.0
 11
343.37907260052992
 21
52.249999999999687
 31
0.0
  0
LINE
  5
303
  8
0
 10
32.908965343808532
 20
240.99999999999989
 30
0.0
 11
16.45448267190427
 21
250.49999999999989
 31
0.0
  0
LINE
  5
304
  8
0
 10
32.908965343808497
 20
241.0
 30
0.0
 11
32.908965343808497
 21
231.5
 31
0.0
  0
LINE
  5
305
  8
0
 10
448.16814645844681
 20
480.74999999999989
 30
0.0
 11
448.16814645844681
 21
464.74999999999989
 31
0.0
  0
LINE
  5
306
  8
0
 10
448.16814645844681
 20
464.74999999999989
 30
0.0
 11
439.94090512249471
 21
459.99999999999989
 31
0.0
  0
LINE
  5
307
  8
0
 10
758.63825371516816
 20
291.99999999999977
 30
0.0
 11
775.09273638707259
 21
282.49999999999977
 31
0.0
  0
LINE
  5
308
  8
0
 10
448.16814645844681
 20
480.74999999999989
 30
0.0
 11
766.86549505112043
 21
296.74999999999972
 31
0.0
  0
LINE
  5
309
  8
0
 10
448.16814645844681
 20
464.74999999999989
 30
0.0
 11
753.00908859056938
 21
288.74999999999977
 31
0.0
  0
LINE
  5
30A
  8
0
 10
439.94090512249471
 20
459.99999999999989
 30
0.0
 11
744.78184725461722
 21
283.99999999999972
 31
0.0
  0
INSERT
  5
30D
  8
0
  2
*U2
 10
0.0
 20
0.0
 30
0.0
  0
ENDSEC
  0
EOF
