  0
SECTION
  2
HEADER
  9
$ACADVER
  1
AC1009
  9
$INSBASE
 10
0.0
 20
0.0
 30
0.0
  9
$EXTMIN
 10
0.0
 20
-325.95439308639891
 30
0.0
  9
$EXTMAX
 10
4791.5472190589771
 20
495.0
 30
0.0
  9
$LIMMIN
 10
0.0
 20
0.0
  9
$LIMMAX
 10
420.0
 20
297.0
  9
$ORTHOMODE
 70
     0
  9
$REGENMODE
 70
     1
  9
$FILLMODE
 70
     1
  9
$QTEXTMODE
 70
     0
  9
$MIRRTEXT
 70
     0
  9
$DRAGMODE
 70
     2
  9
$LTSCALE
 40
1.0
  9
$OSMODE
 70
    39
  9
$ATTMODE
 70
     1
  9
$TEXTSIZE
 40
2.5
  9
$TRACEWID
 40
1.0
  9
$TEXTSTYLE
  7
STANDARD
  9
$CLAYER
  8
0
  9
$CELTYPE
  6
BYLAYER
  9
$CECOLOR
 62
   256
  9
$DIMSCALE
 40
1.0
  9
$DIMASZ
 40
2.5
  9
$DIMEXO
 40
0.625
  9
$DIMDLI
 40
3.75
  9
$DIMRND
 40
0.0
  9
$DIMDLE
 40
0.0
  9
$DIMEXE
 40
1.25
  9
$DIMTP
 40
0.0
  9
$DIMTM
 40
0.0
  9
$DIMTXT
 40
2.5
  9
$DIMCEN
 40
2.5
  9
$DIMTSZ
 40
0.0
  9
$DIMTOL
 70
     0
  9
$DIMLIM
 70
     0
  9
$DIMTIH
 70
     0
  9
$DIMTOH
 70
     0
  9
$DIMSE1
 70
     0
  9
$DIMSE2
 70
     0
  9
$DIMTAD
 70
     1
  9
$DIMZIN
 70
     8
  9
$DIMBLK
  1

  9
$DIMASO
 70
     1
  9
$DIMSHO
 70
     1
  9
$DIMPOST
  1

  9
$DIMAPOST
  1

  9
$DIMALT
 70
     0
  9
$DIMALTD
 70
     3
  9
$DIMALTF
 40
0.03937007874016
  9
$DIMLFAC
 40
1.0
  9
$DIMTOFL
 70
     1
  9
$DIMTVP
 40
0.0
  9
$DIMTIX
 70
     0
  9
$DIMSOXD
 70
     0
  9
$DIMSAH
 70
     0
  9
$DIMBLK1
  1

  9
$DIMBLK2
  1

  9
$DIMSTYLE
  2
ISO-25
  9
$DIMCLRD
 70
     0
  9
$DIMCLRE
 70
     0
  9
$DIMCLRT
 70
     0
  9
$DIMTFAC
 40
1.0
  9
$DIMGAP
 40
0.625
  9
$LUNITS
 70
     2
  9
$LUPREC
 70
     4
  9
$SKETCHINC
 40
1.0
  9
$FILLETRAD
 40
0.0
  9
$AUNITS
 70
     0
  9
$AUPREC
 70
     0
  9
$MENU
  1
.
  9
$ELEVATION
 40
0.0
  9
$PELEVATION
 40
0.0
  9
$THICKNESS
 40
0.0
  9
$LIMCHECK
 70
     0
  9
$BLIPMODE
 70
     0
  9
$CHAMFERA
 40
0.0
  9
$CHAMFERB
 40
0.0
  9
$SKPOLY
 70
     0
  9
$TDCREATE
 40
2456921.9099242478
  9
$TDUPDATE
 40
2456921.9594409489
  9
$TDINDWG
 40
0.0495178588
  9
$TDUSRTIMER
 40
0.0495175694
  9
$USRTIMER
 70
     1
  9
$ANGBASE
 50
0.0
  9
$ANGDIR
 70
     0
  9
$PDMODE
 70
     0
  9
$PDSIZE
 40
0.0
  9
$PLINEWID
 40
0.0
  9
$COORDS
 70
     1
  9
$SPLFRAME
 70
     0
  9
$SPLINETYPE
 70
     6
  9
$SPLINESEGS
 70
     8
  9
$ATTDIA
 70
     1
  9
$ATTREQ
 70
     1
  9
$HANDLING
 70
     1
  9
$HANDSEED
  5
564
  9
$SURFTAB1
 70
     6
  9
$SURFTAB2
 70
     6
  9
$SURFTYPE
 70
     6
  9
$SURFU
 70
     6
  9
$SURFV
 70
     6
  9
$UCSNAME
  2

  9
$UCSORG
 10
0.0
 20
0.0
 30
0.0
  9
$UCSXDIR
 10
1.0
 20
0.0
 30
0.0
  9
$UCSYDIR
 10
0.0
 20
1.0
 30
0.0
  9
$PUCSNAME
  2

  9
$PUCSORG
 10
0.0
 20
0.0
 30
0.0
  9
$PUCSXDIR
 10
1.0
 20
0.0
 30
0.0
  9
$PUCSYDIR
 10
0.0
 20
1.0
 30
0.0
  9
$USERI1
 70
     0
  9
$USERI2
 70
     0
  9
$USERI3
 70
     0
  9
$USERI4
 70
     0
  9
$USERI5
 70
     0
  9
$USERR1
 40
0.0
  9
$USERR2
 40
0.0
  9
$USERR3
 40
0.0
  9
$USERR4
 40
0.0
  9
$USERR5
 40
0.0
  9
$WORLDVIEW
 70
     1
  9
$SHADEDGE
 70
     3
  9
$SHADEDIF
 70
    70
  9
$TILEMODE
 70
     1
  9
$MAXACTVP
 70
    64
  9
$PLIMCHECK
 70
     0
  9
$PEXTMIN
 10
0.0
 20
0.0
 30
0.0
  9
$PEXTMAX
 10
0.0
 20
0.0
 30
0.0
  9
$PLIMMIN
 10
0.0
 20
0.0
  9
$PLIMMAX
 10
12.0
 20
9.0
  9
$UNITMODE
 70
     0
  9
$VISRETAIN
 70
     1
  9
$PLINEGEN
 70
     0
  9
$PSLTSCALE
 70
     1
  0
ENDSEC
  0
SECTION
  2
TABLES
  0
TABLE
  2
VPORT
 70
     1
  0
VPORT
  2
*ACTIVE
 70
     0
 10
0.0
 20
0.0
 11
1.0
 21
1.0
 12
2246.3532815560538
 22
913.25932694028586
 13
0.0
 23
0.0
 14
10.0
 24
10.0
 15
10.0
 25
10.0
 16
0.0
 26
0.0
 36
1.0
 17
0.0
 27
0.0
 37
0.0
 40
4211.115614445087
 41
2.0340760157273921
 42
50.0
 43
0.0
 44
0.0
 50
0.0
 51
0.0
 71
     0
 72
  1000
 73
     1
 74
     3
 75
     0
 76
     1
 77
     0
 78
     0
  0
ENDTAB
  0
TABLE
  2
LTYPE
 70
     3
  0
LTYPE
  2
CONTINUOUS
 70
     0
  3
Solid line
 72
    65
 73
     0
 40
0.0
  0
ENDTAB
  0
TABLE
  2
LAYER
 70
     1
  0
LAYER
  2
0
 70
     0
 62
     7
  6
CONTINUOUS
  0
ENDTAB
  0
TABLE
  2
STYLE
 70
     2
  0
STYLE
  2
STANDARD
 70
     0
 40
0.0
 41
1.0
 50
0.0
 71
     0
 42
2.5
  3
txt
  4

  0
STYLE
  2
ANNOTATIVE
 70
     0
 40
0.0
 41
1.0
 50
0.0
 71
     0
 42
2.5
  3
txt
  4

  0
ENDTAB
  0
TABLE
  2
VIEW
 70
     0
  0
ENDTAB
  0
TABLE
  2
UCS
 70
     0
  0
ENDTAB
  0
TABLE
  2
APPID
 70
     9
  0
APPID
  2
ACAD
 70
     0
  0
APPID
  2
ACAD_PSEXT
 70
     0
  0
APPID
  2
ACADANNOPO
 70
     0
  0
APPID
  2
ACADANNOTATIVE
 70
     0
  0
APPID
  2
ACAD_DSTYLE_DIMJAG
 70
     0
  0
APPID
  2
ACAD_DSTYLE_DIMTALN
 70
     0
  0
APPID
  2
ACAD_MLEADERVER
 70
     0
  0
APPID
  2
ACAD_NAV_VCDISPLAY
 70
     0
  0
APPID
  2
ACAD_EXEMPT_FROM_CAD_STANDARDS
 70
     0
  0
ENDTAB
  0
TABLE
  2
DIMSTYLE
 70
     4
  0
DIMSTYLE
  2
STANDARD
 70
     0
  3

  4

  5

  6

  7

 40
1.0
 41
0.18
 42
0.0625
 43
0.38
 44
0.18
 45
0.0
 46
0.0
 47
0.0
 48
0.0
140
0.18
141
0.09
142
0.0
143
25.399999999999999
144
1.0
145
0.0
146
1.0
147
0.09
 71
     0
 72
     0
 73
     1
 74
     1
 75
     0
 76
     0
 77
     0
 78
     0
170
     0
171
     2
172
     0
173
     0
174
     0
175
     0
176
     0
177
     0
178
     0
  0
DIMSTYLE
  2
ANNOTATIVE
 70
     0
  3

  4

  5

  6

  7

 40
0.0
 41
2.5
 42
0.625
 43
3.75
 44
1.25
 45
0.0
 46
0.0
 47
0.0
 48
0.0
140
2.5
141
2.5
142
0.0
143
0.03937007874016
144
1.0
145
0.0
146
1.0
147
0.625
 71
     0
 72
     0
 73
     0
 74
     0
 75
     0
 76
     0
 77
     1
 78
     8
170
     0
171
     3
172
     1
173
     0
174
     0
175
     0
176
     0
177
     0
178
     0
  0
DIMSTYLE
  2
ISO-25
 70
     0
  3

  4

  5

  6

  7

 40
1.0
 41
2.5
 42
0.625
 43
3.75
 44
1.25
 45
0.0
 46
0.0
 47
0.0
 48
0.0
140
2.5
141
2.5
142
0.0
143
0.03937007874016
144
1.0
145
0.0
146
1.0
147
0.625
 71
     0
 72
     0
 73
     0
 74
     0
 75
     0
 76
     0
 77
     1
 78
     8
170
     0
171
     3
172
     1
173
     0
174
     0
175
     0
176
     0
177
     0
178
     0
  0
ENDTAB
  0
ENDSEC
  0
SECTION
  2
BLOCKS
  0
BLOCK
  8
0
  2
$MODEL_SPACE
 70
     0
 10
0.0
 20
0.0
 30
0.0
  3
$MODEL_SPACE
  1

  0
ENDBLK
  5
21
  8
0
  0
BLOCK
 67
     1
  8
0
  2
$PAPER_SPACE
 70
     0
 10
0.0
 20
0.0
 30
0.0
  3
$PAPER_SPACE
  1

  0
ENDBLK
  5
D5
 67
     1
  8
0
  0
BLOCK
  8
0
  2
*U2
 70
     1
 10
0.0
 20
0.0
 30
0.0
  3
*U2
  1

  0
TEXT
  5
551
  8
0
 10
260.40700411488677
 20
-315.10310633351042
 30
0.0
 40
30.0
  1
Full Frame
  0
ENDBLK
  5
553
  8
0
  0
BLOCK
  8
0
  2
*U3
 70
     1
 10
0.0
 20
0.0
 30
0.0
  3
*U3
  1

  0
TEXT
  5
555
  8
0
 10
1259.936335629211
 20
-315.10310633351042
 30
0.0
 40
30.0
  1
Ideal Frame
  0
ENDBLK
  5
557
  8
0
  0
BLOCK
  8
0
  2
*U4
 70
     1
 10
0.0
 20
0.0
 30
0.0
  3
*U4
  1

  0
TEXT
  5
559
  8
0
 10
2260.4888595037
 20
-315.61470251359219
 30
0.0
 40
30.0
  1
Half Frame
  0
ENDBLK
  5
55B
  8
0
  0
BLOCK
  8
0
  2
*U5
 70
     1
 10
0.0
 20
0.0
 30
0.0
  3
*U5
  1

  0
TEXT
  5
55D
  8
0
 10
3263.3333342649548
 20
-315.61470251359219
 30
0.0
 40
30.0
  1
WSP Frame
  0
ENDBLK
  5
55F
  8
0
  0
BLOCK
  8
0
  2
*U6
 70
     1
 10
0.0
 20
0.0
 30
0.0
  3
*U6
  1

  0
TEXT
  5
561
  8
0
 10
4260.734425670139
 20
-315.10310633351042
 30
0.0
 40
30.0
  1
Manley Frame
  0
ENDBLK
  5
563
  8
0
  0
ENDSEC
  0
SECTION
  2
ENTITIES
  0
LINE
  5
244
  8
0
 10
0.0
 20
0.0
 30
0.0
 11
0.0000000000000148
 21
241.0
 31
0.0
  0
LINE
  5
245
  8
0
 10
0.0
 20
0.0
 30
0.0
 11
351.60631393648202
 21
-203.0000000000002
 31
0.0
  0
LINE
  5
246
  8
0
 10
351.60631393648202
 20
-203.0000000000002
 30
0.0
 11
791.54721905897691
 21
50.999999999999801
 31
0.0
  0
LINE
  5
247
  8
0
 10
791.54721905897691
 20
50.999999999999801
 30
0.0
 11
791.54721905897691
 21
291.99999999999977
 31
0.0
  0
LINE
  5
248
  8
0
 10
791.54721905897691
 20
291.99999999999977
 30
0.0
 11
351.60631393648208
 21
37.999999999999723
 31
0.0
  0
LINE
  5
249
  8
0
 10
351.60631393648208
 20
37.999999999999723
 30
0.0
 11
351.60631393648202
 21
-203.00000000000031
 31
0.0
  0
LINE
  5
24A
  8
0
 10
351.60631393648208
 20
37.999999999999723
 30
0.0
 11
0.0000000000000148
 21
241.0
 31
0.0
  0
LINE
  5
24B
  8
0
 10
0.0000000000000148
 20
241.0
 30
0.0
 11
439.94090512249488
 21
495.0
 31
0.0
  0
LINE
  5
24C
  8
0
 10
439.94090512249488
 20
495.0
 30
0.0
 11
791.54721905897691
 21
291.99999999999977
 31
0.0
  0
LINE
  5
24D
  8
0
 10
368.0607966083864
 20
47.499999999999709
 30
0.0
 11
351.60631393648208
 21
56.999999999999687
 31
0.0
  0
LINE
  5
24F
  8
0
 10
32.908965343808561
 20
241.0
 30
0.0
 11
448.16814645844681
 21
480.74999999999989
 31
0.0
  0
LINE
  5
250
  8
0
 10
423.48642245059028
 20
485.5
 30
0.0
 11
439.94090512249483
 21
476.0
 31
0.0
  0
LINE
  5
251
  8
0
 10
766.86549505112043
 20
296.74999999999972
 30
0.0
 11
351.60631393648208
 21
56.999999999999687
 31
0.0
  0
LINE
  5
2A7
  8
0
 10
351.60631393648208
 20
37.999999999999723
 30
0.0
 11
351.60631393648208
 21
18.999999999999709
 31
0.0
  0
LINE
  5
2A8
  8
0
 10
351.60631393648208
 20
18.999999999999709
 30
0.0
 11
368.0607966083864
 21
28.499999999999719
 31
0.0
  0
LINE
  5
2A9
  8
0
 10
368.0607966083864
 20
47.49999999999968
 30
0.0
 11
368.0607966083864
 21
28.499999999999691
 31
0.0
  0
LINE
  5
2AB
  8
0
 10
351.60631393648208
 20
18.999999999999709
 30
0.0
 11
335.15183126457782
 21
28.499999999999719
 31
0.0
  0
LINE
  5
2AC
  8
0
 10
335.15183126457782
 20
9.4999999999997158
 30
0.0
 11
335.15183126457782
 21
28.499999999999719
 31
0.0
  0
LINE
  5
2AD
  8
0
 10
351.60631393648208
 20
-0.0000000000002842
 30
0.0
 11
368.0607966083864
 21
9.4999999999997158
 31
0.0
  0
LINE
  5
2AE
  8
0
 10
351.60631393648208
 20
-0.0000000000002878
 30
0.0
 11
335.15183126457782
 21
9.4999999999997122
 31
0.0
  0
LINE
  5
2AF
  8
0
 10
351.60631393648208
 20
-19.000000000000281
 30
0.0
 11
368.0607966083864
 21
-9.5000000000002842
 31
0.0
  0
LINE
  5
2B0
  8
0
 10
368.0607966083864
 20
9.4999999999996874
 30
0.0
 11
368.0607966083864
 21
-9.5000000000003126
 31
0.0
  0
LINE
  5
2B1
  8
0
 10
351.60631393648208
 20
-19.000000000000281
 30
0.0
 11
335.15183126457782
 21
-9.5000000000002842
 31
0.0
  0
LINE
  5
2B2
  8
0
 10
335.15183126457782
 20
-28.500000000000281
 30
0.0
 11
335.15183126457782
 21
-9.5000000000002842
 31
0.0
  0
LINE
  5
2B3
  8
0
 10
351.60631393648208
 20
-38.000000000000291
 30
0.0
 11
368.0607966083864
 21
-28.500000000000281
 31
0.0
  0
LINE
  5
2B4
  8
0
 10
351.60631393648208
 20
-38.000000000000291
 30
0.0
 11
335.15183126457782
 21
-28.500000000000291
 31
0.0
  0
LINE
  5
2B5
  8
0
 10
351.60631393648208
 20
-57.000000000000277
 30
0.0
 11
368.0607966083864
 21
-47.500000000000277
 31
0.0
  0
LINE
  5
2B6
  8
0
 10
368.0607966083864
 20
-28.500000000000309
 30
0.0
 11
368.0607966083864
 21
-47.500000000000313
 31
0.0
  0
LINE
  5
2B7
  8
0
 10
351.60631393648208
 20
-57.000000000000277
 30
0.0
 11
335.15183126457782
 21
-47.500000000000277
 31
0.0
  0
LINE
  5
2B8
  8
0
 10
335.15183126457782
 20
-66.500000000000284
 30
0.0
 11
335.15183126457782
 21
-47.500000000000277
 31
0.0
  0
LINE
  5
2B9
  8
0
 10
351.60631393648208
 20
-76.000000000000284
 30
0.0
 11
368.0607966083864
 21
-66.500000000000284
 31
0.0
  0
LINE
  5
2BA
  8
0
 10
351.60631393648208
 20
-76.000000000000284
 30
0.0
 11
335.15183126457782
 21
-66.500000000000284
 31
0.0
  0
LINE
  5
2BB
  8
0
 10
351.60631393648208
 20
-95.000000000000284
 30
0.0
 11
368.0607966083864
 21
-85.500000000000284
 31
0.0
  0
LINE
  5
2BC
  8
0
 10
368.0607966083864
 20
-66.500000000000313
 30
0.0
 11
368.0607966083864
 21
-85.500000000000298
 31
0.0
  0
LINE
  5
2BD
  8
0
 10
351.60631393648208
 20
-95.000000000000284
 30
0.0
 11
335.15183126457782
 21
-85.500000000000284
 31
0.0
  0
LINE
  5
2BE
  8
0
 10
335.15183126457782
 20
-104.5000000000003
 30
0.0
 11
335.15183126457782
 21
-85.500000000000284
 31
0.0
  0
LINE
  5
2BF
  8
0
 10
351.60631393648208
 20
-114.0000000000003
 30
0.0
 11
368.0607966083864
 21
-104.5000000000003
 31
0.0
  0
LINE
  5
2C0
  8
0
 10
351.60631393648208
 20
-114.0000000000003
 30
0.0
 11
335.15183126457782
 21
-104.5000000000003
 31
0.0
  0
LINE
  5
2C1
  8
0
 10
351.60631393648208
 20
-133.00000000000031
 30
0.0
 11
368.0607966083864
 21
-123.5000000000002
 31
0.0
  0
LINE
  5
2C2
  8
0
 10
368.0607966083864
 20
-104.5000000000003
 30
0.0
 11
368.0607966083864
 21
-123.5000000000003
 31
0.0
  0
LINE
  5
2C3
  8
0
 10
351.60631393648208
 20
-133.00000000000031
 30
0.0
 11
335.15183126457782
 21
-123.5000000000002
 31
0.0
  0
LINE
  5
2C4
  8
0
 10
335.15183126457782
 20
-142.50000000000031
 30
0.0
 11
335.15183126457782
 21
-123.5000000000002
 31
0.0
  0
LINE
  5
2C5
  8
0
 10
351.60631393648208
 20
-152.00000000000031
 30
0.0
 11
368.0607966083864
 21
-142.50000000000031
 31
0.0
  0
LINE
  5
2C6
  8
0
 10
351.60631393648208
 20
-152.00000000000031
 30
0.0
 11
335.15183126457782
 21
-142.50000000000031
 31
0.0
  0
LINE
  5
2C7
  8
0
 10
351.60631393648208
 20
-171.00000000000031
 30
0.0
 11
368.0607966083864
 21
-161.50000000000031
 31
0.0
  0
LINE
  5
2C8
  8
0
 10
368.0607966083864
 20
-142.50000000000031
 30
0.0
 11
368.0607966083864
 21
-161.50000000000031
 31
0.0
  0
LINE
  5
2C9
  8
0
 10
351.60631393648208
 20
-171.00000000000031
 30
0.0
 11
335.15183126457782
 21
-161.50000000000031
 31
0.0
  0
LINE
  5
2CA
  8
0
 10
335.15183126457782
 20
-180.50000000000031
 30
0.0
 11
335.15183126457782
 21
-161.50000000000031
 31
0.0
  0
LINE
  5
2CB
  8
0
 10
351.60631393648208
 20
-190.00000000000031
 30
0.0
 11
368.0607966083864
 21
-180.50000000000031
 31
0.0
  0
LINE
  5
2CC
  8
0
 10
351.60631393648208
 20
-190.00000000000031
 30
0.0
 11
335.15183126457782
 21
-180.50000000000031
 31
0.0
  0
LINE
  5
2CD
  8
0
 10
368.0607966083864
 20
-180.50000000000031
 30
0.0
 11
368.0607966083864
 21
-193.5000000000002
 31
0.0
  0
LINE
  5
2CE
  8
0
 10
775.09273638707259
 20
263.49999999999977
 30
0.0
 11
791.54721905897691
 21
272.99999999999977
 31
0.0
  0
LINE
  5
2CF
  8
0
 10
775.09273638707259
 20
244.4999999999998
 30
0.0
 11
791.54721905897691
 21
253.9999999999998
 31
0.0
  0
LINE
  5
2D0
  8
0
 10
775.09273638707259
 20
225.4999999999998
 30
0.0
 11
791.54721905897691
 21
234.9999999999998
 31
0.0
  0
LINE
  5
2D1
  8
0
 10
775.09273638707259
 20
206.4999999999998
 30
0.0
 11
791.54721905897691
 21
215.9999999999998
 31
0.0
  0
LINE
  5
2D2
  8
0
 10
775.09273638707259
 20
187.4999999999998
 30
0.0
 11
791.54721905897691
 21
196.99999999999969
 31
0.0
  0
LINE
  5
2D3
  8
0
 10
775.09273638707259
 20
168.4999999999998
 30
0.0
 11
791.54721905897691
 21
177.9999999999998
 31
0.0
  0
LINE
  5
2D4
  8
0
 10
775.09273638707259
 20
149.49999999999969
 30
0.0
 11
791.54721905897691
 21
158.9999999999998
 31
0.0
  0
LINE
  5
2D5
  8
0
 10
775.09273638707259
 20
130.49999999999969
 30
0.0
 11
791.54721905897691
 21
139.99999999999969
 31
0.0
  0
LINE
  5
2D6
  8
0
 10
775.09273638707259
 20
111.4999999999997
 30
0.0
 11
791.54721905897691
 21
120.9999999999997
 31
0.0
  0
LINE
  5
2D7
  8
0
 10
775.09273638707259
 20
92.499999999999758
 30
0.0
 11
791.54721905897691
 21
101.9999999999998
 31
0.0
  0
LINE
  5
2D8
  8
0
 10
775.09273638707259
 20
73.499999999999773
 30
0.0
 11
791.54721905897691
 21
82.999999999999773
 31
0.0
  0
LINE
  5
2D9
  8
0
 10
775.09273638707259
 20
54.499999999999773
 30
0.0
 11
791.54721905897691
 21
63.999999999999773
 31
0.0
  0
LINE
  5
2DA
  8
0
 10
775.09273638707259
 20
263.49999999999977
 30
0.0
 11
775.09273638707259
 21
282.49999999999977
 31
0.0
  0
LINE
  5
2DB
  8
0
 10
775.09273638707259
 20
225.4999999999998
 30
0.0
 11
775.09273638707259
 21
244.4999999999998
 31
0.0
  0
LINE
  5
2DC
  8
0
 10
775.09273638707259
 20
187.4999999999998
 30
0.0
 11
775.09273638707259
 21
206.4999999999998
 31
0.0
  0
LINE
  5
2DD
  8
0
 10
775.09273638707259
 20
149.49999999999969
 30
0.0
 11
775.09273638707259
 21
168.4999999999998
 31
0.0
  0
LINE
  5
2DE
  8
0
 10
775.09273638707259
 20
111.4999999999997
 30
0.0
 11
775.09273638707259
 21
130.49999999999969
 31
0.0
  0
LINE
  5
2DF
  8
0
 10
775.09273638707259
 20
73.499999999999773
 30
0.0
 11
775.09273638707259
 21
92.499999999999758
 31
0.0
  0
LINE
  5
2E0
  8
0
 10
775.09273638707259
 20
41.499999999999829
 30
0.0
 11
775.09273638707259
 21
54.499999999999773
 31
0.0
  0
LINE
  5
2E4
  8
0
 10
16.454482671904309
 20
212.5
 30
0.0
 11
0.0
 21
222.0
 31
0.0
  0
LINE
  5
2E5
  8
0
 10
16.454482671904309
 20
193.5
 30
0.0
 11
0.0
 21
203.0
 31
0.0
  0
LINE
  5
2E6
  8
0
 10
16.454482671904309
 20
174.5
 30
0.0
 11
0.0
 21
184.0
 31
0.0
  0
LINE
  5
2E7
  8
0
 10
16.454482671904309
 20
155.5
 30
0.0
 11
0.0
 21
165.0
 31
0.0
  0
LINE
  5
2E8
  8
0
 10
16.454482671904309
 20
136.5
 30
0.0
 11
0.0
 21
146.0
 31
0.0
  0
LINE
  5
2E9
  8
0
 10
16.454482671904309
 20
117.5
 30
0.0
 11
0.0
 21
127.0
 31
0.0
  0
LINE
  5
2EA
  8
0
 10
16.454482671904309
 20
98.500000000000014
 30
0.0
 11
0.0
 21
108.0
 31
0.0
  0
LINE
  5
2EB
  8
0
 10
16.454482671904309
 20
79.5
 30
0.0
 11
0.0
 21
89.0
 31
0.0
  0
LINE
  5
2EC
  8
0
 10
16.454482671904309
 20
60.5
 30
0.0
 11
0.0
 21
70.0
 31
0.0
  0
LINE
  5
2ED
  8
0
 10
16.454482671904309
 20
41.5
 30
0.0
 11
0.0
 21
51.0
 31
0.0
  0
LINE
  5
2EE
  8
0
 10
16.454482671904309
 20
22.5
 30
0.0
 11
0.0
 21
32.0
 31
0.0
  0
LINE
  5
2EF
  8
0
 10
16.454482671904309
 20
3.5
 30
0.0
 11
0.0
 21
13.0
 31
0.0
  0
LINE
  5
2F0
  8
0
 10
16.454482671904309
 20
212.5
 30
0.0
 11
16.454482671904309
 21
193.5
 31
0.0
  0
LINE
  5
2F1
  8
0
 10
16.454482671904309
 20
174.5
 30
0.0
 11
16.454482671904309
 21
155.5
 31
0.0
  0
LINE
  5
2F2
  8
0
 10
16.454482671904309
 20
136.5
 30
0.0
 11
16.454482671904309
 21
117.5
 31
0.0
  0
LINE
  5
2F3
  8
0
 10
16.454482671904309
 20
98.500000000000014
 30
0.0
 11
16.454482671904309
 21
79.5
 31
0.0
  0
LINE
  5
2F4
  8
0
 10
16.454482671904309
 20
60.5
 30
0.0
 11
16.454482671904309
 21
41.5
 31
0.0
  0
LINE
  5
2F5
  8
0
 10
16.454482671904309
 20
22.5
 30
0.0
 11
16.454482671904309
 21
3.5
 31
0.0
  0
LINE
  5
2FA
  8
0
 10
439.94090512249488
 20
235.0
 30
0.0
 11
439.94090512249483
 21
476.0
 31
0.0
  0
LINE
  5
2FB
  8
0
 10
233.393846319906
 20
115.7499999999999
 30
0.0
 11
439.94090512249488
 21
235.0
 31
0.0
  0
LINE
  5
2FC
  8
0
 10
439.94090512249488
 20
235.0
 30
0.0
 11
549.9261314031188
 21
171.4999999999998
 31
0.0
  0
LINE
  5
2FD
  8
0
 10
32.908965343808561
 20
241.0
 30
0.0
 11
24.681724007856388
 21
236.25
 31
0.0
  0
LINE
  5
2FE
  8
0
 10
24.681724007856388
 20
236.25
 30
0.0
 11
343.37907260052992
 21
52.249999999999737
 31
0.0
  0
LINE
  5
302
  8
0
 10
351.60631393648208
 20
56.999999999999687
 30
0.0
 11
343.37907260052992
 21
52.249999999999687
 31
0.0
  0
LINE
  5
303
  8
0
 10
32.908965343808532
 20
240.99999999999989
 30
0.0
 11
16.45448267190427
 21
250.49999999999989
 31
0.0
  0
LINE
  5
304
  8
0
 10
32.908965343808497
 20
241.0
 30
0.0
 11
32.908965343808497
 21
231.5
 31
0.0
  0
LINE
  5
305
  8
0
 10
448.16814645844681
 20
480.74999999999989
 30
0.0
 11
448.16814645844681
 21
464.74999999999989
 31
0.0
  0
LINE
  5
306
  8
0
 10
448.16814645844681
 20
464.74999999999989
 30
0.0
 11
439.94090512249471
 21
459.99999999999989
 31
0.0
  0
LINE
  5
307
  8
0
 10
758.63825371516816
 20
291.99999999999977
 30
0.0
 11
775.09273638707259
 21
282.49999999999977
 31
0.0
  0
LINE
  5
308
  8
0
 10
448.16814645844681
 20
480.74999999999989
 30
0.0
 11
766.86549505112043
 21
296.74999999999972
 31
0.0
  0
LINE
  5
309
  8
0
 10
448.16814645844681
 20
464.74999999999989
 30
0.0
 11
753.00908859056938
 21
288.74999999999977
 31
0.0
  0
LINE
  5
30A
  8
0
 10
439.94090512249471
 20
459.99999999999989
 30
0.0
 11
744.78184725461722
 21
283.99999999999972
 31
0.0
  0
INSERT
  5
30D
  8
0
  2
*U2
 10
0.0
 20
0.0
 30
0.0
  0
LINE
  5
360
  8
0
 10
1000.0
 20
95.0
 30
0.0
 11
1000.0
 21
241.0
 31
0.0
  0
LINE
  5
361
  8
0
 10
1000.0
 20
94.999999999999886
 30
0.0
 11
1351.6063139364819
 21
-108.0000000000003
 31
0.0
  0
LINE
  5
362
  8
0
 10
1351.6063139364819
 20
-108.0000000000003
 30
0.0
 11
1791.5472190589769
 21
145.99999999999969
 31
0.0
  0
LINE
  5
363
  8
0
 10
1791.5472190589769
 20
145.9999999999998
 30
0.0
 11
1791.5472190589769
 21
291.99999999999977
 31
0.0
  0
LINE
  5
364
  8
0
 10
1791.5472190589769
 20
291.99999999999977
 30
0.0
 11
1351.6063139364819
 21
37.999999999999723
 31
0.0
  0
LINE
  5
365
  8
0
 10
1766.86549505112
 20
296.74999999999972
 30
0.0
 11
1351.6063139364819
 21
56.999999999999687
 31
0.0
  0
LINE
  5
366
  8
0
 10
1351.6063139364819
 20
37.999999999999723
 30
0.0
 11
1351.6063139364819
 21
-108.0000000000003
 31
0.0
  0
LINE
  5
367
  8
0
 10
1351.6063139364819
 20
37.999999999999723
 30
0.0
 11
1000.0
 21
241.0
 31
0.0
  0
LINE
  5
368
  8
0
 10
1368.060796608386
 20
47.499999999999709
 30
0.0
 11
1351.6063139364819
 21
56.999999999999687
 31
0.0
  0
LINE
  5
369
  8
0
 10
1032.9089653438091
 20
240.99999999999989
 30
0.0
 11
1016.454482671904
 21
250.49999999999989
 31
0.0
  0
LINE
  5
36A
  8
0
 10
1000.0
 20
241.0
 30
0.0
 11
1439.940905122495
 21
495.0
 31
0.0
  0
LINE
  5
36B
  8
0
 10
1032.9089653438091
 20
241.0
 30
0.0
 11
1448.1681464584469
 21
480.74999999999989
 31
0.0
  0
LINE
  5
36C
  8
0
 10
1439.940905122495
 20
495.0
 30
0.0
 11
1791.5472190589769
 21
291.99999999999977
 31
0.0
  0
LINE
  5
36D
  8
0
 10
1423.48642245059
 20
485.5
 30
0.0
 11
1439.940905122495
 21
476.0
 31
0.0
  0
LINE
  5
36E
  8
0
 10
1758.638253715168
 20
291.99999999999977
 30
0.0
 11
1775.0927363870719
 21
282.49999999999977
 31
0.0
  0
LINE
  5
36F
  8
0
 10
1351.6063139364819
 20
37.999999999999723
 30
0.0
 11
1351.6063139364819
 21
18.999999999999709
 31
0.0
  0
LINE
  5
370
  8
0
 10
1351.6063139364819
 20
18.999999999999709
 30
0.0
 11
1368.060796608386
 21
28.499999999999719
 31
0.0
  0
LINE
  5
371
  8
0
 10
1368.060796608386
 20
47.49999999999968
 30
0.0
 11
1368.060796608386
 21
28.499999999999691
 31
0.0
  0
LINE
  5
372
  8
0
 10
1351.6063139364819
 20
18.999999999999709
 30
0.0
 11
1335.151831264578
 21
28.499999999999719
 31
0.0
  0
LINE
  5
373
  8
0
 10
1335.151831264578
 20
9.4999999999997158
 30
0.0
 11
1335.151831264578
 21
28.499999999999719
 31
0.0
  0
LINE
  5
374
  8
0
 10
1351.6063139364819
 20
-0.0000000000002842
 30
0.0
 11
1368.060796608386
 21
9.4999999999997158
 31
0.0
  0
LINE
  5
375
  8
0
 10
1351.6063139364819
 20
-0.0000000000002878
 30
0.0
 11
1335.151831264578
 21
9.4999999999997122
 31
0.0
  0
LINE
  5
376
  8
0
 10
1351.6063139364819
 20
-19.000000000000281
 30
0.0
 11
1368.060796608386
 21
-9.5000000000002842
 31
0.0
  0
LINE
  5
377
  8
0
 10
1368.060796608386
 20
9.4999999999996874
 30
0.0
 11
1368.060796608386
 21
-9.5000000000003126
 31
0.0
  0
LINE
  5
378
  8
0
 10
1351.6063139364819
 20
-19.000000000000281
 30
0.0
 11
1335.151831264578
 21
-9.5000000000002842
 31
0.0
  0
LINE
  5
379
  8
0
 10
1335.151831264578
 20
-28.500000000000281
 30
0.0
 11
1335.151831264578
 21
-9.5000000000002842
 31
0.0
  0
LINE
  5
37A
  8
0
 10
1351.6063139364819
 20
-38.000000000000291
 30
0.0
 11
1368.060796608386
 21
-28.500000000000281
 31
0.0
  0
LINE
  5
37B
  8
0
 10
1351.6063139364819
 20
-38.000000000000291
 30
0.0
 11
1335.151831264578
 21
-28.500000000000291
 31
0.0
  0
LINE
  5
37C
  8
0
 10
1351.6063139364819
 20
-57.000000000000277
 30
0.0
 11
1368.060796608386
 21
-47.500000000000277
 31
0.0
  0
LINE
  5
37D
  8
0
 10
1368.060796608386
 20
-28.500000000000309
 30
0.0
 11
1368.060796608386
 21
-47.500000000000313
 31
0.0
  0
LINE
  5
37E
  8
0
 10
1351.6063139364819
 20
-57.000000000000277
 30
0.0
 11
1335.151831264578
 21
-47.500000000000277
 31
0.0
  0
LINE
  5
37F
  8
0
 10
1335.151831264578
 20
-66.500000000000284
 30
0.0
 11
1335.151831264578
 21
-47.500000000000277
 31
0.0
  0
LINE
  5
380
  8
0
 10
1351.6063139364819
 20
-76.000000000000284
 30
0.0
 11
1368.060796608386
 21
-66.500000000000284
 31
0.0
  0
LINE
  5
381
  8
0
 10
1351.6063139364819
 20
-76.000000000000284
 30
0.0
 11
1335.151831264578
 21
-66.500000000000284
 31
0.0
  0
LINE
  5
382
  8
0
 10
1351.6063139364819
 20
-95.000000000000284
 30
0.0
 11
1368.060796608386
 21
-85.500000000000284
 31
0.0
  0
LINE
  5
383
  8
0
 10
1368.060796608386
 20
-66.500000000000313
 30
0.0
 11
1368.060796608386
 21
-85.500000000000298
 31
0.0
  0
LINE
  5
384
  8
0
 10
1351.6063139364819
 20
-95.000000000000284
 30
0.0
 11
1335.151831264578
 21
-85.500000000000284
 31
0.0
  0
LINE
  5
385
  8
0
 10
1335.151831264578
 20
-98.500000000000284
 30
0.0
 11
1335.151831264578
 21
-85.500000000000284
 31
0.0
  0
LINE
  5
395
  8
0
 10
1775.0927363870719
 20
263.49999999999977
 30
0.0
 11
1791.5472190589769
 21
272.99999999999977
 31
0.0
  0
LINE
  5
396
  8
0
 10
1775.0927363870719
 20
244.4999999999998
 30
0.0
 11
1791.5472190589769
 21
253.9999999999998
 31
0.0
  0
LINE
  5
397
  8
0
 10
1775.0927363870719
 20
225.4999999999998
 30
0.0
 11
1791.5472190589769
 21
234.9999999999998
 31
0.0
  0
LINE
  5
398
  8
0
 10
1775.0927363870719
 20
206.4999999999998
 30
0.0
 11
1791.5472190589769
 21
215.9999999999998
 31
0.0
  0
LINE
  5
399
  8
0
 10
1775.0927363870719
 20
187.4999999999998
 30
0.0
 11
1791.5472190589769
 21
196.99999999999969
 31
0.0
  0
LINE
  5
39A
  8
0
 10
1775.0927363870719
 20
168.4999999999998
 30
0.0
 11
1791.5472190589769
 21
177.9999999999998
 31
0.0
  0
LINE
  5
39B
  8
0
 10
1775.0927363870719
 20
149.49999999999969
 30
0.0
 11
1791.5472190589769
 21
158.9999999999998
 31
0.0
  0
LINE
  5
3A1
  8
0
 10
1775.0927363870719
 20
263.49999999999977
 30
0.0
 11
1775.0927363870719
 21
282.49999999999977
 31
0.0
  0
LINE
  5
3A2
  8
0
 10
1775.0927363870719
 20
225.4999999999998
 30
0.0
 11
1775.0927363870719
 21
244.4999999999998
 31
0.0
  0
LINE
  5
3A3
  8
0
 10
1775.0927363870719
 20
187.4999999999998
 30
0.0
 11
1775.0927363870719
 21
206.4999999999998
 31
0.0
  0
LINE
  5
3A4
  8
0
 10
1775.0927363870719
 20
149.49999999999969
 30
0.0
 11
1775.0927363870719
 21
168.4999999999998
 31
0.0
  0
LINE
  5
3A8
  8
0
 10
1016.454482671904
 20
212.5
 30
0.0
 11
1000.0
 21
222.0
 31
0.0
  0
LINE
  5
3A9
  8
0
 10
1016.454482671904
 20
193.5
 30
0.0
 11
1000.0
 21
203.0
 31
0.0
  0
LINE
  5
3AA
  8
0
 10
1016.454482671904
 20
174.5
 30
0.0
 11
1000.0
 21
184.0
 31
0.0
  0
LINE
  5
3AB
  8
0
 10
1016.454482671904
 20
155.5
 30
0.0
 11
1000.0
 21
165.0
 31
0.0
  0
LINE
  5
3AC
  8
0
 10
1016.454482671904
 20
136.5
 30
0.0
 11
1000.0
 21
146.0
 31
0.0
  0
LINE
  5
3AD
  8
0
 10
1016.454482671904
 20
117.5
 30
0.0
 11
1000.0
 21
127.0
 31
0.0
  0
LINE
  5
3AE
  8
0
 10
1016.454482671904
 20
98.500000000000014
 30
0.0
 11
1000.0
 21
108.0
 31
0.0
  0
LINE
  5
3B4
  8
0
 10
1016.454482671904
 20
212.5
 30
0.0
 11
1016.454482671904
 21
193.5
 31
0.0
  0
LINE
  5
3B5
  8
0
 10
1016.454482671904
 20
174.5
 30
0.0
 11
1016.454482671904
 21
155.5
 31
0.0
  0
LINE
  5
3B6
  8
0
 10
1016.454482671904
 20
136.5
 30
0.0
 11
1016.454482671904
 21
117.5
 31
0.0
  0
LINE
  5
3B7
  8
0
 10
1016.454482671904
 20
98.500000000000014
 30
0.0
 11
1016.454482671904
 21
85.499999999999943
 31
0.0
  0
LINE
  5
3BA
  8
0
 10
1151.121432960384
 20
163.24999999999989
 30
0.0
 11
1439.940905122495
 21
330.0
 31
0.0
  0
LINE
  5
3BB
  8
0
 10
1439.940905122495
 20
330.0
 30
0.0
 11
1632.19854476264
 21
218.9999999999998
 31
0.0
  0
LINE
  5
3BC
  8
0
 10
1439.940905122495
 20
330.0
 30
0.0
 11
1439.940905122495
 21
476.0
 31
0.0
  0
LINE
  5
3BD
  8
0
 10
1032.9089653438091
 20
241.0
 30
0.0
 11
1024.681724007856
 21
236.25
 31
0.0
  0
LINE
  5
3BE
  8
0
 10
1024.681724007856
 20
236.25
 30
0.0
 11
1343.37907260053
 21
52.249999999999737
 31
0.0
  0
LINE
  5
3BF
  8
0
 10
1351.6063139364819
 20
56.999999999999687
 30
0.0
 11
1343.37907260053
 21
52.249999999999687
 31
0.0
  0
LINE
  5
3C0
  8
0
 10
1032.9089653438079
 20
241.0
 30
0.0
 11
1032.9089653438079
 21
231.5
 31
0.0
  0
LINE
  5
3C1
  8
0
 10
1448.1681464584469
 20
480.74999999999989
 30
0.0
 11
1448.1681464584469
 21
464.74999999999989
 31
0.0
  0
LINE
  5
3C2
  8
0
 10
1448.1681464584469
 20
464.74999999999989
 30
0.0
 11
1439.940905122495
 21
459.99999999999989
 31
0.0
  0
LINE
  5
3C3
  8
0
 10
1448.1681464584469
 20
480.74999999999989
 30
0.0
 11
1766.86549505112
 21
296.74999999999972
 31
0.0
  0
LINE
  5
3C4
  8
0
 10
1448.1681464584469
 20
464.74999999999989
 30
0.0
 11
1753.009088590569
 21
288.74999999999977
 31
0.0
  0
LINE
  5
3C5
  8
0
 10
1439.940905122495
 20
459.99999999999989
 30
0.0
 11
1744.7818472546171
 21
283.99999999999972
 31
0.0
  0
INSERT
  5
3C6
  8
0
  2
*U3
 10
0.0
 20
0.0
 30
0.0
  0
LINE
  5
3C7
  8
0
 10
2000.0
 20
116.9999999999999
 30
0.0
 11
2000.0
 21
241.0
 31
0.0
  0
LINE
  5
3C8
  8
0
 10
2000.0
 20
116.9999999999999
 30
0.0
 11
2351.6063139364819
 21
-86.000000000000284
 31
0.0
  0
LINE
  5
3C9
  8
0
 10
2351.6063139364819
 20
-86.000000000000284
 30
0.0
 11
2791.5472190589771
 21
167.99999999999969
 31
0.0
  0
LINE
  5
3CA
  8
0
 10
2791.5472190589771
 20
167.99999999999969
 30
0.0
 11
2791.5472190589771
 21
291.99999999999977
 31
0.0
  0
LINE
  5
3CB
  8
0
 10
2791.5472190589771
 20
291.99999999999977
 30
0.0
 11
2351.6063139364819
 21
37.999999999999723
 31
0.0
  0
LINE
  5
3CC
  8
0
 10
2766.8654950511209
 20
296.74999999999972
 30
0.0
 11
2351.6063139364819
 21
56.999999999999687
 31
0.0
  0
LINE
  5
3CD
  8
0
 10
2351.6063139364819
 20
37.999999999999723
 30
0.0
 11
2351.6063139364819
 21
-86.000000000000284
 31
0.0
  0
LINE
  5
3CE
  8
0
 10
2351.6063139364819
 20
37.999999999999723
 30
0.0
 11
2000.0
 21
241.0
 31
0.0
  0
LINE
  5
3CF
  8
0
 10
2368.0607966083862
 20
47.499999999999709
 30
0.0
 11
2351.6063139364819
 21
56.999999999999687
 31
0.0
  0
LINE
  5
3D0
  8
0
 10
2032.9089653438091
 20
240.99999999999989
 30
0.0
 11
2016.454482671905
 21
250.49999999999989
 31
0.0
  0
LINE
  5
3D1
  8
0
 10
2000.0
 20
241.0
 30
0.0
 11
2439.9409051224952
 21
495.0
 31
0.0
  0
LINE
  5
3D2
  8
0
 10
2032.9089653438091
 20
241.0
 30
0.0
 11
2448.1681464584472
 21
480.74999999999989
 31
0.0
  0
LINE
  5
3D3
  8
0
 10
2439.9409051224952
 20
495.0
 30
0.0
 11
2791.5472190589771
 21
291.99999999999977
 31
0.0
  0
LINE
  5
3D4
  8
0
 10
2423.48642245059
 20
485.5
 30
0.0
 11
2439.9409051224952
 21
476.0
 31
0.0
  0
LINE
  5
3D5
  8
0
 10
2758.638253715169
 20
291.99999999999977
 30
0.0
 11
2775.0927363870719
 21
282.49999999999977
 31
0.0
  0
LINE
  5
3D6
  8
0
 10
2351.6063139364819
 20
37.999999999999723
 30
0.0
 11
2351.6063139364819
 21
18.999999999999709
 31
0.0
  0
LINE
  5
3D7
  8
0
 10
2351.6063139364819
 20
18.999999999999709
 30
0.0
 11
2368.0607966083862
 21
28.499999999999719
 31
0.0
  0
LINE
  5
3D8
  8
0
 10
2368.0607966083862
 20
47.49999999999968
 30
0.0
 11
2368.0607966083862
 21
28.499999999999691
 31
0.0
  0
LINE
  5
3D9
  8
0
 10
2351.6063139364819
 20
18.999999999999709
 30
0.0
 11
2335.151831264578
 21
28.499999999999719
 31
0.0
  0
LINE
  5
3DA
  8
0
 10
2335.151831264578
 20
9.4999999999997158
 30
0.0
 11
2335.151831264578
 21
28.499999999999719
 31
0.0
  0
LINE
  5
3DB
  8
0
 10
2351.6063139364819
 20
-0.0000000000002842
 30
0.0
 11
2368.0607966083862
 21
9.4999999999997158
 31
0.0
  0
LINE
  5
3DC
  8
0
 10
2351.6063139364819
 20
-0.0000000000002878
 30
0.0
 11
2335.151831264578
 21
9.4999999999997122
 31
0.0
  0
LINE
  5
3DD
  8
0
 10
2351.6063139364819
 20
-19.000000000000281
 30
0.0
 11
2368.0607966083862
 21
-9.5000000000002842
 31
0.0
  0
LINE
  5
3DE
  8
0
 10
2368.0607966083862
 20
9.4999999999996874
 30
0.0
 11
2368.0607966083862
 21
-9.5000000000003126
 31
0.0
  0
LINE
  5
3DF
  8
0
 10
2351.6063139364819
 20
-19.000000000000281
 30
0.0
 11
2335.151831264578
 21
-9.5000000000002842
 31
0.0
  0
LINE
  5
3E0
  8
0
 10
2335.151831264578
 20
-28.500000000000281
 30
0.0
 11
2335.151831264578
 21
-9.5000000000002842
 31
0.0
  0
LINE
  5
3E1
  8
0
 10
2351.6063139364819
 20
-38.000000000000291
 30
0.0
 11
2368.0607966083862
 21
-28.500000000000281
 31
0.0
  0
LINE
  5
3E2
  8
0
 10
2351.6063139364819
 20
-38.000000000000291
 30
0.0
 11
2335.151831264578
 21
-28.500000000000291
 31
0.0
  0
LINE
  5
3E3
  8
0
 10
2351.6063139364819
 20
-57.000000000000277
 30
0.0
 11
2368.0607966083862
 21
-47.500000000000277
 31
0.0
  0
LINE
  5
3E4
  8
0
 10
2368.0607966083862
 20
-28.500000000000309
 30
0.0
 11
2368.0607966083862
 21
-47.500000000000313
 31
0.0
  0
LINE
  5
3E5
  8
0
 10
2351.6063139364819
 20
-57.000000000000277
 30
0.0
 11
2335.151831264578
 21
-47.500000000000277
 31
0.0
  0
LINE
  5
3E6
  8
0
 10
2335.151831264578
 20
-66.500000000000284
 30
0.0
 11
2335.151831264578
 21
-47.500000000000277
 31
0.0
  0
LINE
  5
3E7
  8
0
 10
2351.6063139364819
 20
-76.000000000000284
 30
0.0
 11
2368.0607966083862
 21
-66.500000000000284
 31
0.0
  0
LINE
  5
3E8
  8
0
 10
2351.6063139364819
 20
-76.000000000000284
 30
0.0
 11
2335.151831264578
 21
-66.500000000000284
 31
0.0
  0
LINE
  5
3EA
  8
0
 10
2368.0607966083862
 20
-66.500000000000313
 30
0.0
 11
2368.0607966083862
 21
-76.500000000000313
 31
0.0
  0
LINE
  5
3FC
  8
0
 10
2775.0927363870719
 20
263.49999999999977
 30
0.0
 11
2791.5472190589771
 21
272.99999999999977
 31
0.0
  0
LINE
  5
3FD
  8
0
 10
2775.0927363870719
 20
244.4999999999998
 30
0.0
 11
2791.5472190589771
 21
253.9999999999998
 31
0.0
  0
LINE
  5
3FE
  8
0
 10
2775.0927363870719
 20
225.4999999999998
 30
0.0
 11
2791.5472190589771
 21
234.9999999999998
 31
0.0
  0
LINE
  5
3FF
  8
0
 10
2775.0927363870719
 20
206.4999999999998
 30
0.0
 11
2791.5472190589771
 21
215.9999999999998
 31
0.0
  0
LINE
  5
400
  8
0
 10
2775.0927363870719
 20
187.4999999999998
 30
0.0
 11
2791.5472190589771
 21
196.99999999999969
 31
0.0
  0
LINE
  5
401
  8
0
 10
2775.0927363870719
 20
168.4999999999998
 30
0.0
 11
2791.5472190589771
 21
177.9999999999998
 31
0.0
  0
LINE
  5
408
  8
0
 10
2775.0927363870719
 20
263.49999999999977
 30
0.0
 11
2775.0927363870719
 21
282.49999999999977
 31
0.0
  0
LINE
  5
409
  8
0
 10
2775.0927363870719
 20
225.4999999999998
 30
0.0
 11
2775.0927363870719
 21
244.4999999999998
 31
0.0
  0
LINE
  5
40A
  8
0
 10
2775.0927363870719
 20
187.4999999999998
 30
0.0
 11
2775.0927363870719
 21
206.4999999999998
 31
0.0
  0
LINE
  5
40B
  8
0
 10
2775.0927363870719
 20
158.4999999999994
 30
0.0
 11
2775.0927363870719
 21
168.4999999999998
 31
0.0
  0
LINE
  5
40F
  8
0
 10
2016.454482671905
 20
212.5
 30
0.0
 11
2000.0
 21
222.0
 31
0.0
  0
LINE
  5
410
  8
0
 10
2016.454482671905
 20
193.5
 30
0.0
 11
2000.0
 21
203.0
 31
0.0
  0
LINE
  5
411
  8
0
 10
2016.454482671905
 20
174.5
 30
0.0
 11
2000.0
 21
184.0
 31
0.0
  0
LINE
  5
412
  8
0
 10
2016.454482671905
 20
155.5
 30
0.0
 11
2000.0
 21
165.0
 31
0.0
  0
LINE
  5
413
  8
0
 10
2016.454482671905
 20
136.5
 30
0.0
 11
2000.0
 21
146.0
 31
0.0
  0
LINE
  5
414
  8
0
 10
2016.454482671905
 20
117.5
 30
0.0
 11
2000.0
 21
127.0
 31
0.0
  0
LINE
  5
41B
  8
0
 10
2016.454482671905
 20
212.5
 30
0.0
 11
2016.454482671905
 21
193.5
 31
0.0
  0
LINE
  5
41C
  8
0
 10
2016.454482671905
 20
174.5
 30
0.0
 11
2016.454482671905
 21
155.5
 31
0.0
  0
LINE
  5
41D
  8
0
 10
2016.454482671905
 20
136.5
 30
0.0
 11
2016.454482671905
 21
117.5
 31
0.0
  0
LINE
  5
421
  8
0
 10
2132.068874077127
 20
174.24999999999989
 30
0.0
 11
2439.9409051224952
 21
352.0
 31
0.0
  0
LINE
  5
422
  8
0
 10
2439.9409051224952
 20
352.0
 30
0.0
 11
2651.2511036458982
 21
229.9999999999998
 31
0.0
  0
LINE
  5
423
  8
0
 10
2439.9409051224952
 20
352.0
 30
0.0
 11
2439.9409051224952
 21
476.0
 31
0.0
  0
LINE
  5
424
  8
0
 10
2032.9089653438091
 20
241.0
 30
0.0
 11
2024.6817240078569
 21
236.25
 31
0.0
  0
LINE
  5
425
  8
0
 10
2024.6817240078569
 20
236.25
 30
0.0
 11
2343.37907260053
 21
52.249999999999737
 31
0.0
  0
LINE
  5
426
  8
0
 10
2351.6063139364819
 20
56.999999999999687
 30
0.0
 11
2343.37907260053
 21
52.249999999999687
 31
0.0
  0
LINE
  5
427
  8
0
 10
2032.9089653438091
 20
241.0
 30
0.0
 11
2032.9089653438091
 21
231.5
 31
0.0
  0
LINE
  5
428
  8
0
 10
2448.1681464584472
 20
480.74999999999989
 30
0.0
 11
2448.1681464584472
 21
464.74999999999989
 31
0.0
  0
LINE
  5
429
  8
0
 10
2448.1681464584472
 20
464.74999999999989
 30
0.0
 11
2439.9409051224952
 21
459.99999999999989
 31
0.0
  0
LINE
  5
42A
  8
0
 10
2448.1681464584472
 20
480.74999999999989
 30
0.0
 11
2766.8654950511209
 21
296.74999999999972
 31
0.0
  0
LINE
  5
42B
  8
0
 10
2448.1681464584472
 20
464.74999999999989
 30
0.0
 11
2753.0090885905702
 21
288.74999999999977
 31
0.0
  0
LINE
  5
42C
  8
0
 10
2439.9409051224952
 20
459.99999999999989
 30
0.0
 11
2744.7818472546178
 21
283.99999999999972
 31
0.0
  0
INSERT
  5
42D
  8
0
  2
*U4
 10
0.0
 20
0.0
 30
0.0
  0
LINE
  5
42E
  8
0
 10
3000.0
 20
50.999999999999879
 30
0.0
 11
3000.0
 21
241.0
 31
0.0
  0
LINE
  5
42F
  8
0
 10
3000.0
 20
50.999999999999879
 30
0.0
 11
3351.6063139364819
 21
-152.00000000000031
 31
0.0
  0
LINE
  5
430
  8
0
 10
3351.6063139364819
 20
-152.00000000000031
 30
0.0
 11
3791.547219058978
 21
101.9999999999997
 31
0.0
  0
LINE
  5
431
  8
0
 10
3791.547219058978
 20
101.9999999999997
 30
0.0
 11
3791.547219058978
 21
291.99999999999977
 31
0.0
  0
LINE
  5
432
  8
0
 10
3791.547219058978
 20
291.99999999999977
 30
0.0
 11
3351.6063139364819
 21
37.999999999999723
 31
0.0
  0
LINE
  5
433
  8
0
 10
3766.8654950511209
 20
296.74999999999972
 30
0.0
 11
3351.6063139364819
 21
56.999999999999687
 31
0.0
  0
LINE
  5
434
  8
0
 10
3351.6063139364819
 20
37.999999999999723
 30
0.0
 11
3351.6063139364819
 21
-152.00000000000031
 31
0.0
  0
LINE
  5
435
  8
0
 10
3351.6063139364819
 20
37.999999999999723
 30
0.0
 11
3000.0
 21
241.0
 31
0.0
  0
LINE
  5
436
  8
0
 10
3368.0607966083862
 20
47.499999999999709
 30
0.0
 11
3351.6063139364819
 21
56.999999999999687
 31
0.0
  0
LINE
  5
437
  8
0
 10
3032.9089653438091
 20
240.99999999999989
 30
0.0
 11
3016.4544826719052
 21
250.49999999999989
 31
0.0
  0
LINE
  5
438
  8
0
 10
3000.0
 20
241.0
 30
0.0
 11
3439.9409051224952
 21
495.0
 31
0.0
  0
LINE
  5
439
  8
0
 10
3032.9089653438091
 20
241.0
 30
0.0
 11
3448.1681464584472
 21
480.74999999999989
 31
0.0
  0
LINE
  5
43A
  8
0
 10
3439.9409051224952
 20
495.0
 30
0.0
 11
3791.547219058978
 21
291.99999999999977
 31
0.0
  0
LINE
  5
43B
  8
0
 10
3423.48642245059
 20
485.5
 30
0.0
 11
3439.9409051224952
 21
476.0
 31
0.0
  0
LINE
  5
43C
  8
0
 10
3758.638253715169
 20
291.99999999999977
 30
0.0
 11
3775.0927363870719
 21
282.49999999999977
 31
0.0
  0
LINE
  5
43D
  8
0
 10
3351.6063139364819
 20
37.999999999999723
 30
0.0
 11
3351.6063139364819
 21
18.999999999999709
 31
0.0
  0
LINE
  5
43E
  8
0
 10
3351.6063139364819
 20
18.999999999999709
 30
0.0
 11
3368.0607966083862
 21
28.499999999999719
 31
0.0
  0
LINE
  5
43F
  8
0
 10
3368.0607966083862
 20
47.49999999999968
 30
0.0
 11
3368.0607966083862
 21
28.499999999999691
 31
0.0
  0
LINE
  5
440
  8
0
 10
3351.6063139364819
 20
18.999999999999709
 30
0.0
 11
3335.151831264578
 21
28.499999999999719
 31
0.0
  0
LINE
  5
441
  8
0
 10
3335.151831264578
 20
9.4999999999997158
 30
0.0
 11
3335.151831264578
 21
28.499999999999719
 31
0.0
  0
LINE
  5
442
  8
0
 10
3351.6063139364819
 20
-0.0000000000002842
 30
0.0
 11
3368.0607966083862
 21
9.4999999999997158
 31
0.0
  0
LINE
  5
443
  8
0
 10
3351.6063139364819
 20
-0.0000000000002878
 30
0.0
 11
3335.151831264578
 21
9.4999999999997122
 31
0.0
  0
LINE
  5
444
  8
0
 10
3351.6063139364819
 20
-19.000000000000281
 30
0.0
 11
3368.0607966083862
 21
-9.5000000000002842
 31
0.0
  0
LINE
  5
445
  8
0
 10
3368.0607966083862
 20
9.4999999999996874
 30
0.0
 11
3368.0607966083862
 21
-9.5000000000003126
 31
0.0
  0
LINE
  5
446
  8
0
 10
3351.6063139364819
 20
-19.000000000000281
 30
0.0
 11
3335.151831264578
 21
-9.5000000000002842
 31
0.0
  0
LINE
  5
447
  8
0
 10
3335.151831264578
 20
-28.500000000000281
 30
0.0
 11
3335.151831264578
 21
-9.5000000000002842
 31
0.0
  0
LINE
  5
448
  8
0
 10
3351.6063139364819
 20
-38.000000000000291
 30
0.0
 11
3368.0607966083862
 21
-28.500000000000281
 31
0.0
  0
LINE
  5
449
  8
0
 10
3351.6063139364819
 20
-38.000000000000291
 30
0.0
 11
3335.151831264578
 21
-28.500000000000291
 31
0.0
  0
LINE
  5
44A
  8
0
 10
3351.6063139364819
 20
-57.000000000000277
 30
0.0
 11
3368.0607966083862
 21
-47.500000000000277
 31
0.0
  0
LINE
  5
44B
  8
0
 10
3368.0607966083862
 20
-28.500000000000309
 30
0.0
 11
3368.0607966083862
 21
-47.500000000000313
 31
0.0
  0
LINE
  5
44C
  8
0
 10
3351.6063139364819
 20
-57.000000000000277
 30
0.0
 11
3335.151831264578
 21
-47.500000000000277
 31
0.0
  0
LINE
  5
44D
  8
0
 10
3335.151831264578
 20
-66.500000000000284
 30
0.0
 11
3335.151831264578
 21
-47.500000000000277
 31
0.0
  0
LINE
  5
44E
  8
0
 10
3351.6063139364819
 20
-76.000000000000284
 30
0.0
 11
3368.0607966083862
 21
-66.500000000000284
 31
0.0
  0
LINE
  5
44F
  8
0
 10
3351.6063139364819
 20
-76.000000000000284
 30
0.0
 11
3335.151831264578
 21
-66.500000000000284
 31
0.0
  0
LINE
  5
450
  8
0
 10
3351.6063139364819
 20
-95.000000000000284
 30
0.0
 11
3368.0607966083862
 21
-85.500000000000284
 31
0.0
  0
LINE
  5
451
  8
0
 10
3368.0607966083862
 20
-66.500000000000313
 30
0.0
 11
3368.0607966083862
 21
-85.500000000000298
 31
0.0
  0
LINE
  5
452
  8
0
 10
3351.6063139364819
 20
-95.000000000000284
 30
0.0
 11
3335.151831264578
 21
-85.500000000000284
 31
0.0
  0
LINE
  5
453
  8
0
 10
3335.151831264578
 20
-104.5000000000003
 30
0.0
 11
3335.151831264578
 21
-85.500000000000284
 31
0.0
  0
LINE
  5
454
  8
0
 10
3351.6063139364819
 20
-114.0000000000003
 30
0.0
 11
3368.0607966083862
 21
-104.5000000000003
 31
0.0
  0
LINE
  5
455
  8
0
 10
3351.6063139364819
 20
-114.0000000000003
 30
0.0
 11
3335.151831264578
 21
-104.5000000000003
 31
0.0
  0
LINE
  5
456
  8
0
 10
3351.6063139364819
 20
-133.00000000000031
 30
0.0
 11
3368.0607966083862
 21
-123.5000000000002
 31
0.0
  0
LINE
  5
457
  8
0
 10
3368.0607966083862
 20
-104.5000000000003
 30
0.0
 11
3368.0607966083862
 21
-123.5000000000003
 31
0.0
  0
LINE
  5
458
  8
0
 10
3351.6063139364819
 20
-133.00000000000031
 30
0.0
 11
3335.151831264578
 21
-123.5000000000002
 31
0.0
  0
LINE
  5
459
  8
0
 10
3335.151831264578
 20
-142.50000000000031
 30
0.0
 11
3335.151831264578
 21
-123.5000000000002
 31
0.0
  0
LINE
  5
463
  8
0
 10
3775.0927363870719
 20
263.49999999999977
 30
0.0
 11
3791.547219058978
 21
272.99999999999977
 31
0.0
  0
LINE
  5
464
  8
0
 10
3775.0927363870719
 20
244.4999999999998
 30
0.0
 11
3791.547219058978
 21
253.9999999999998
 31
0.0
  0
LINE
  5
465
  8
0
 10
3775.0927363870719
 20
225.4999999999998
 30
0.0
 11
3791.547219058978
 21
234.9999999999998
 31
0.0
  0
LINE
  5
466
  8
0
 10
3775.0927363870719
 20
206.4999999999998
 30
0.0
 11
3791.547219058978
 21
215.9999999999998
 31
0.0
  0
LINE
  5
467
  8
0
 10
3775.0927363870719
 20
187.4999999999998
 30
0.0
 11
3791.547219058978
 21
196.99999999999969
 31
0.0
  0
LINE
  5
468
  8
0
 10
3775.0927363870719
 20
168.4999999999998
 30
0.0
 11
3791.547219058978
 21
177.9999999999998
 31
0.0
  0
LINE
  5
469
  8
0
 10
3775.0927363870719
 20
149.49999999999969
 30
0.0
 11
3791.547219058978
 21
158.9999999999998
 31
0.0
  0
LINE
  5
46A
  8
0
 10
3775.0927363870719
 20
130.49999999999969
 30
0.0
 11
3791.547219058978
 21
139.99999999999969
 31
0.0
  0
LINE
  5
46B
  8
0
 10
3775.0927363870719
 20
111.4999999999997
 30
0.0
 11
3791.547219058978
 21
120.9999999999997
 31
0.0
  0
LINE
  5
46F
  8
0
 10
3775.0927363870719
 20
263.49999999999977
 30
0.0
 11
3775.0927363870719
 21
282.49999999999977
 31
0.0
  0
LINE
  5
470
  8
0
 10
3775.0927363870719
 20
225.4999999999998
 30
0.0
 11
3775.0927363870719
 21
244.4999999999998
 31
0.0
  0
LINE
  5
471
  8
0
 10
3775.0927363870719
 20
187.4999999999998
 30
0.0
 11
3775.0927363870719
 21
206.4999999999998
 31
0.0
  0
LINE
  5
472
  8
0
 10
3775.0927363870719
 20
149.49999999999969
 30
0.0
 11
3775.0927363870719
 21
168.4999999999998
 31
0.0
  0
LINE
  5
473
  8
0
 10
3775.0927363870719
 20
111.4999999999997
 30
0.0
 11
3775.0927363870719
 21
130.49999999999969
 31
0.0
  0
LINE
  5
476
  8
0
 10
3016.4544826719052
 20
212.5
 30
0.0
 11
3000.0
 21
222.0
 31
0.0
  0
LINE
  5
477
  8
0
 10
3016.4544826719052
 20
193.5
 30
0.0
 11
3000.0
 21
203.0
 31
0.0
  0
LINE
  5
478
  8
0
 10
3016.4544826719052
 20
174.5
 30
0.0
 11
3000.0
 21
184.0
 31
0.0
  0
LINE
  5
479
  8
0
 10
3016.4544826719052
 20
155.5
 30
0.0
 11
3000.0
 21
165.0
 31
0.0
  0
LINE
  5
47A
  8
0
 10
3016.4544826719052
 20
136.5
 30
0.0
 11
3000.0
 21
146.0
 31
0.0
  0
LINE
  5
47B
  8
0
 10
3016.4544826719052
 20
117.5
 30
0.0
 11
3000.0
 21
127.0
 31
0.0
  0
LINE
  5
47C
  8
0
 10
3016.4544826719052
 20
98.500000000000014
 30
0.0
 11
3000.0
 21
108.0
 31
0.0
  0
LINE
  5
47D
  8
0
 10
3016.4544826719052
 20
79.5
 30
0.0
 11
3000.0
 21
89.0
 31
0.0
  0
LINE
  5
47E
  8
0
 10
3016.4544826719052
 20
60.5
 30
0.0
 11
3000.0
 21
70.0
 31
0.0
  0
LINE
  5
482
  8
0
 10
3016.4544826719052
 20
212.5
 30
0.0
 11
3016.4544826719052
 21
193.5
 31
0.0
  0
LINE
  5
483
  8
0
 10
3016.4544826719052
 20
174.5
 30
0.0
 11
3016.4544826719052
 21
155.5
 31
0.0
  0
LINE
  5
484
  8
0
 10
3016.4544826719052
 20
136.5
 30
0.0
 11
3016.4544826719052
 21
117.5
 31
0.0
  0
LINE
  5
485
  8
0
 10
3016.4544826719052
 20
98.500000000000014
 30
0.0
 11
3016.4544826719052
 21
79.5
 31
0.0
  0
LINE
  5
486
  8
0
 10
3016.4544826719052
 20
60.5
 30
0.0
 11
3016.4544826719052
 21
41.5
 31
0.0
  0
LINE
  5
488
  8
0
 10
3189.2265507268999
 20
141.24999999999989
 30
0.0
 11
3439.9409051224952
 21
286.0
 31
0.0
  0
LINE
  5
489
  8
0
 10
3439.9409051224952
 20
286.0
 30
0.0
 11
3594.0934269961249
 21
196.9999999999998
 31
0.0
  0
LINE
  5
48A
  8
0
 10
3439.9409051224952
 20
286.0
 30
0.0
 11
3439.9409051224952
 21
476.0
 31
0.0
  0
LINE
  5
48B
  8
0
 10
3032.9089653438091
 20
241.0
 30
0.0
 11
3024.6817240078558
 21
236.25
 31
0.0
  0
LINE
  5
48C
  8
0
 10
3024.6817240078558
 20
236.25
 30
0.0
 11
3343.37907260053
 21
52.249999999999737
 31
0.0
  0
LINE
  5
48D
  8
0
 10
3351.6063139364819
 20
56.999999999999687
 30
0.0
 11
3343.37907260053
 21
52.249999999999687
 31
0.0
  0
LINE
  5
48E
  8
0
 10
3032.9089653438091
 20
241.0
 30
0.0
 11
3032.9089653438091
 21
231.5
 31
0.0
  0
LINE
  5
48F
  8
0
 10
3448.1681464584472
 20
480.74999999999989
 30
0.0
 11
3448.1681464584472
 21
464.74999999999989
 31
0.0
  0
LINE
  5
490
  8
0
 10
3448.1681464584472
 20
464.74999999999989
 30
0.0
 11
3439.9409051224952
 21
459.99999999999989
 31
0.0
  0
LINE
  5
491
  8
0
 10
3448.1681464584472
 20
480.74999999999989
 30
0.0
 11
3766.8654950511209
 21
296.74999999999972
 31
0.0
  0
LINE
  5
492
  8
0
 10
3448.1681464584472
 20
464.74999999999989
 30
0.0
 11
3753.0090885905702
 21
288.74999999999977
 31
0.0
  0
LINE
  5
493
  8
0
 10
3439.9409051224952
 20
459.99999999999989
 30
0.0
 11
3744.7818472546178
 21
283.99999999999972
 31
0.0
  0
INSERT
  5
494
  8
0
  2
*U5
 10
0.0
 20
0.0
 30
0.0
  0
LINE
  5
498
  8
0
 10
4000.0
 20
72.999999999999886
 30
0.0
 11
4000.0
 21
241.0
 31
0.0
  0
LINE
  5
499
  8
0
 10
4000.0
 20
72.999999999999886
 30
0.0
 11
4351.6063139364824
 21
-130.00000000000031
 31
0.0
  0
LINE
  5
49A
  8
0
 10
4351.6063139364824
 20
-130.00000000000031
 30
0.0
 11
4791.5472190589771
 21
123.9999999999997
 31
0.0
  0
LINE
  5
49B
  8
0
 10
4791.5472190589771
 20
123.9999999999997
 30
0.0
 11
4791.5472190589771
 21
291.99999999999977
 31
0.0
  0
LINE
  5
49C
  8
0
 10
4791.5472190589771
 20
291.99999999999977
 30
0.0
 11
4351.6063139364824
 21
37.999999999999723
 31
0.0
  0
LINE
  5
49D
  8
0
 10
4766.8654950511209
 20
296.74999999999972
 30
0.0
 11
4351.6063139364824
 21
56.999999999999687
 31
0.0
  0
LINE
  5
49E
  8
0
 10
4351.6063139364824
 20
37.999999999999723
 30
0.0
 11
4351.6063139364824
 21
-130.00000000000031
 31
0.0
  0
LINE
  5
49F
  8
0
 10
4351.6063139364824
 20
37.999999999999723
 30
0.0
 11
4000.0
 21
241.0
 31
0.0
  0
LINE
  5
4A0
  8
0
 10
4368.0607966083862
 20
47.499999999999709
 30
0.0
 11
4351.6063139364824
 21
56.999999999999687
 31
0.0
  0
LINE
  5
4A1
  8
0
 10
4032.9089653438091
 20
240.99999999999989
 30
0.0
 11
4016.4544826719039
 21
250.49999999999989
 31
0.0
  0
LINE
  5
4A2
  8
0
 10
4000.0
 20
241.0
 30
0.0
 11
4439.9409051224948
 21
495.0
 31
0.0
  0
LINE
  5
4A3
  8
0
 10
4032.9089653438091
 20
241.0
 30
0.0
 11
4448.1681464584472
 21
480.74999999999989
 31
0.0
  0
LINE
  5
4A4
  8
0
 10
4439.9409051224948
 20
495.0
 30
0.0
 11
4791.5472190589771
 21
291.99999999999977
 31
0.0
  0
LINE
  5
4A5
  8
0
 10
4423.4864224505891
 20
485.5
 30
0.0
 11
4439.9409051224948
 21
476.0
 31
0.0
  0
LINE
  5
4A6
  8
0
 10
4758.6382537151676
 20
291.99999999999977
 30
0.0
 11
4775.0927363870724
 21
282.49999999999977
 31
0.0
  0
LINE
  5
4A7
  8
0
 10
4351.6063139364824
 20
37.999999999999723
 30
0.0
 11
4351.6063139364824
 21
18.999999999999709
 31
0.0
  0
LINE
  5
4A8
  8
0
 10
4351.6063139364824
 20
18.999999999999709
 30
0.0
 11
4368.0607966083862
 21
28.499999999999719
 31
0.0
  0
LINE
  5
4A9
  8
0
 10
4368.0607966083862
 20
47.49999999999968
 30
0.0
 11
4368.0607966083862
 21
28.499999999999691
 31
0.0
  0
LINE
  5
4AA
  8
0
 10
4351.6063139364824
 20
18.999999999999709
 30
0.0
 11
4335.1518312645767
 21
28.499999999999719
 31
0.0
  0
LINE
  5
4AB
  8
0
 10
4335.1518312645767
 20
9.4999999999997158
 30
0.0
 11
4335.1518312645767
 21
28.499999999999719
 31
0.0
  0
LINE
  5
4AC
  8
0
 10
4351.6063139364824
 20
-0.0000000000002842
 30
0.0
 11
4368.0607966083862
 21
9.4999999999997158
 31
0.0
  0
LINE
  5
4AD
  8
0
 10
4351.6063139364824
 20
-0.0000000000002878
 30
0.0
 11
4335.1518312645767
 21
9.4999999999997122
 31
0.0
  0
LINE
  5
4AE
  8
0
 10
4351.6063139364824
 20
-19.000000000000281
 30
0.0
 11
4368.0607966083862
 21
-9.5000000000002842
 31
0.0
  0
LINE
  5
4AF
  8
0
 10
4368.0607966083862
 20
9.4999999999996874
 30
0.0
 11
4368.0607966083862
 21
-9.5000000000003126
 31
0.0
  0
LINE
  5
4B0
  8
0
 10
4351.6063139364824
 20
-19.000000000000281
 30
0.0
 11
4335.1518312645767
 21
-9.5000000000002842
 31
0.0
  0
LINE
  5
4B1
  8
0
 10
4335.1518312645767
 20
-28.500000000000281
 30
0.0
 11
4335.1518312645767
 21
-9.5000000000002842
 31
0.0
  0
LINE
  5
4B2
  8
0
 10
4351.6063139364824
 20
-38.000000000000291
 30
0.0
 11
4368.0607966083862
 21
-28.500000000000281
 31
0.0
  0
LINE
  5
4B3
  8
0
 10
4351.6063139364824
 20
-38.000000000000291
 30
0.0
 11
4335.1518312645767
 21
-28.500000000000291
 31
0.0
  0
LINE
  5
4B4
  8
0
 10
4351.6063139364824
 20
-57.000000000000277
 30
0.0
 11
4368.0607966083862
 21
-47.500000000000277
 31
0.0
  0
LINE
  5
4B5
  8
0
 10
4368.0607966083862
 20
-28.500000000000309
 30
0.0
 11
4368.0607966083862
 21
-47.500000000000313
 31
0.0
  0
LINE
  5
4B6
  8
0
 10
4351.6063139364824
 20
-57.000000000000277
 30
0.0
 11
4335.1518312645767
 21
-47.500000000000277
 31
0.0
  0
LINE
  5
4B7
  8
0
 10
4335.1518312645767
 20
-66.500000000000284
 30
0.0
 11
4335.1518312645767
 21
-47.500000000000277
 31
0.0
  0
LINE
  5
4B8
  8
0
 10
4351.6063139364824
 20
-76.000000000000284
 30
0.0
 11
4368.0607966083862
 21
-66.500000000000284
 31
0.0
  0
LINE
  5
4B9
  8
0
 10
4351.6063139364824
 20
-76.000000000000284
 30
0.0
 11
4335.1518312645767
 21
-66.500000000000284
 31
0.0
  0
LINE
  5
4BA
  8
0
 10
4351.6063139364824
 20
-95.000000000000284
 30
0.0
 11
4368.0607966083862
 21
-85.500000000000284
 31
0.0
  0
LINE
  5
4BB
  8
0
 10
4368.0607966083862
 20
-66.500000000000313
 30
0.0
 11
4368.0607966083862
 21
-85.500000000000298
 31
0.0
  0
LINE
  5
4BC
  8
0
 10
4351.6063139364824
 20
-95.000000000000284
 30
0.0
 11
4335.1518312645767
 21
-85.500000000000284
 31
0.0
  0
LINE
  5
4BD
  8
0
 10
4335.1518312645767
 20
-104.5000000000003
 30
0.0
 11
4335.1518312645767
 21
-85.500000000000284
 31
0.0
  0
LINE
  5
4BE
  8
0
 10
4351.6063139364824
 20
-114.0000000000003
 30
0.0
 11
4368.0607966083862
 21
-104.5000000000003
 31
0.0
  0
LINE
  5
4BF
  8
0
 10
4351.6063139364824
 20
-114.0000000000003
 30
0.0
 11
4335.1518312645767
 21
-104.5000000000003
 31
0.0
  0
LINE
  5
4C1
  8
0
 10
4368.0607966083862
 20
-104.5000000000003
 30
0.0
 11
4368.0607966083862
 21
-120.5000000000005
 31
0.0
  0
LINE
  5
4CD
  8
0
 10
4775.0927363870724
 20
263.49999999999977
 30
0.0
 11
4791.5472190589771
 21
272.99999999999977
 31
0.0
  0
LINE
  5
4CE
  8
0
 10
4775.0927363870724
 20
244.4999999999998
 30
0.0
 11
4791.5472190589771
 21
253.9999999999998
 31
0.0
  0
LINE
  5
4CF
  8
0
 10
4775.0927363870724
 20
225.4999999999998
 30
0.0
 11
4791.5472190589771
 21
234.9999999999998
 31
0.0
  0
LINE
  5
4D0
  8
0
 10
4775.0927363870724
 20
206.4999999999998
 30
0.0
 11
4791.5472190589771
 21
215.9999999999998
 31
0.0
  0
LINE
  5
4D1
  8
0
 10
4775.0927363870724
 20
187.4999999999998
 30
0.0
 11
4791.5472190589771
 21
196.99999999999969
 31
0.0
  0
LINE
  5
4D2
  8
0
 10
4775.0927363870724
 20
168.4999999999998
 30
0.0
 11
4791.5472190589771
 21
177.9999999999998
 31
0.0
  0
LINE
  5
4D3
  8
0
 10
4775.0927363870724
 20
149.49999999999969
 30
0.0
 11
4791.5472190589771
 21
158.9999999999998
 31
0.0
  0
LINE
  5
4D4
  8
0
 10
4775.0927363870724
 20
130.49999999999969
 30
0.0
 11
4791.5472190589771
 21
139.99999999999969
 31
0.0
  0
LINE
  5
4D9
  8
0
 10
4775.0927363870724
 20
263.49999999999977
 30
0.0
 11
4775.0927363870724
 21
282.49999999999977
 31
0.0
  0
LINE
  5
4DA
  8
0
 10
4775.0927363870724
 20
225.4999999999998
 30
0.0
 11
4775.0927363870724
 21
244.4999999999998
 31
0.0
  0
LINE
  5
4DB
  8
0
 10
4775.0927363870724
 20
187.4999999999998
 30
0.0
 11
4775.0927363870724
 21
206.4999999999998
 31
0.0
  0
LINE
  5
4DC
  8
0
 10
4775.0927363870724
 20
149.49999999999969
 30
0.0
 11
4775.0927363870724
 21
168.4999999999998
 31
0.0
  0
LINE
  5
4DD
  8
0
 10
4775.0927363870724
 20
114.4999999999994
 30
0.0
 11
4775.0927363870724
 21
130.49999999999969
 31
0.0
  0
LINE
  5
4E0
  8
0
 10
4016.4544826719039
 20
212.5
 30
0.0
 11
4000.0
 21
222.0
 31
0.0
  0
LINE
  5
4E1
  8
0
 10
4016.4544826719039
 20
193.5
 30
0.0
 11
4000.0
 21
203.0
 31
0.0
  0
LINE
  5
4E2
  8
0
 10
4016.4544826719039
 20
174.5
 30
0.0
 11
4000.0
 21
184.0
 31
0.0
  0
LINE
  5
4E3
  8
0
 10
4016.4544826719039
 20
155.5
 30
0.0
 11
4000.0
 21
165.0
 31
0.0
  0
LINE
  5
4E4
  8
0
 10
4016.4544826719039
 20
136.5
 30
0.0
 11
4000.0
 21
146.0
 31
0.0
  0
LINE
  5
4E5
  8
0
 10
4016.4544826719039
 20
117.5
 30
0.0
 11
4000.0
 21
127.0
 31
0.0
  0
LINE
  5
4E6
  8
0
 10
4016.4544826719039
 20
98.500000000000014
 30
0.0
 11
4000.0
 21
108.0
 31
0.0
  0
LINE
  5
4E7
  8
0
 10
4016.4544826719039
 20
79.5
 30
0.0
 11
4000.0
 21
89.0
 31
0.0
  0
LINE
  5
4EC
  8
0
 10
4016.4544826719039
 20
212.5
 30
0.0
 11
4016.4544826719039
 21
193.5
 31
0.0
  0
LINE
  5
4ED
  8
0
 10
4016.4544826719039
 20
174.5
 30
0.0
 11
4016.4544826719039
 21
155.5
 31
0.0
  0
LINE
  5
4EE
  8
0
 10
4016.4544826719039
 20
136.5
 30
0.0
 11
4016.4544826719039
 21
117.5
 31
0.0
  0
LINE
  5
4EF
  8
0
 10
4016.4544826719039
 20
98.500000000000014
 30
0.0
 11
4016.4544826719039
 21
79.5
 31
0.0
  0
LINE
  5
4F2
  8
0
 10
4170.1739918436424
 20
152.25
 30
0.0
 11
4439.9409051224948
 21
308.0
 31
0.0
  0
LINE
  5
4F3
  8
0
 10
4439.9409051224948
 20
308.0
 30
0.0
 11
4613.1459858793833
 21
207.99999999999989
 31
0.0
  0
LINE
  5
4F4
  8
0
 10
4439.9409051224948
 20
308.0
 30
0.0
 11
4439.9409051224948
 21
476.0
 31
0.0
  0
LINE
  5
4F5
  8
0
 10
4032.9089653438091
 20
241.0
 30
0.0
 11
4024.6817240078558
 21
236.25
 31
0.0
  0
LINE
  5
4F6
  8
0
 10
4024.6817240078558
 20
236.25
 30
0.0
 11
4343.3790726005291
 21
52.249999999999737
 31
0.0
  0
LINE
  5
4F7
  8
0
 10
4351.6063139364824
 20
56.999999999999687
 30
0.0
 11
4343.3790726005291
 21
52.249999999999687
 31
0.0
  0
LINE
  5
4F8
  8
0
 10
4032.9089653438091
 20
241.0
 30
0.0
 11
4032.9089653438091
 21
231.5
 31
0.0
  0
LINE
  5
4F9
  8
0
 10
4448.1681464584472
 20
480.74999999999989
 30
0.0
 11
4448.1681464584472
 21
464.74999999999989
 31
0.0
  0
LINE
  5
4FA
  8
0
 10
4448.1681464584472
 20
464.74999999999989
 30
0.0
 11
4439.9409051224948
 21
459.99999999999989
 31
0.0
  0
LINE
  5
4FB
  8
0
 10
4448.1681464584472
 20
480.74999999999989
 30
0.0
 11
4766.8654950511209
 21
296.74999999999972
 31
0.0
  0
LINE
  5
4FC
  8
0
 10
4448.1681464584472
 20
464.74999999999989
 30
0.0
 11
4753.0090885905693
 21
288.74999999999977
 31
0.0
  0
LINE
  5
4FD
  8
0
 10
4439.9409051224948
 20
459.99999999999989
 30
0.0
 11
4744.7818472546169
 21
283.99999999999972
 31
0.0
  0
INSERT
  5
4FE
  8
0
  2
*U6
 10
0.0
 20
0.0
 30
0.0
  0
ENDSEC
  0
EOF
