  0
SECTION
  2
HEADER
  9
$ACADVER
  1
AC1009
  9
$INSBASE
 10
0.0
 20
0.0
 30
0.0
  9
$EXTMIN
 10
-0.0000000000000092
 20
-1074.4960121998131
 30
0.0
  9
$EXTMAX
 10
4791.5472190589771
 20
944.0
 30
0.0
  9
$LIMMIN
 10
0.0
 20
0.0
  9
$LIMMAX
 10
420.0
 20
297.0
  9
$ORTHOMODE
 70
     0
  9
$REGENMODE
 70
     1
  9
$FILLMODE
 70
     1
  9
$QTEXTMODE
 70
     0
  9
$MIRRTEXT
 70
     0
  9
$DRAGMODE
 70
     2
  9
$LTSCALE
 40
1.0
  9
$OSMODE
 70
    39
  9
$ATTMODE
 70
     1
  9
$TEXTSIZE
 40
2.5
  9
$TRACEWID
 40
1.0
  9
$TEXTSTYLE
  7
STANDARD
  9
$CLAYER
  8
0
  9
$CELTYPE
  6
BYLAYER
  9
$CECOLOR
 62
   256
  9
$DIMSCALE
 40
1.0
  9
$DIMASZ
 40
2.5
  9
$DIMEXO
 40
0.625
  9
$DIMDLI
 40
3.75
  9
$DIMRND
 40
0.0
  9
$DIMDLE
 40
0.0
  9
$DIMEXE
 40
1.25
  9
$DIMTP
 40
0.0
  9
$DIMTM
 40
0.0
  9
$DIMTXT
 40
2.5
  9
$DIMCEN
 40
2.5
  9
$DIMTSZ
 40
0.0
  9
$DIMTOL
 70
     0
  9
$DIMLIM
 70
     0
  9
$DIMTIH
 70
     0
  9
$DIMTOH
 70
     0
  9
$DIMSE1
 70
     0
  9
$DIMSE2
 70
     0
  9
$DIMTAD
 70
     1
  9
$DIMZIN
 70
     8
  9
$DIMBLK
  1

  9
$DIMASO
 70
     1
  9
$DIMSHO
 70
     1
  9
$DIMPOST
  1

  9
$DIMAPOST
  1

  9
$DIMALT
 70
     0
  9
$DIMALTD
 70
     3
  9
$DIMALTF
 40
0.03937007874016
  9
$DIMLFAC
 40
1.0
  9
$DIMTOFL
 70
     1
  9
$DIMTVP
 40
0.0
  9
$DIMTIX
 70
     0
  9
$DIMSOXD
 70
     0
  9
$DIMSAH
 70
     0
  9
$DIMBLK1
  1

  9
$DIMBLK2
  1

  9
$DIMSTYLE
  2
ISO-25
  9
$DIMCLRD
 70
     0
  9
$DIMCLRE
 70
     0
  9
$DIMCLRT
 70
     0
  9
$DIMTFAC
 40
1.0
  9
$DIMGAP
 40
0.625
  9
$LUNITS
 70
     2
  9
$LUPREC
 70
     4
  9
$SKETCHINC
 40
1.0
  9
$FILLETRAD
 40
0.0
  9
$AUNITS
 70
     0
  9
$AUPREC
 70
     0
  9
$MENU
  1
.
  9
$ELEVATION
 40
0.0
  9
$PELEVATION
 40
0.0
  9
$THICKNESS
 40
0.0
  9
$LIMCHECK
 70
     0
  9
$BLIPMODE
 70
     0
  9
$CHAMFERA
 40
0.0
  9
$CHAMFERB
 40
0.0
  9
$SKPOLY
 70
     0
  9
$TDCREATE
 40
2456921.9099242478
  9
$TDUPDATE
 40
2456922.0100613199
  9
$TDINDWG
 40
0.1001381944
  9
$TDUSRTIMER
 40
0.1001379051
  9
$USRTIMER
 70
     1
  9
$ANGBASE
 50
0.0
  9
$ANGDIR
 70
     0
  9
$PDMODE
 70
     0
  9
$PDSIZE
 40
0.0
  9
$PLINEWID
 40
0.0
  9
$COORDS
 70
     1
  9
$SPLFRAME
 70
     0
  9
$SPLINETYPE
 70
     6
  9
$SPLINESEGS
 70
     8
  9
$ATTDIA
 70
     1
  9
$ATTREQ
 70
     1
  9
$HANDLING
 70
     1
  9
$HANDSEED
  5
898
  9
$SURFTAB1
 70
     6
  9
$SURFTAB2
 70
     6
  9
$SURFTYPE
 70
     6
  9
$SURFU
 70
     6
  9
$SURFV
 70
     6
  9
$UCSNAME
  2

  9
$UCSORG
 10
0.0
 20
0.0
 30
0.0
  9
$UCSXDIR
 10
1.0
 20
0.0
 30
0.0
  9
$UCSYDIR
 10
0.0
 20
1.0
 30
0.0
  9
$PUCSNAME
  2

  9
$PUCSORG
 10
0.0
 20
0.0
 30
0.0
  9
$PUCSXDIR
 10
1.0
 20
0.0
 30
0.0
  9
$PUCSYDIR
 10
0.0
 20
1.0
 30
0.0
  9
$USERI1
 70
     0
  9
$USERI2
 70
     0
  9
$USERI3
 70
     0
  9
$USERI4
 70
     0
  9
$USERI5
 70
     0
  9
$USERR1
 40
0.0
  9
$USERR2
 40
0.0
  9
$USERR3
 40
0.0
  9
$USERR4
 40
0.0
  9
$USERR5
 40
0.0
  9
$WORLDVIEW
 70
     1
  9
$SHADEDGE
 70
     3
  9
$SHADEDIF
 70
    70
  9
$TILEMODE
 70
     1
  9
$MAXACTVP
 70
    64
  9
$PLIMCHECK
 70
     0
  9
$PEXTMIN
 10
0.0
 20
0.0
 30
0.0
  9
$PEXTMAX
 10
0.0
 20
0.0
 30
0.0
  9
$PLIMMIN
 10
0.0
 20
0.0
  9
$PLIMMAX
 10
12.0
 20
9.0
  9
$UNITMODE
 70
     0
  9
$VISRETAIN
 70
     1
  9
$PLINEGEN
 70
     0
  9
$PSLTSCALE
 70
     1
  0
ENDSEC
  0
SECTION
  2
TABLES
  0
TABLE
  2
VPORT
 70
     1
  0
VPORT
  2
*ACTIVE
 70
     0
 10
0.0
 20
0.0
 11
1.0
 21
1.0
 12
2322.736840514855
 22
-395.73937095904262
 13
0.0
 23
0.0
 14
10.0
 24
10.0
 15
10.0
 25
10.0
 16
0.0
 26
0.0
 36
1.0
 17
0.0
 27
0.0
 37
0.0
 40
3502.6818170547531
 41
2.0340760157273921
 42
50.0
 43
0.0
 44
0.0
 50
0.0
 51
0.0
 71
     0
 72
  1000
 73
     1
 74
     3
 75
     0
 76
     1
 77
     0
 78
     0
  0
ENDTAB
  0
TABLE
  2
LTYPE
 70
     3
  0
LTYPE
  2
CONTINUOUS
 70
     0
  3
Solid line
 72
    65
 73
     0
 40
0.0
  0
ENDTAB
  0
TABLE
  2
LAYER
 70
     1
  0
LAYER
  2
0
 70
     0
 62
     7
  6
CONTINUOUS
  0
ENDTAB
  0
TABLE
  2
STYLE
 70
     2
  0
STYLE
  2
STANDARD
 70
     0
 40
0.0
 41
1.0
 50
0.0
 71
     0
 42
2.5
  3
txt
  4

  0
STYLE
  2
ANNOTATIVE
 70
     0
 40
0.0
 41
1.0
 50
0.0
 71
     0
 42
2.5
  3
txt
  4

  0
ENDTAB
  0
TABLE
  2
VIEW
 70
     0
  0
ENDTAB
  0
TABLE
  2
UCS
 70
     0
  0
ENDTAB
  0
TABLE
  2
APPID
 70
     9
  0
APPID
  2
ACAD
 70
     0
  0
APPID
  2
ACAD_PSEXT
 70
     0
  0
APPID
  2
ACADANNOPO
 70
     0
  0
APPID
  2
ACADANNOTATIVE
 70
     0
  0
APPID
  2
ACAD_DSTYLE_DIMJAG
 70
     0
  0
APPID
  2
ACAD_DSTYLE_DIMTALN
 70
     0
  0
APPID
  2
ACAD_MLEADERVER
 70
     0
  0
APPID
  2
ACAD_NAV_VCDISPLAY
 70
     0
  0
APPID
  2
ACAD_EXEMPT_FROM_CAD_STANDARDS
 70
     0
  0
ENDTAB
  0
TABLE
  2
DIMSTYLE
 70
     4
  0
DIMSTYLE
  2
STANDARD
 70
     0
  3

  4

  5

  6

  7

 40
1.0
 41
0.18
 42
0.0625
 43
0.38
 44
0.18
 45
0.0
 46
0.0
 47
0.0
 48
0.0
140
0.18
141
0.09
142
0.0
143
25.399999999999999
144
1.0
145
0.0
146
1.0
147
0.09
 71
     0
 72
     0
 73
     1
 74
     1
 75
     0
 76
     0
 77
     0
 78
     0
170
     0
171
     2
172
     0
173
     0
174
     0
175
     0
176
     0
177
     0
178
     0
  0
DIMSTYLE
  2
ANNOTATIVE
 70
     0
  3

  4

  5

  6

  7

 40
0.0
 41
2.5
 42
0.625
 43
3.75
 44
1.25
 45
0.0
 46
0.0
 47
0.0
 48
0.0
140
2.5
141
2.5
142
0.0
143
0.03937007874016
144
1.0
145
0.0
146
1.0
147
0.625
 71
     0
 72
     0
 73
     0
 74
     0
 75
     0
 76
     0
 77
     1
 78
     8
170
     0
171
     3
172
     1
173
     0
174
     0
175
     0
176
     0
177
     0
178
     0
  0
DIMSTYLE
  2
ISO-25
 70
     0
  3

  4

  5

  6

  7

 40
1.0
 41
2.5
 42
0.625
 43
3.75
 44
1.25
 45
0.0
 46
0.0
 47
0.0
 48
0.0
140
2.5
141
2.5
142
0.0
143
0.03937007874016
144
1.0
145
0.0
146
1.0
147
0.625
 71
     0
 72
     0
 73
     0
 74
     0
 75
     0
 76
     0
 77
     1
 78
     8
170
     0
171
     3
172
     1
173
     0
174
     0
175
     0
176
     0
177
     0
178
     0
  0
ENDTAB
  0
ENDSEC
  0
SECTION
  2
BLOCKS
  0
BLOCK
  8
0
  2
$MODEL_SPACE
 70
     0
 10
0.0
 20
0.0
 30
0.0
  3
$MODEL_SPACE
  1

  0
ENDBLK
  5
21
  8
0
  0
BLOCK
 67
     1
  8
0
  2
$PAPER_SPACE
 70
     0
 10
0.0
 20
0.0
 30
0.0
  3
$PAPER_SPACE
  1

  0
ENDBLK
  5
D5
 67
     1
  8
0
  0
BLOCK
  8
0
  2
*U2
 70
     1
 10
0.0
 20
0.0
 30
0.0
  3
*U2
  1

  0
TEXT
  5
879
  8
0
 10
260.40700411488677
 20
-315.10310633351042
 30
0.0
 40
30.0
  1
Full Frame
  0
ENDBLK
  5
87B
  8
0
  0
BLOCK
  8
0
  2
*U3
 70
     1
 10
0.0
 20
0.0
 30
0.0
  3
*U3
  1

  0
TEXT
  5
87D
  8
0
 10
1259.936335629211
 20
-315.10310633351042
 30
0.0
 40
30.0
  1
Ideal Frame
  0
ENDBLK
  5
87F
  8
0
  0
BLOCK
  8
0
  2
*U4
 70
     1
 10
0.0
 20
0.0
 30
0.0
  3
*U4
  1

  0
TEXT
  5
881
  8
0
 10
2260.4888595037
 20
-315.61470251359219
 30
0.0
 40
30.0
  1
Half Frame
  0
ENDBLK
  5
883
  8
0
  0
BLOCK
  8
0
  2
*U5
 70
     1
 10
0.0
 20
0.0
 30
0.0
  3
*U5
  1

  0
TEXT
  5
885
  8
0
 10
3263.3333342649548
 20
-315.61470251359219
 30
0.0
 40
30.0
  1
WSP Frame
  0
ENDBLK
  5
887
  8
0
  0
BLOCK
  8
0
  2
*U6
 70
     1
 10
0.0
 20
0.0
 30
0.0
  3
*U6
  1

  0
TEXT
  5
889
  8
0
 10
4260.734425670139
 20
-315.10310633351042
 30
0.0
 40
30.0
  1
Manley Frame
  0
ENDBLK
  5
88B
  8
0
  0
BLOCK
  8
0
  2
*U7
 70
     1
 10
0.0
 20
0.0
 30
0.0
  3
*U7
  1

  0
TEXT
  5
88D
  8
0
 10
260.77535336454582
 20
-1015.10310633351
 30
0.0
 40
30.0
  1
Base
  0
ENDBLK
  5
88F
  8
0
  0
BLOCK
  8
0
  2
*U8
 70
     1
 10
0.0
 20
0.0
 30
0.0
  3
*U8
  1

  0
TEXT
  5
891
  8
0
 10
1262.86266577928
 20
-1015.614702513592
 30
0.0
 40
30.0
  1
Top Cover
  0
ENDBLK
  5
893
  8
0
  0
BLOCK
  8
0
  2
*U9
 70
     1
 10
0.0
 20
0.0
 30
0.0
  3
*U9
  1

  0
TEXT
  5
895
  8
0
 10
2098.9164932076101
 20
-1015.614702513592
 30
0.0
 40
30.0
  1
Inner Cover/Excluder/Escape
  0
ENDBLK
  5
897
  8
0
  0
ENDSEC
  0
SECTION
  2
ENTITIES
  0
LINE
  5
244
  8
0
 10
0.0
 20
0.0
 30
0.0
 11
0.0000000000000148
 21
241.0
 31
0.0
  0
LINE
  5
245
  8
0
 10
0.0
 20
0.0
 30
0.0
 11
351.60631393648202
 21
-203.0000000000002
 31
0.0
  0
LINE
  5
246
  8
0
 10
351.60631393648202
 20
-203.0000000000002
 30
0.0
 11
791.54721905897691
 21
50.999999999999801
 31
0.0
  0
LINE
  5
247
  8
0
 10
791.54721905897691
 20
50.999999999999801
 30
0.0
 11
791.54721905897691
 21
291.99999999999977
 31
0.0
  0
LINE
  5
248
  8
0
 10
791.54721905897691
 20
291.99999999999977
 30
0.0
 11
351.60631393648208
 21
37.999999999999723
 31
0.0
  0
LINE
  5
249
  8
0
 10
351.60631393648208
 20
37.999999999999723
 30
0.0
 11
351.60631393648202
 21
-203.00000000000031
 31
0.0
  0
LINE
  5
24A
  8
0
 10
351.60631393648208
 20
37.999999999999723
 30
0.0
 11
0.0000000000000148
 21
241.0
 31
0.0
  0
LINE
  5
24B
  8
0
 10
0.0000000000000148
 20
241.0
 30
0.0
 11
439.94090512249488
 21
495.0
 31
0.0
  0
LINE
  5
24C
  8
0
 10
439.94090512249488
 20
495.0
 30
0.0
 11
791.54721905897691
 21
291.99999999999977
 31
0.0
  0
LINE
  5
24D
  8
0
 10
368.0607966083864
 20
47.499999999999709
 30
0.0
 11
351.60631393648208
 21
56.999999999999687
 31
0.0
  0
LINE
  5
24F
  8
0
 10
32.908965343808561
 20
241.0
 30
0.0
 11
448.16814645844681
 21
480.74999999999989
 31
0.0
  0
LINE
  5
250
  8
0
 10
423.48642245059028
 20
485.5
 30
0.0
 11
439.94090512249483
 21
476.0
 31
0.0
  0
LINE
  5
251
  8
0
 10
766.86549505112043
 20
296.74999999999972
 30
0.0
 11
351.60631393648208
 21
56.999999999999687
 31
0.0
  0
LINE
  5
2A7
  8
0
 10
351.60631393648208
 20
37.999999999999723
 30
0.0
 11
351.60631393648208
 21
18.999999999999709
 31
0.0
  0
LINE
  5
2A8
  8
0
 10
351.60631393648208
 20
18.999999999999709
 30
0.0
 11
368.0607966083864
 21
28.499999999999719
 31
0.0
  0
LINE
  5
2A9
  8
0
 10
368.0607966083864
 20
47.49999999999968
 30
0.0
 11
368.0607966083864
 21
28.499999999999691
 31
0.0
  0
LINE
  5
2AB
  8
0
 10
351.60631393648208
 20
18.999999999999709
 30
0.0
 11
335.15183126457782
 21
28.499999999999719
 31
0.0
  0
LINE
  5
2AC
  8
0
 10
335.15183126457782
 20
9.4999999999997158
 30
0.0
 11
335.15183126457782
 21
28.499999999999719
 31
0.0
  0
LINE
  5
2AD
  8
0
 10
351.60631393648208
 20
-0.0000000000002842
 30
0.0
 11
368.0607966083864
 21
9.4999999999997158
 31
0.0
  0
LINE
  5
2AE
  8
0
 10
351.60631393648208
 20
-0.0000000000002878
 30
0.0
 11
335.15183126457782
 21
9.4999999999997122
 31
0.0
  0
LINE
  5
2AF
  8
0
 10
351.60631393648208
 20
-19.000000000000281
 30
0.0
 11
368.0607966083864
 21
-9.5000000000002842
 31
0.0
  0
LINE
  5
2B0
  8
0
 10
368.0607966083864
 20
9.4999999999996874
 30
0.0
 11
368.0607966083864
 21
-9.5000000000003126
 31
0.0
  0
LINE
  5
2B1
  8
0
 10
351.60631393648208
 20
-19.000000000000281
 30
0.0
 11
335.15183126457782
 21
-9.5000000000002842
 31
0.0
  0
LINE
  5
2B2
  8
0
 10
335.15183126457782
 20
-28.500000000000281
 30
0.0
 11
335.15183126457782
 21
-9.5000000000002842
 31
0.0
  0
LINE
  5
2B3
  8
0
 10
351.60631393648208
 20
-38.000000000000291
 30
0.0
 11
368.0607966083864
 21
-28.500000000000281
 31
0.0
  0
LINE
  5
2B4
  8
0
 10
351.60631393648208
 20
-38.000000000000291
 30
0.0
 11
335.15183126457782
 21
-28.500000000000291
 31
0.0
  0
LINE
  5
2B5
  8
0
 10
351.60631393648208
 20
-57.000000000000277
 30
0.0
 11
368.0607966083864
 21
-47.500000000000277
 31
0.0
  0
LINE
  5
2B6
  8
0
 10
368.0607966083864
 20
-28.500000000000309
 30
0.0
 11
368.0607966083864
 21
-47.500000000000313
 31
0.0
  0
LINE
  5
2B7
  8
0
 10
351.60631393648208
 20
-57.000000000000277
 30
0.0
 11
335.15183126457782
 21
-47.500000000000277
 31
0.0
  0
LINE
  5
2B8
  8
0
 10
335.15183126457782
 20
-66.500000000000284
 30
0.0
 11
335.15183126457782
 21
-47.500000000000277
 31
0.0
  0
LINE
  5
2B9
  8
0
 10
351.60631393648208
 20
-76.000000000000284
 30
0.0
 11
368.0607966083864
 21
-66.500000000000284
 31
0.0
  0
LINE
  5
2BA
  8
0
 10
351.60631393648208
 20
-76.000000000000284
 30
0.0
 11
335.15183126457782
 21
-66.500000000000284
 31
0.0
  0
LINE
  5
2BB
  8
0
 10
351.60631393648208
 20
-95.000000000000284
 30
0.0
 11
368.0607966083864
 21
-85.500000000000284
 31
0.0
  0
LINE
  5
2BC
  8
0
 10
368.0607966083864
 20
-66.500000000000313
 30
0.0
 11
368.0607966083864
 21
-85.500000000000298
 31
0.0
  0
LINE
  5
2BD
  8
0
 10
351.60631393648208
 20
-95.000000000000284
 30
0.0
 11
335.15183126457782
 21
-85.500000000000284
 31
0.0
  0
LINE
  5
2BE
  8
0
 10
335.15183126457782
 20
-104.5000000000003
 30
0.0
 11
335.15183126457782
 21
-85.500000000000284
 31
0.0
  0
LINE
  5
2BF
  8
0
 10
351.60631393648208
 20
-114.0000000000003
 30
0.0
 11
368.0607966083864
 21
-104.5000000000003
 31
0.0
  0
LINE
  5
2C0
  8
0
 10
351.60631393648208
 20
-114.0000000000003
 30
0.0
 11
335.15183126457782
 21
-104.5000000000003
 31
0.0
  0
LINE
  5
2C1
  8
0
 10
351.60631393648208
 20
-133.00000000000031
 30
0.0
 11
368.0607966083864
 21
-123.5000000000002
 31
0.0
  0
LINE
  5
2C2
  8
0
 10
368.0607966083864
 20
-104.5000000000003
 30
0.0
 11
368.0607966083864
 21
-123.5000000000003
 31
0.0
  0
LINE
  5
2C3
  8
0
 10
351.60631393648208
 20
-133.00000000000031
 30
0.0
 11
335.15183126457782
 21
-123.5000000000002
 31
0.0
  0
LINE
  5
2C4
  8
0
 10
335.15183126457782
 20
-142.50000000000031
 30
0.0
 11
335.15183126457782
 21
-123.5000000000002
 31
0.0
  0
LINE
  5
2C5
  8
0
 10
351.60631393648208
 20
-152.00000000000031
 30
0.0
 11
368.0607966083864
 21
-142.50000000000031
 31
0.0
  0
LINE
  5
2C6
  8
0
 10
351.60631393648208
 20
-152.00000000000031
 30
0.0
 11
335.15183126457782
 21
-142.50000000000031
 31
0.0
  0
LINE
  5
2C7
  8
0
 10
351.60631393648208
 20
-171.00000000000031
 30
0.0
 11
368.0607966083864
 21
-161.50000000000031
 31
0.0
  0
LINE
  5
2C8
  8
0
 10
368.0607966083864
 20
-142.50000000000031
 30
0.0
 11
368.0607966083864
 21
-161.50000000000031
 31
0.0
  0
LINE
  5
2C9
  8
0
 10
351.60631393648208
 20
-171.00000000000031
 30
0.0
 11
335.15183126457782
 21
-161.50000000000031
 31
0.0
  0
LINE
  5
2CA
  8
0
 10
335.15183126457782
 20
-180.50000000000031
 30
0.0
 11
335.15183126457782
 21
-161.50000000000031
 31
0.0
  0
LINE
  5
2CB
  8
0
 10
351.60631393648208
 20
-190.00000000000031
 30
0.0
 11
368.0607966083864
 21
-180.50000000000031
 31
0.0
  0
LINE
  5
2CC
  8
0
 10
351.60631393648208
 20
-190.00000000000031
 30
0.0
 11
335.15183126457782
 21
-180.50000000000031
 31
0.0
  0
LINE
  5
2CD
  8
0
 10
368.0607966083864
 20
-180.50000000000031
 30
0.0
 11
368.0607966083864
 21
-193.5000000000002
 31
0.0
  0
LINE
  5
2CE
  8
0
 10
775.09273638707259
 20
263.49999999999977
 30
0.0
 11
791.54721905897691
 21
272.99999999999977
 31
0.0
  0
LINE
  5
2CF
  8
0
 10
775.09273638707259
 20
244.4999999999998
 30
0.0
 11
791.54721905897691
 21
253.9999999999998
 31
0.0
  0
LINE
  5
2D0
  8
0
 10
775.09273638707259
 20
225.4999999999998
 30
0.0
 11
791.54721905897691
 21
234.9999999999998
 31
0.0
  0
LINE
  5
2D1
  8
0
 10
775.09273638707259
 20
206.4999999999998
 30
0.0
 11
791.54721905897691
 21
215.9999999999998
 31
0.0
  0
LINE
  5
2D2
  8
0
 10
775.09273638707259
 20
187.4999999999998
 30
0.0
 11
791.54721905897691
 21
196.99999999999969
 31
0.0
  0
LINE
  5
2D3
  8
0
 10
775.09273638707259
 20
168.4999999999998
 30
0.0
 11
791.54721905897691
 21
177.9999999999998
 31
0.0
  0
LINE
  5
2D4
  8
0
 10
775.09273638707259
 20
149.49999999999969
 30
0.0
 11
791.54721905897691
 21
158.9999999999998
 31
0.0
  0
LINE
  5
2D5
  8
0
 10
775.09273638707259
 20
130.49999999999969
 30
0.0
 11
791.54721905897691
 21
139.99999999999969
 31
0.0
  0
LINE
  5
2D6
  8
0
 10
775.09273638707259
 20
111.4999999999997
 30
0.0
 11
791.54721905897691
 21
120.9999999999997
 31
0.0
  0
LINE
  5
2D7
  8
0
 10
775.09273638707259
 20
92.499999999999758
 30
0.0
 11
791.54721905897691
 21
101.9999999999998
 31
0.0
  0
LINE
  5
2D8
  8
0
 10
775.09273638707259
 20
73.499999999999773
 30
0.0
 11
791.54721905897691
 21
82.999999999999773
 31
0.0
  0
LINE
  5
2D9
  8
0
 10
775.09273638707259
 20
54.499999999999773
 30
0.0
 11
791.54721905897691
 21
63.999999999999773
 31
0.0
  0
LINE
  5
2DA
  8
0
 10
775.09273638707259
 20
263.49999999999977
 30
0.0
 11
775.09273638707259
 21
282.49999999999977
 31
0.0
  0
LINE
  5
2DB
  8
0
 10
775.09273638707259
 20
225.4999999999998
 30
0.0
 11
775.09273638707259
 21
244.4999999999998
 31
0.0
  0
LINE
  5
2DC
  8
0
 10
775.09273638707259
 20
187.4999999999998
 30
0.0
 11
775.09273638707259
 21
206.4999999999998
 31
0.0
  0
LINE
  5
2DD
  8
0
 10
775.09273638707259
 20
149.49999999999969
 30
0.0
 11
775.09273638707259
 21
168.4999999999998
 31
0.0
  0
LINE
  5
2DE
  8
0
 10
775.09273638707259
 20
111.4999999999997
 30
0.0
 11
775.09273638707259
 21
130.49999999999969
 31
0.0
  0
LINE
  5
2DF
  8
0
 10
775.09273638707259
 20
73.499999999999773
 30
0.0
 11
775.09273638707259
 21
92.499999999999758
 31
0.0
  0
LINE
  5
2E0
  8
0
 10
775.09273638707259
 20
41.499999999999829
 30
0.0
 11
775.09273638707259
 21
54.499999999999773
 31
0.0
  0
LINE
  5
2E4
  8
0
 10
16.454482671904309
 20
212.5
 30
0.0
 11
0.0
 21
222.0
 31
0.0
  0
LINE
  5
2E5
  8
0
 10
16.454482671904309
 20
193.5
 30
0.0
 11
0.0
 21
203.0
 31
0.0
  0
LINE
  5
2E6
  8
0
 10
16.454482671904309
 20
174.5
 30
0.0
 11
0.0
 21
184.0
 31
0.0
  0
LINE
  5
2E7
  8
0
 10
16.454482671904309
 20
155.5
 30
0.0
 11
0.0
 21
165.0
 31
0.0
  0
LINE
  5
2E8
  8
0
 10
16.454482671904309
 20
136.5
 30
0.0
 11
0.0
 21
146.0
 31
0.0
  0
LINE
  5
2E9
  8
0
 10
16.454482671904309
 20
117.5
 30
0.0
 11
0.0
 21
127.0
 31
0.0
  0
LINE
  5
2EA
  8
0
 10
16.454482671904309
 20
98.500000000000014
 30
0.0
 11
0.0
 21
108.0
 31
0.0
  0
LINE
  5
2EB
  8
0
 10
16.454482671904309
 20
79.5
 30
0.0
 11
0.0
 21
89.0
 31
0.0
  0
LINE
  5
2EC
  8
0
 10
16.454482671904309
 20
60.5
 30
0.0
 11
0.0
 21
70.0
 31
0.0
  0
LINE
  5
2ED
  8
0
 10
16.454482671904309
 20
41.5
 30
0.0
 11
0.0
 21
51.0
 31
0.0
  0
LINE
  5
2EE
  8
0
 10
16.454482671904309
 20
22.5
 30
0.0
 11
0.0
 21
32.0
 31
0.0
  0
LINE
  5
2EF
  8
0
 10
16.454482671904309
 20
3.5
 30
0.0
 11
0.0
 21
13.0
 31
0.0
  0
LINE
  5
2F0
  8
0
 10
16.454482671904309
 20
212.5
 30
0.0
 11
16.454482671904309
 21
193.5
 31
0.0
  0
LINE
  5
2F1
  8
0
 10
16.454482671904309
 20
174.5
 30
0.0
 11
16.454482671904309
 21
155.5
 31
0.0
  0
LINE
  5
2F2
  8
0
 10
16.454482671904309
 20
136.5
 30
0.0
 11
16.454482671904309
 21
117.5
 31
0.0
  0
LINE
  5
2F3
  8
0
 10
16.454482671904309
 20
98.500000000000014
 30
0.0
 11
16.454482671904309
 21
79.5
 31
0.0
  0
LINE
  5
2F4
  8
0
 10
16.454482671904309
 20
60.5
 30
0.0
 11
16.454482671904309
 21
41.5
 31
0.0
  0
LINE
  5
2F5
  8
0
 10
16.454482671904309
 20
22.5
 30
0.0
 11
16.454482671904309
 21
3.5
 31
0.0
  0
LINE
  5
2FA
  8
0
 10
439.94090512249488
 20
235.0
 30
0.0
 11
439.94090512249483
 21
476.0
 31
0.0
  0
LINE
  5
2FB
  8
0
 10
233.393846319906
 20
115.7499999999999
 30
0.0
 11
439.94090512249488
 21
235.0
 31
0.0
  0
LINE
  5
2FC
  8
0
 10
439.94090512249488
 20
235.0
 30
0.0
 11
549.9261314031188
 21
171.4999999999998
 31
0.0
  0
LINE
  5
2FD
  8
0
 10
32.908965343808561
 20
241.0
 30
0.0
 11
24.681724007856388
 21
236.25
 31
0.0
  0
LINE
  5
2FE
  8
0
 10
24.681724007856388
 20
236.25
 30
0.0
 11
343.37907260052992
 21
52.249999999999737
 31
0.0
  0
LINE
  5
302
  8
0
 10
351.60631393648208
 20
56.999999999999687
 30
0.0
 11
343.37907260052992
 21
52.249999999999687
 31
0.0
  0
LINE
  5
303
  8
0
 10
32.908965343808532
 20
240.99999999999989
 30
0.0
 11
16.45448267190427
 21
250.49999999999989
 31
0.0
  0
LINE
  5
304
  8
0
 10
32.908965343808497
 20
241.0
 30
0.0
 11
32.908965343808497
 21
231.5
 31
0.0
  0
LINE
  5
305
  8
0
 10
448.16814645844681
 20
480.74999999999989
 30
0.0
 11
448.16814645844681
 21
464.74999999999989
 31
0.0
  0
LINE
  5
306
  8
0
 10
448.16814645844681
 20
464.74999999999989
 30
0.0
 11
439.94090512249471
 21
459.99999999999989
 31
0.0
  0
LINE
  5
307
  8
0
 10
758.63825371516816
 20
291.99999999999977
 30
0.0
 11
775.09273638707259
 21
282.49999999999977
 31
0.0
  0
LINE
  5
308
  8
0
 10
448.16814645844681
 20
480.74999999999989
 30
0.0
 11
766.86549505112043
 21
296.74999999999972
 31
0.0
  0
LINE
  5
309
  8
0
 10
448.16814645844681
 20
464.74999999999989
 30
0.0
 11
753.00908859056938
 21
288.74999999999977
 31
0.0
  0
LINE
  5
30A
  8
0
 10
439.94090512249471
 20
459.99999999999989
 30
0.0
 11
744.78184725461722
 21
283.99999999999972
 31
0.0
  0
INSERT
  5
30D
  8
0
  2
*U2
 10
0.0
 20
0.0
 30
0.0
  0
LINE
  5
360
  8
0
 10
1000.0
 20
95.0
 30
0.0
 11
1000.0
 21
241.0
 31
0.0
  0
LINE
  5
361
  8
0
 10
1000.0
 20
94.999999999999886
 30
0.0
 11
1351.6063139364819
 21
-108.0000000000003
 31
0.0
  0
LINE
  5
362
  8
0
 10
1351.6063139364819
 20
-108.0000000000003
 30
0.0
 11
1791.5472190589769
 21
145.99999999999969
 31
0.0
  0
LINE
  5
363
  8
0
 10
1791.5472190589769
 20
145.9999999999998
 30
0.0
 11
1791.5472190589769
 21
291.99999999999977
 31
0.0
  0
LINE
  5
364
  8
0
 10
1791.5472190589769
 20
291.99999999999977
 30
0.0
 11
1351.6063139364819
 21
37.999999999999723
 31
0.0
  0
LINE
  5
365
  8
0
 10
1766.86549505112
 20
296.74999999999972
 30
0.0
 11
1351.6063139364819
 21
56.999999999999687
 31
0.0
  0
LINE
  5
366
  8
0
 10
1351.6063139364819
 20
37.999999999999723
 30
0.0
 11
1351.6063139364819
 21
-108.0000000000003
 31
0.0
  0
LINE
  5
367
  8
0
 10
1351.6063139364819
 20
37.999999999999723
 30
0.0
 11
1000.0
 21
241.0
 31
0.0
  0
LINE
  5
368
  8
0
 10
1368.060796608386
 20
47.499999999999709
 30
0.0
 11
1351.6063139364819
 21
56.999999999999687
 31
0.0
  0
LINE
  5
369
  8
0
 10
1032.9089653438091
 20
240.99999999999989
 30
0.0
 11
1016.454482671904
 21
250.49999999999989
 31
0.0
  0
LINE
  5
36A
  8
0
 10
1000.0
 20
241.0
 30
0.0
 11
1439.940905122495
 21
495.0
 31
0.0
  0
LINE
  5
36B
  8
0
 10
1032.9089653438091
 20
241.0
 30
0.0
 11
1448.1681464584469
 21
480.74999999999989
 31
0.0
  0
LINE
  5
36C
  8
0
 10
1439.940905122495
 20
495.0
 30
0.0
 11
1791.5472190589769
 21
291.99999999999977
 31
0.0
  0
LINE
  5
36D
  8
0
 10
1423.48642245059
 20
485.5
 30
0.0
 11
1439.940905122495
 21
476.0
 31
0.0
  0
LINE
  5
36E
  8
0
 10
1758.638253715168
 20
291.99999999999977
 30
0.0
 11
1775.0927363870719
 21
282.49999999999977
 31
0.0
  0
LINE
  5
36F
  8
0
 10
1351.6063139364819
 20
37.999999999999723
 30
0.0
 11
1351.6063139364819
 21
18.999999999999709
 31
0.0
  0
LINE
  5
370
  8
0
 10
1351.6063139364819
 20
18.999999999999709
 30
0.0
 11
1368.060796608386
 21
28.499999999999719
 31
0.0
  0
LINE
  5
371
  8
0
 10
1368.060796608386
 20
47.49999999999968
 30
0.0
 11
1368.060796608386
 21
28.499999999999691
 31
0.0
  0
LINE
  5
372
  8
0
 10
1351.6063139364819
 20
18.999999999999709
 30
0.0
 11
1335.151831264578
 21
28.499999999999719
 31
0.0
  0
LINE
  5
373
  8
0
 10
1335.151831264578
 20
9.4999999999997158
 30
0.0
 11
1335.151831264578
 21
28.499999999999719
 31
0.0
  0
LINE
  5
374
  8
0
 10
1351.6063139364819
 20
-0.0000000000002842
 30
0.0
 11
1368.060796608386
 21
9.4999999999997158
 31
0.0
  0
LINE
  5
375
  8
0
 10
1351.6063139364819
 20
-0.0000000000002878
 30
0.0
 11
1335.151831264578
 21
9.4999999999997122
 31
0.0
  0
LINE
  5
376
  8
0
 10
1351.6063139364819
 20
-19.000000000000281
 30
0.0
 11
1368.060796608386
 21
-9.5000000000002842
 31
0.0
  0
LINE
  5
377
  8
0
 10
1368.060796608386
 20
9.4999999999996874
 30
0.0
 11
1368.060796608386
 21
-9.5000000000003126
 31
0.0
  0
LINE
  5
378
  8
0
 10
1351.6063139364819
 20
-19.000000000000281
 30
0.0
 11
1335.151831264578
 21
-9.5000000000002842
 31
0.0
  0
LINE
  5
379
  8
0
 10
1335.151831264578
 20
-28.500000000000281
 30
0.0
 11
1335.151831264578
 21
-9.5000000000002842
 31
0.0
  0
LINE
  5
37A
  8
0
 10
1351.6063139364819
 20
-38.000000000000291
 30
0.0
 11
1368.060796608386
 21
-28.500000000000281
 31
0.0
  0
LINE
  5
37B
  8
0
 10
1351.6063139364819
 20
-38.000000000000291
 30
0.0
 11
1335.151831264578
 21
-28.500000000000291
 31
0.0
  0
LINE
  5
37C
  8
0
 10
1351.6063139364819
 20
-57.000000000000277
 30
0.0
 11
1368.060796608386
 21
-47.500000000000277
 31
0.0
  0
LINE
  5
37D
  8
0
 10
1368.060796608386
 20
-28.500000000000309
 30
0.0
 11
1368.060796608386
 21
-47.500000000000313
 31
0.0
  0
LINE
  5
37E
  8
0
 10
1351.6063139364819
 20
-57.000000000000277
 30
0.0
 11
1335.151831264578
 21
-47.500000000000277
 31
0.0
  0
LINE
  5
37F
  8
0
 10
1335.151831264578
 20
-66.500000000000284
 30
0.0
 11
1335.151831264578
 21
-47.500000000000277
 31
0.0
  0
LINE
  5
380
  8
0
 10
1351.6063139364819
 20
-76.000000000000284
 30
0.0
 11
1368.060796608386
 21
-66.500000000000284
 31
0.0
  0
LINE
  5
381
  8
0
 10
1351.6063139364819
 20
-76.000000000000284
 30
0.0
 11
1335.151831264578
 21
-66.500000000000284
 31
0.0
  0
LINE
  5
382
  8
0
 10
1351.6063139364819
 20
-95.000000000000284
 30
0.0
 11
1368.060796608386
 21
-85.500000000000284
 31
0.0
  0
LINE
  5
383
  8
0
 10
1368.060796608386
 20
-66.500000000000313
 30
0.0
 11
1368.060796608386
 21
-85.500000000000298
 31
0.0
  0
LINE
  5
384
  8
0
 10
1351.6063139364819
 20
-95.000000000000284
 30
0.0
 11
1335.151831264578
 21
-85.500000000000284
 31
0.0
  0
LINE
  5
385
  8
0
 10
1335.151831264578
 20
-98.500000000000284
 30
0.0
 11
1335.151831264578
 21
-85.500000000000284
 31
0.0
  0
LINE
  5
395
  8
0
 10
1775.0927363870719
 20
263.49999999999977
 30
0.0
 11
1791.5472190589769
 21
272.99999999999977
 31
0.0
  0
LINE
  5
396
  8
0
 10
1775.0927363870719
 20
244.4999999999998
 30
0.0
 11
1791.5472190589769
 21
253.9999999999998
 31
0.0
  0
LINE
  5
397
  8
0
 10
1775.0927363870719
 20
225.4999999999998
 30
0.0
 11
1791.5472190589769
 21
234.9999999999998
 31
0.0
  0
LINE
  5
398
  8
0
 10
1775.0927363870719
 20
206.4999999999998
 30
0.0
 11
1791.5472190589769
 21
215.9999999999998
 31
0.0
  0
LINE
  5
399
  8
0
 10
1775.0927363870719
 20
187.4999999999998
 30
0.0
 11
1791.5472190589769
 21
196.99999999999969
 31
0.0
  0
LINE
  5
39A
  8
0
 10
1775.0927363870719
 20
168.4999999999998
 30
0.0
 11
1791.5472190589769
 21
177.9999999999998
 31
0.0
  0
LINE
  5
39B
  8
0
 10
1775.0927363870719
 20
149.49999999999969
 30
0.0
 11
1791.5472190589769
 21
158.9999999999998
 31
0.0
  0
LINE
  5
3A1
  8
0
 10
1775.0927363870719
 20
263.49999999999977
 30
0.0
 11
1775.0927363870719
 21
282.49999999999977
 31
0.0
  0
LINE
  5
3A2
  8
0
 10
1775.0927363870719
 20
225.4999999999998
 30
0.0
 11
1775.0927363870719
 21
244.4999999999998
 31
0.0
  0
LINE
  5
3A3
  8
0
 10
1775.0927363870719
 20
187.4999999999998
 30
0.0
 11
1775.0927363870719
 21
206.4999999999998
 31
0.0
  0
LINE
  5
3A4
  8
0
 10
1775.0927363870719
 20
149.49999999999969
 30
0.0
 11
1775.0927363870719
 21
168.4999999999998
 31
0.0
  0
LINE
  5
3A8
  8
0
 10
1016.454482671904
 20
212.5
 30
0.0
 11
1000.0
 21
222.0
 31
0.0
  0
LINE
  5
3A9
  8
0
 10
1016.454482671904
 20
193.5
 30
0.0
 11
1000.0
 21
203.0
 31
0.0
  0
LINE
  5
3AA
  8
0
 10
1016.454482671904
 20
174.5
 30
0.0
 11
1000.0
 21
184.0
 31
0.0
  0
LINE
  5
3AB
  8
0
 10
1016.454482671904
 20
155.5
 30
0.0
 11
1000.0
 21
165.0
 31
0.0
  0
LINE
  5
3AC
  8
0
 10
1016.454482671904
 20
136.5
 30
0.0
 11
1000.0
 21
146.0
 31
0.0
  0
LINE
  5
3AD
  8
0
 10
1016.454482671904
 20
117.5
 30
0.0
 11
1000.0
 21
127.0
 31
0.0
  0
LINE
  5
3AE
  8
0
 10
1016.454482671904
 20
98.500000000000014
 30
0.0
 11
1000.0
 21
108.0
 31
0.0
  0
LINE
  5
3B4
  8
0
 10
1016.454482671904
 20
212.5
 30
0.0
 11
1016.454482671904
 21
193.5
 31
0.0
  0
LINE
  5
3B5
  8
0
 10
1016.454482671904
 20
174.5
 30
0.0
 11
1016.454482671904
 21
155.5
 31
0.0
  0
LINE
  5
3B6
  8
0
 10
1016.454482671904
 20
136.5
 30
0.0
 11
1016.454482671904
 21
117.5
 31
0.0
  0
LINE
  5
3B7
  8
0
 10
1016.454482671904
 20
98.500000000000014
 30
0.0
 11
1016.454482671904
 21
85.499999999999943
 31
0.0
  0
LINE
  5
3BA
  8
0
 10
1151.121432960384
 20
163.24999999999989
 30
0.0
 11
1439.940905122495
 21
330.0
 31
0.0
  0
LINE
  5
3BB
  8
0
 10
1439.940905122495
 20
330.0
 30
0.0
 11
1632.19854476264
 21
218.9999999999998
 31
0.0
  0
LINE
  5
3BC
  8
0
 10
1439.940905122495
 20
330.0
 30
0.0
 11
1439.940905122495
 21
476.0
 31
0.0
  0
LINE
  5
3BD
  8
0
 10
1032.9089653438091
 20
241.0
 30
0.0
 11
1024.681724007856
 21
236.25
 31
0.0
  0
LINE
  5
3BE
  8
0
 10
1024.681724007856
 20
236.25
 30
0.0
 11
1343.37907260053
 21
52.249999999999737
 31
0.0
  0
LINE
  5
3BF
  8
0
 10
1351.6063139364819
 20
56.999999999999687
 30
0.0
 11
1343.37907260053
 21
52.249999999999687
 31
0.0
  0
LINE
  5
3C0
  8
0
 10
1032.9089653438079
 20
241.0
 30
0.0
 11
1032.9089653438079
 21
231.5
 31
0.0
  0
LINE
  5
3C1
  8
0
 10
1448.1681464584469
 20
480.74999999999989
 30
0.0
 11
1448.1681464584469
 21
464.74999999999989
 31
0.0
  0
LINE
  5
3C2
  8
0
 10
1448.1681464584469
 20
464.74999999999989
 30
0.0
 11
1439.940905122495
 21
459.99999999999989
 31
0.0
  0
LINE
  5
3C3
  8
0
 10
1448.1681464584469
 20
480.74999999999989
 30
0.0
 11
1766.86549505112
 21
296.74999999999972
 31
0.0
  0
LINE
  5
3C4
  8
0
 10
1448.1681464584469
 20
464.74999999999989
 30
0.0
 11
1753.009088590569
 21
288.74999999999977
 31
0.0
  0
LINE
  5
3C5
  8
0
 10
1439.940905122495
 20
459.99999999999989
 30
0.0
 11
1744.7818472546171
 21
283.99999999999972
 31
0.0
  0
INSERT
  5
3C6
  8
0
  2
*U3
 10
0.0
 20
0.0
 30
0.0
  0
LINE
  5
3C7
  8
0
 10
2000.0
 20
116.9999999999999
 30
0.0
 11
2000.0
 21
241.0
 31
0.0
  0
LINE
  5
3C8
  8
0
 10
2000.0
 20
116.9999999999999
 30
0.0
 11
2351.6063139364819
 21
-86.000000000000284
 31
0.0
  0
LINE
  5
3C9
  8
0
 10
2351.6063139364819
 20
-86.000000000000284
 30
0.0
 11
2791.5472190589771
 21
167.99999999999969
 31
0.0
  0
LINE
  5
3CA
  8
0
 10
2791.5472190589771
 20
167.99999999999969
 30
0.0
 11
2791.5472190589771
 21
291.99999999999977
 31
0.0
  0
LINE
  5
3CB
  8
0
 10
2791.5472190589771
 20
291.99999999999977
 30
0.0
 11
2351.6063139364819
 21
37.999999999999723
 31
0.0
  0
LINE
  5
3CC
  8
0
 10
2766.8654950511209
 20
296.74999999999972
 30
0.0
 11
2351.6063139364819
 21
56.999999999999687
 31
0.0
  0
LINE
  5
3CD
  8
0
 10
2351.6063139364819
 20
37.999999999999723
 30
0.0
 11
2351.6063139364819
 21
-86.000000000000284
 31
0.0
  0
LINE
  5
3CE
  8
0
 10
2351.6063139364819
 20
37.999999999999723
 30
0.0
 11
2000.0
 21
241.0
 31
0.0
  0
LINE
  5
3CF
  8
0
 10
2368.0607966083862
 20
47.499999999999709
 30
0.0
 11
2351.6063139364819
 21
56.999999999999687
 31
0.0
  0
LINE
  5
3D0
  8
0
 10
2032.9089653438091
 20
240.99999999999989
 30
0.0
 11
2016.454482671905
 21
250.49999999999989
 31
0.0
  0
LINE
  5
3D1
  8
0
 10
2000.0
 20
241.0
 30
0.0
 11
2439.9409051224952
 21
495.0
 31
0.0
  0
LINE
  5
3D2
  8
0
 10
2032.9089653438091
 20
241.0
 30
0.0
 11
2448.1681464584472
 21
480.74999999999989
 31
0.0
  0
LINE
  5
3D3
  8
0
 10
2439.9409051224952
 20
495.0
 30
0.0
 11
2791.5472190589771
 21
291.99999999999977
 31
0.0
  0
LINE
  5
3D4
  8
0
 10
2423.48642245059
 20
485.5
 30
0.0
 11
2439.9409051224952
 21
476.0
 31
0.0
  0
LINE
  5
3D5
  8
0
 10
2758.638253715169
 20
291.99999999999977
 30
0.0
 11
2775.0927363870719
 21
282.49999999999977
 31
0.0
  0
LINE
  5
3D6
  8
0
 10
2351.6063139364819
 20
37.999999999999723
 30
0.0
 11
2351.6063139364819
 21
18.999999999999709
 31
0.0
  0
LINE
  5
3D7
  8
0
 10
2351.6063139364819
 20
18.999999999999709
 30
0.0
 11
2368.0607966083862
 21
28.499999999999719
 31
0.0
  0
LINE
  5
3D8
  8
0
 10
2368.0607966083862
 20
47.49999999999968
 30
0.0
 11
2368.0607966083862
 21
28.499999999999691
 31
0.0
  0
LINE
  5
3D9
  8
0
 10
2351.6063139364819
 20
18.999999999999709
 30
0.0
 11
2335.151831264578
 21
28.499999999999719
 31
0.0
  0
LINE
  5
3DA
  8
0
 10
2335.151831264578
 20
9.4999999999997158
 30
0.0
 11
2335.151831264578
 21
28.499999999999719
 31
0.0
  0
LINE
  5
3DB
  8
0
 10
2351.6063139364819
 20
-0.0000000000002842
 30
0.0
 11
2368.0607966083862
 21
9.4999999999997158
 31
0.0
  0
LINE
  5
3DC
  8
0
 10
2351.6063139364819
 20
-0.0000000000002878
 30
0.0
 11
2335.151831264578
 21
9.4999999999997122
 31
0.0
  0
LINE
  5
3DD
  8
0
 10
2351.6063139364819
 20
-19.000000000000281
 30
0.0
 11
2368.0607966083862
 21
-9.5000000000002842
 31
0.0
  0
LINE
  5
3DE
  8
0
 10
2368.0607966083862
 20
9.4999999999996874
 30
0.0
 11
2368.0607966083862
 21
-9.5000000000003126
 31
0.0
  0
LINE
  5
3DF
  8
0
 10
2351.6063139364819
 20
-19.000000000000281
 30
0.0
 11
2335.151831264578
 21
-9.5000000000002842
 31
0.0
  0
LINE
  5
3E0
  8
0
 10
2335.151831264578
 20
-28.500000000000281
 30
0.0
 11
2335.151831264578
 21
-9.5000000000002842
 31
0.0
  0
LINE
  5
3E1
  8
0
 10
2351.6063139364819
 20
-38.000000000000291
 30
0.0
 11
2368.0607966083862
 21
-28.500000000000281
 31
0.0
  0
LINE
  5
3E2
  8
0
 10
2351.6063139364819
 20
-38.000000000000291
 30
0.0
 11
2335.151831264578
 21
-28.500000000000291
 31
0.0
  0
LINE
  5
3E3
  8
0
 10
2351.6063139364819
 20
-57.000000000000277
 30
0.0
 11
2368.0607966083862
 21
-47.500000000000277
 31
0.0
  0
LINE
  5
3E4
  8
0
 10
2368.0607966083862
 20
-28.500000000000309
 30
0.0
 11
2368.0607966083862
 21
-47.500000000000313
 31
0.0
  0
LINE
  5
3E5
  8
0
 10
2351.6063139364819
 20
-57.000000000000277
 30
0.0
 11
2335.151831264578
 21
-47.500000000000277
 31
0.0
  0
LINE
  5
3E6
  8
0
 10
2335.151831264578
 20
-66.500000000000284
 30
0.0
 11
2335.151831264578
 21
-47.500000000000277
 31
0.0
  0
LINE
  5
3E7
  8
0
 10
2351.6063139364819
 20
-76.000000000000284
 30
0.0
 11
2368.0607966083862
 21
-66.500000000000284
 31
0.0
  0
LINE
  5
3E8
  8
0
 10
2351.6063139364819
 20
-76.000000000000284
 30
0.0
 11
2335.151831264578
 21
-66.500000000000284
 31
0.0
  0
LINE
  5
3EA
  8
0
 10
2368.0607966083862
 20
-66.500000000000313
 30
0.0
 11
2368.0607966083862
 21
-76.500000000000313
 31
0.0
  0
LINE
  5
3FC
  8
0
 10
2775.0927363870719
 20
263.49999999999977
 30
0.0
 11
2791.5472190589771
 21
272.99999999999977
 31
0.0
  0
LINE
  5
3FD
  8
0
 10
2775.0927363870719
 20
244.4999999999998
 30
0.0
 11
2791.5472190589771
 21
253.9999999999998
 31
0.0
  0
LINE
  5
3FE
  8
0
 10
2775.0927363870719
 20
225.4999999999998
 30
0.0
 11
2791.5472190589771
 21
234.9999999999998
 31
0.0
  0
LINE
  5
3FF
  8
0
 10
2775.0927363870719
 20
206.4999999999998
 30
0.0
 11
2791.5472190589771
 21
215.9999999999998
 31
0.0
  0
LINE
  5
400
  8
0
 10
2775.0927363870719
 20
187.4999999999998
 30
0.0
 11
2791.5472190589771
 21
196.99999999999969
 31
0.0
  0
LINE
  5
401
  8
0
 10
2775.0927363870719
 20
168.4999999999998
 30
0.0
 11
2791.5472190589771
 21
177.9999999999998
 31
0.0
  0
LINE
  5
408
  8
0
 10
2775.0927363870719
 20
263.49999999999977
 30
0.0
 11
2775.0927363870719
 21
282.49999999999977
 31
0.0
  0
LINE
  5
409
  8
0
 10
2775.0927363870719
 20
225.4999999999998
 30
0.0
 11
2775.0927363870719
 21
244.4999999999998
 31
0.0
  0
LINE
  5
40A
  8
0
 10
2775.0927363870719
 20
187.4999999999998
 30
0.0
 11
2775.0927363870719
 21
206.4999999999998
 31
0.0
  0
LINE
  5
40B
  8
0
 10
2775.0927363870719
 20
158.4999999999994
 30
0.0
 11
2775.0927363870719
 21
168.4999999999998
 31
0.0
  0
LINE
  5
40F
  8
0
 10
2016.454482671905
 20
212.5
 30
0.0
 11
2000.0
 21
222.0
 31
0.0
  0
LINE
  5
410
  8
0
 10
2016.454482671905
 20
193.5
 30
0.0
 11
2000.0
 21
203.0
 31
0.0
  0
LINE
  5
411
  8
0
 10
2016.454482671905
 20
174.5
 30
0.0
 11
2000.0
 21
184.0
 31
0.0
  0
LINE
  5
412
  8
0
 10
2016.454482671905
 20
155.5
 30
0.0
 11
2000.0
 21
165.0
 31
0.0
  0
LINE
  5
413
  8
0
 10
2016.454482671905
 20
136.5
 30
0.0
 11
2000.0
 21
146.0
 31
0.0
  0
LINE
  5
414
  8
0
 10
2016.454482671905
 20
117.5
 30
0.0
 11
2000.0
 21
127.0
 31
0.0
  0
LINE
  5
41B
  8
0
 10
2016.454482671905
 20
212.5
 30
0.0
 11
2016.454482671905
 21
193.5
 31
0.0
  0
LINE
  5
41C
  8
0
 10
2016.454482671905
 20
174.5
 30
0.0
 11
2016.454482671905
 21
155.5
 31
0.0
  0
LINE
  5
41D
  8
0
 10
2016.454482671905
 20
136.5
 30
0.0
 11
2016.454482671905
 21
117.5
 31
0.0
  0
LINE
  5
421
  8
0
 10
2132.068874077127
 20
174.24999999999989
 30
0.0
 11
2439.9409051224952
 21
352.0
 31
0.0
  0
LINE
  5
422
  8
0
 10
2439.9409051224952
 20
352.0
 30
0.0
 11
2651.2511036458982
 21
229.9999999999998
 31
0.0
  0
LINE
  5
423
  8
0
 10
2439.9409051224952
 20
352.0
 30
0.0
 11
2439.9409051224952
 21
476.0
 31
0.0
  0
LINE
  5
424
  8
0
 10
2032.9089653438091
 20
241.0
 30
0.0
 11
2024.6817240078569
 21
236.25
 31
0.0
  0
LINE
  5
425
  8
0
 10
2024.6817240078569
 20
236.25
 30
0.0
 11
2343.37907260053
 21
52.249999999999737
 31
0.0
  0
LINE
  5
426
  8
0
 10
2351.6063139364819
 20
56.999999999999687
 30
0.0
 11
2343.37907260053
 21
52.249999999999687
 31
0.0
  0
LINE
  5
427
  8
0
 10
2032.9089653438091
 20
241.0
 30
0.0
 11
2032.9089653438091
 21
231.5
 31
0.0
  0
LINE
  5
428
  8
0
 10
2448.1681464584472
 20
480.74999999999989
 30
0.0
 11
2448.1681464584472
 21
464.74999999999989
 31
0.0
  0
LINE
  5
429
  8
0
 10
2448.1681464584472
 20
464.74999999999989
 30
0.0
 11
2439.9409051224952
 21
459.99999999999989
 31
0.0
  0
LINE
  5
42A
  8
0
 10
2448.1681464584472
 20
480.74999999999989
 30
0.0
 11
2766.8654950511209
 21
296.74999999999972
 31
0.0
  0
LINE
  5
42B
  8
0
 10
2448.1681464584472
 20
464.74999999999989
 30
0.0
 11
2753.0090885905702
 21
288.74999999999977
 31
0.0
  0
LINE
  5
42C
  8
0
 10
2439.9409051224952
 20
459.99999999999989
 30
0.0
 11
2744.7818472546178
 21
283.99999999999972
 31
0.0
  0
INSERT
  5
42D
  8
0
  2
*U4
 10
0.0
 20
0.0
 30
0.0
  0
LINE
  5
42E
  8
0
 10
3000.0
 20
50.999999999999879
 30
0.0
 11
3000.0
 21
241.0
 31
0.0
  0
LINE
  5
42F
  8
0
 10
3000.0
 20
50.999999999999879
 30
0.0
 11
3351.6063139364819
 21
-152.00000000000031
 31
0.0
  0
LINE
  5
430
  8
0
 10
3351.6063139364819
 20
-152.00000000000031
 30
0.0
 11
3791.547219058978
 21
101.9999999999997
 31
0.0
  0
LINE
  5
431
  8
0
 10
3791.547219058978
 20
101.9999999999997
 30
0.0
 11
3791.547219058978
 21
291.99999999999977
 31
0.0
  0
LINE
  5
432
  8
0
 10
3791.547219058978
 20
291.99999999999977
 30
0.0
 11
3351.6063139364819
 21
37.999999999999723
 31
0.0
  0
LINE
  5
433
  8
0
 10
3766.8654950511209
 20
296.74999999999972
 30
0.0
 11
3351.6063139364819
 21
56.999999999999687
 31
0.0
  0
LINE
  5
434
  8
0
 10
3351.6063139364819
 20
37.999999999999723
 30
0.0
 11
3351.6063139364819
 21
-152.00000000000031
 31
0.0
  0
LINE
  5
435
  8
0
 10
3351.6063139364819
 20
37.999999999999723
 30
0.0
 11
3000.0
 21
241.0
 31
0.0
  0
LINE
  5
436
  8
0
 10
3368.0607966083862
 20
47.499999999999709
 30
0.0
 11
3351.6063139364819
 21
56.999999999999687
 31
0.0
  0
LINE
  5
437
  8
0
 10
3032.9089653438091
 20
240.99999999999989
 30
0.0
 11
3016.4544826719052
 21
250.49999999999989
 31
0.0
  0
LINE
  5
438
  8
0
 10
3000.0
 20
241.0
 30
0.0
 11
3439.9409051224952
 21
495.0
 31
0.0
  0
LINE
  5
439
  8
0
 10
3032.9089653438091
 20
241.0
 30
0.0
 11
3448.1681464584472
 21
480.74999999999989
 31
0.0
  0
LINE
  5
43A
  8
0
 10
3439.9409051224952
 20
495.0
 30
0.0
 11
3791.547219058978
 21
291.99999999999977
 31
0.0
  0
LINE
  5
43B
  8
0
 10
3423.48642245059
 20
485.5
 30
0.0
 11
3439.9409051224952
 21
476.0
 31
0.0
  0
LINE
  5
43C
  8
0
 10
3758.638253715169
 20
291.99999999999977
 30
0.0
 11
3775.0927363870719
 21
282.49999999999977
 31
0.0
  0
LINE
  5
43D
  8
0
 10
3351.6063139364819
 20
37.999999999999723
 30
0.0
 11
3351.6063139364819
 21
18.999999999999709
 31
0.0
  0
LINE
  5
43E
  8
0
 10
3351.6063139364819
 20
18.999999999999709
 30
0.0
 11
3368.0607966083862
 21
28.499999999999719
 31
0.0
  0
LINE
  5
43F
  8
0
 10
3368.0607966083862
 20
47.49999999999968
 30
0.0
 11
3368.0607966083862
 21
28.499999999999691
 31
0.0
  0
LINE
  5
440
  8
0
 10
3351.6063139364819
 20
18.999999999999709
 30
0.0
 11
3335.151831264578
 21
28.499999999999719
 31
0.0
  0
LINE
  5
441
  8
0
 10
3335.151831264578
 20
9.4999999999997158
 30
0.0
 11
3335.151831264578
 21
28.499999999999719
 31
0.0
  0
LINE
  5
442
  8
0
 10
3351.6063139364819
 20
-0.0000000000002842
 30
0.0
 11
3368.0607966083862
 21
9.4999999999997158
 31
0.0
  0
LINE
  5
443
  8
0
 10
3351.6063139364819
 20
-0.0000000000002878
 30
0.0
 11
3335.151831264578
 21
9.4999999999997122
 31
0.0
  0
LINE
  5
444
  8
0
 10
3351.6063139364819
 20
-19.000000000000281
 30
0.0
 11
3368.0607966083862
 21
-9.5000000000002842
 31
0.0
  0
LINE
  5
445
  8
0
 10
3368.0607966083862
 20
9.4999999999996874
 30
0.0
 11
3368.0607966083862
 21
-9.5000000000003126
 31
0.0
  0
LINE
  5
446
  8
0
 10
3351.6063139364819
 20
-19.000000000000281
 30
0.0
 11
3335.151831264578
 21
-9.5000000000002842
 31
0.0
  0
LINE
  5
447
  8
0
 10
3335.151831264578
 20
-28.500000000000281
 30
0.0
 11
3335.151831264578
 21
-9.5000000000002842
 31
0.0
  0
LINE
  5
448
  8
0
 10
3351.6063139364819
 20
-38.000000000000291
 30
0.0
 11
3368.0607966083862
 21
-28.500000000000281
 31
0.0
  0
LINE
  5
449
  8
0
 10
3351.6063139364819
 20
-38.000000000000291
 30
0.0
 11
3335.151831264578
 21
-28.500000000000291
 31
0.0
  0
LINE
  5
44A
  8
0
 10
3351.6063139364819
 20
-57.000000000000277
 30
0.0
 11
3368.0607966083862
 21
-47.500000000000277
 31
0.0
  0
LINE
  5
44B
  8
0
 10
3368.0607966083862
 20
-28.500000000000309
 30
0.0
 11
3368.0607966083862
 21
-47.500000000000313
 31
0.0
  0
LINE
  5
44C
  8
0
 10
3351.6063139364819
 20
-57.000000000000277
 30
0.0
 11
3335.151831264578
 21
-47.500000000000277
 31
0.0
  0
LINE
  5
44D
  8
0
 10
3335.151831264578
 20
-66.500000000000284
 30
0.0
 11
3335.151831264578
 21
-47.500000000000277
 31
0.0
  0
LINE
  5
44E
  8
0
 10
3351.6063139364819
 20
-76.000000000000284
 30
0.0
 11
3368.0607966083862
 21
-66.500000000000284
 31
0.0
  0
LINE
  5
44F
  8
0
 10
3351.6063139364819
 20
-76.000000000000284
 30
0.0
 11
3335.151831264578
 21
-66.500000000000284
 31
0.0
  0
LINE
  5
450
  8
0
 10
3351.6063139364819
 20
-95.000000000000284
 30
0.0
 11
3368.0607966083862
 21
-85.500000000000284
 31
0.0
  0
LINE
  5
451
  8
0
 10
3368.0607966083862
 20
-66.500000000000313
 30
0.0
 11
3368.0607966083862
 21
-85.500000000000298
 31
0.0
  0
LINE
  5
452
  8
0
 10
3351.6063139364819
 20
-95.000000000000284
 30
0.0
 11
3335.151831264578
 21
-85.500000000000284
 31
0.0
  0
LINE
  5
453
  8
0
 10
3335.151831264578
 20
-104.5000000000003
 30
0.0
 11
3335.151831264578
 21
-85.500000000000284
 31
0.0
  0
LINE
  5
454
  8
0
 10
3351.6063139364819
 20
-114.0000000000003
 30
0.0
 11
3368.0607966083862
 21
-104.5000000000003
 31
0.0
  0
LINE
  5
455
  8
0
 10
3351.6063139364819
 20
-114.0000000000003
 30
0.0
 11
3335.151831264578
 21
-104.5000000000003
 31
0.0
  0
LINE
  5
456
  8
0
 10
3351.6063139364819
 20
-133.00000000000031
 30
0.0
 11
3368.0607966083862
 21
-123.5000000000002
 31
0.0
  0
LINE
  5
457
  8
0
 10
3368.0607966083862
 20
-104.5000000000003
 30
0.0
 11
3368.0607966083862
 21
-123.5000000000003
 31
0.0
  0
LINE
  5
458
  8
0
 10
3351.6063139364819
 20
-133.00000000000031
 30
0.0
 11
3335.151831264578
 21
-123.5000000000002
 31
0.0
  0
LINE
  5
459
  8
0
 10
3335.151831264578
 20
-142.50000000000031
 30
0.0
 11
3335.151831264578
 21
-123.5000000000002
 31
0.0
  0
LINE
  5
463
  8
0
 10
3775.0927363870719
 20
263.49999999999977
 30
0.0
 11
3791.547219058978
 21
272.99999999999977
 31
0.0
  0
LINE
  5
464
  8
0
 10
3775.0927363870719
 20
244.4999999999998
 30
0.0
 11
3791.547219058978
 21
253.9999999999998
 31
0.0
  0
LINE
  5
465
  8
0
 10
3775.0927363870719
 20
225.4999999999998
 30
0.0
 11
3791.547219058978
 21
234.9999999999998
 31
0.0
  0
LINE
  5
466
  8
0
 10
3775.0927363870719
 20
206.4999999999998
 30
0.0
 11
3791.547219058978
 21
215.9999999999998
 31
0.0
  0
LINE
  5
467
  8
0
 10
3775.0927363870719
 20
187.4999999999998
 30
0.0
 11
3791.547219058978
 21
196.99999999999969
 31
0.0
  0
LINE
  5
468
  8
0
 10
3775.0927363870719
 20
168.4999999999998
 30
0.0
 11
3791.547219058978
 21
177.9999999999998
 31
0.0
  0
LINE
  5
469
  8
0
 10
3775.0927363870719
 20
149.49999999999969
 30
0.0
 11
3791.547219058978
 21
158.9999999999998
 31
0.0
  0
LINE
  5
46A
  8
0
 10
3775.0927363870719
 20
130.49999999999969
 30
0.0
 11
3791.547219058978
 21
139.99999999999969
 31
0.0
  0
LINE
  5
46B
  8
0
 10
3775.0927363870719
 20
111.4999999999997
 30
0.0
 11
3791.547219058978
 21
120.9999999999997
 31
0.0
  0
LINE
  5
46F
  8
0
 10
3775.0927363870719
 20
263.49999999999977
 30
0.0
 11
3775.0927363870719
 21
282.49999999999977
 31
0.0
  0
LINE
  5
470
  8
0
 10
3775.0927363870719
 20
225.4999999999998
 30
0.0
 11
3775.0927363870719
 21
244.4999999999998
 31
0.0
  0
LINE
  5
471
  8
0
 10
3775.0927363870719
 20
187.4999999999998
 30
0.0
 11
3775.0927363870719
 21
206.4999999999998
 31
0.0
  0
LINE
  5
472
  8
0
 10
3775.0927363870719
 20
149.49999999999969
 30
0.0
 11
3775.0927363870719
 21
168.4999999999998
 31
0.0
  0
LINE
  5
473
  8
0
 10
3775.0927363870719
 20
111.4999999999997
 30
0.0
 11
3775.0927363870719
 21
130.49999999999969
 31
0.0
  0
LINE
  5
476
  8
0
 10
3016.4544826719052
 20
212.5
 30
0.0
 11
3000.0
 21
222.0
 31
0.0
  0
LINE
  5
477
  8
0
 10
3016.4544826719052
 20
193.5
 30
0.0
 11
3000.0
 21
203.0
 31
0.0
  0
LINE
  5
478
  8
0
 10
3016.4544826719052
 20
174.5
 30
0.0
 11
3000.0
 21
184.0
 31
0.0
  0
LINE
  5
479
  8
0
 10
3016.4544826719052
 20
155.5
 30
0.0
 11
3000.0
 21
165.0
 31
0.0
  0
LINE
  5
47A
  8
0
 10
3016.4544826719052
 20
136.5
 30
0.0
 11
3000.0
 21
146.0
 31
0.0
  0
LINE
  5
47B
  8
0
 10
3016.4544826719052
 20
117.5
 30
0.0
 11
3000.0
 21
127.0
 31
0.0
  0
LINE
  5
47C
  8
0
 10
3016.4544826719052
 20
98.500000000000014
 30
0.0
 11
3000.0
 21
108.0
 31
0.0
  0
LINE
  5
47D
  8
0
 10
3016.4544826719052
 20
79.5
 30
0.0
 11
3000.0
 21
89.0
 31
0.0
  0
LINE
  5
47E
  8
0
 10
3016.4544826719052
 20
60.5
 30
0.0
 11
3000.0
 21
70.0
 31
0.0
  0
LINE
  5
482
  8
0
 10
3016.4544826719052
 20
212.5
 30
0.0
 11
3016.4544826719052
 21
193.5
 31
0.0
  0
LINE
  5
483
  8
0
 10
3016.4544826719052
 20
174.5
 30
0.0
 11
3016.4544826719052
 21
155.5
 31
0.0
  0
LINE
  5
484
  8
0
 10
3016.4544826719052
 20
136.5
 30
0.0
 11
3016.4544826719052
 21
117.5
 31
0.0
  0
LINE
  5
485
  8
0
 10
3016.4544826719052
 20
98.500000000000014
 30
0.0
 11
3016.4544826719052
 21
79.5
 31
0.0
  0
LINE
  5
486
  8
0
 10
3016.4544826719052
 20
60.5
 30
0.0
 11
3016.4544826719052
 21
41.5
 31
0.0
  0
LINE
  5
488
  8
0
 10
3189.2265507268999
 20
141.24999999999989
 30
0.0
 11
3439.9409051224952
 21
286.0
 31
0.0
  0
LINE
  5
489
  8
0
 10
3439.9409051224952
 20
286.0
 30
0.0
 11
3594.0934269961249
 21
196.9999999999998
 31
0.0
  0
LINE
  5
48A
  8
0
 10
3439.9409051224952
 20
286.0
 30
0.0
 11
3439.9409051224952
 21
476.0
 31
0.0
  0
LINE
  5
48B
  8
0
 10
3032.9089653438091
 20
241.0
 30
0.0
 11
3024.6817240078558
 21
236.25
 31
0.0
  0
LINE
  5
48C
  8
0
 10
3024.6817240078558
 20
236.25
 30
0.0
 11
3343.37907260053
 21
52.249999999999737
 31
0.0
  0
LINE
  5
48D
  8
0
 10
3351.6063139364819
 20
56.999999999999687
 30
0.0
 11
3343.37907260053
 21
52.249999999999687
 31
0.0
  0
LINE
  5
48E
  8
0
 10
3032.9089653438091
 20
241.0
 30
0.0
 11
3032.9089653438091
 21
231.5
 31
0.0
  0
LINE
  5
48F
  8
0
 10
3448.1681464584472
 20
480.74999999999989
 30
0.0
 11
3448.1681464584472
 21
464.74999999999989
 31
0.0
  0
LINE
  5
490
  8
0
 10
3448.1681464584472
 20
464.74999999999989
 30
0.0
 11
3439.9409051224952
 21
459.99999999999989
 31
0.0
  0
LINE
  5
491
  8
0
 10
3448.1681464584472
 20
480.74999999999989
 30
0.0
 11
3766.8654950511209
 21
296.74999999999972
 31
0.0
  0
LINE
  5
492
  8
0
 10
3448.1681464584472
 20
464.74999999999989
 30
0.0
 11
3753.0090885905702
 21
288.74999999999977
 31
0.0
  0
LINE
  5
493
  8
0
 10
3439.9409051224952
 20
459.99999999999989
 30
0.0
 11
3744.7818472546178
 21
283.99999999999972
 31
0.0
  0
INSERT
  5
494
  8
0
  2
*U5
 10
0.0
 20
0.0
 30
0.0
  0
LINE
  5
498
  8
0
 10
4000.0
 20
72.999999999999886
 30
0.0
 11
4000.0
 21
241.0
 31
0.0
  0
LINE
  5
499
  8
0
 10
4000.0
 20
72.999999999999886
 30
0.0
 11
4351.6063139364824
 21
-130.00000000000031
 31
0.0
  0
LINE
  5
49A
  8
0
 10
4351.6063139364824
 20
-130.00000000000031
 30
0.0
 11
4791.5472190589771
 21
123.9999999999997
 31
0.0
  0
LINE
  5
49B
  8
0
 10
4791.5472190589771
 20
123.9999999999997
 30
0.0
 11
4791.5472190589771
 21
291.99999999999977
 31
0.0
  0
LINE
  5
49C
  8
0
 10
4791.5472190589771
 20
291.99999999999977
 30
0.0
 11
4351.6063139364824
 21
37.999999999999723
 31
0.0
  0
LINE
  5
49D
  8
0
 10
4766.8654950511209
 20
296.74999999999972
 30
0.0
 11
4351.6063139364824
 21
56.999999999999687
 31
0.0
  0
LINE
  5
49E
  8
0
 10
4351.6063139364824
 20
37.999999999999723
 30
0.0
 11
4351.6063139364824
 21
-130.00000000000031
 31
0.0
  0
LINE
  5
49F
  8
0
 10
4351.6063139364824
 20
37.999999999999723
 30
0.0
 11
4000.0
 21
241.0
 31
0.0
  0
LINE
  5
4A0
  8
0
 10
4368.0607966083862
 20
47.499999999999709
 30
0.0
 11
4351.6063139364824
 21
56.999999999999687
 31
0.0
  0
LINE
  5
4A1
  8
0
 10
4032.9089653438091
 20
240.99999999999989
 30
0.0
 11
4016.4544826719039
 21
250.49999999999989
 31
0.0
  0
LINE
  5
4A2
  8
0
 10
4000.0
 20
241.0
 30
0.0
 11
4439.9409051224948
 21
495.0
 31
0.0
  0
LINE
  5
4A3
  8
0
 10
4032.9089653438091
 20
241.0
 30
0.0
 11
4448.1681464584472
 21
480.74999999999989
 31
0.0
  0
LINE
  5
4A4
  8
0
 10
4439.9409051224948
 20
495.0
 30
0.0
 11
4791.5472190589771
 21
291.99999999999977
 31
0.0
  0
LINE
  5
4A5
  8
0
 10
4423.4864224505891
 20
485.5
 30
0.0
 11
4439.9409051224948
 21
476.0
 31
0.0
  0
LINE
  5
4A6
  8
0
 10
4758.6382537151676
 20
291.99999999999977
 30
0.0
 11
4775.0927363870724
 21
282.49999999999977
 31
0.0
  0
LINE
  5
4A7
  8
0
 10
4351.6063139364824
 20
37.999999999999723
 30
0.0
 11
4351.6063139364824
 21
18.999999999999709
 31
0.0
  0
LINE
  5
4A8
  8
0
 10
4351.6063139364824
 20
18.999999999999709
 30
0.0
 11
4368.0607966083862
 21
28.499999999999719
 31
0.0
  0
LINE
  5
4A9
  8
0
 10
4368.0607966083862
 20
47.49999999999968
 30
0.0
 11
4368.0607966083862
 21
28.499999999999691
 31
0.0
  0
LINE
  5
4AA
  8
0
 10
4351.6063139364824
 20
18.999999999999709
 30
0.0
 11
4335.1518312645767
 21
28.499999999999719
 31
0.0
  0
LINE
  5
4AB
  8
0
 10
4335.1518312645767
 20
9.4999999999997158
 30
0.0
 11
4335.1518312645767
 21
28.499999999999719
 31
0.0
  0
LINE
  5
4AC
  8
0
 10
4351.6063139364824
 20
-0.0000000000002842
 30
0.0
 11
4368.0607966083862
 21
9.4999999999997158
 31
0.0
  0
LINE
  5
4AD
  8
0
 10
4351.6063139364824
 20
-0.0000000000002878
 30
0.0
 11
4335.1518312645767
 21
9.4999999999997122
 31
0.0
  0
LINE
  5
4AE
  8
0
 10
4351.6063139364824
 20
-19.000000000000281
 30
0.0
 11
4368.0607966083862
 21
-9.5000000000002842
 31
0.0
  0
LINE
  5
4AF
  8
0
 10
4368.0607966083862
 20
9.4999999999996874
 30
0.0
 11
4368.0607966083862
 21
-9.5000000000003126
 31
0.0
  0
LINE
  5
4B0
  8
0
 10
4351.6063139364824
 20
-19.000000000000281
 30
0.0
 11
4335.1518312645767
 21
-9.5000000000002842
 31
0.0
  0
LINE
  5
4B1
  8
0
 10
4335.1518312645767
 20
-28.500000000000281
 30
0.0
 11
4335.1518312645767
 21
-9.5000000000002842
 31
0.0
  0
LINE
  5
4B2
  8
0
 10
4351.6063139364824
 20
-38.000000000000291
 30
0.0
 11
4368.0607966083862
 21
-28.500000000000281
 31
0.0
  0
LINE
  5
4B3
  8
0
 10
4351.6063139364824
 20
-38.000000000000291
 30
0.0
 11
4335.1518312645767
 21
-28.500000000000291
 31
0.0
  0
LINE
  5
4B4
  8
0
 10
4351.6063139364824
 20
-57.000000000000277
 30
0.0
 11
4368.0607966083862
 21
-47.500000000000277
 31
0.0
  0
LINE
  5
4B5
  8
0
 10
4368.0607966083862
 20
-28.500000000000309
 30
0.0
 11
4368.0607966083862
 21
-47.500000000000313
 31
0.0
  0
LINE
  5
4B6
  8
0
 10
4351.6063139364824
 20
-57.000000000000277
 30
0.0
 11
4335.1518312645767
 21
-47.500000000000277
 31
0.0
  0
LINE
  5
4B7
  8
0
 10
4335.1518312645767
 20
-66.500000000000284
 30
0.0
 11
4335.1518312645767
 21
-47.500000000000277
 31
0.0
  0
LINE
  5
4B8
  8
0
 10
4351.6063139364824
 20
-76.000000000000284
 30
0.0
 11
4368.0607966083862
 21
-66.500000000000284
 31
0.0
  0
LINE
  5
4B9
  8
0
 10
4351.6063139364824
 20
-76.000000000000284
 30
0.0
 11
4335.1518312645767
 21
-66.500000000000284
 31
0.0
  0
LINE
  5
4BA
  8
0
 10
4351.6063139364824
 20
-95.000000000000284
 30
0.0
 11
4368.0607966083862
 21
-85.500000000000284
 31
0.0
  0
LINE
  5
4BB
  8
0
 10
4368.0607966083862
 20
-66.500000000000313
 30
0.0
 11
4368.0607966083862
 21
-85.500000000000298
 31
0.0
  0
LINE
  5
4BC
  8
0
 10
4351.6063139364824
 20
-95.000000000000284
 30
0.0
 11
4335.1518312645767
 21
-85.500000000000284
 31
0.0
  0
LINE
  5
4BD
  8
0
 10
4335.1518312645767
 20
-104.5000000000003
 30
0.0
 11
4335.1518312645767
 21
-85.500000000000284
 31
0.0
  0
LINE
  5
4BE
  8
0
 10
4351.6063139364824
 20
-114.0000000000003
 30
0.0
 11
4368.0607966083862
 21
-104.5000000000003
 31
0.0
  0
LINE
  5
4BF
  8
0
 10
4351.6063139364824
 20
-114.0000000000003
 30
0.0
 11
4335.1518312645767
 21
-104.5000000000003
 31
0.0
  0
LINE
  5
4C1
  8
0
 10
4368.0607966083862
 20
-104.5000000000003
 30
0.0
 11
4368.0607966083862
 21
-120.5000000000005
 31
0.0
  0
LINE
  5
4CD
  8
0
 10
4775.0927363870724
 20
263.49999999999977
 30
0.0
 11
4791.5472190589771
 21
272.99999999999977
 31
0.0
  0
LINE
  5
4CE
  8
0
 10
4775.0927363870724
 20
244.4999999999998
 30
0.0
 11
4791.5472190589771
 21
253.9999999999998
 31
0.0
  0
LINE
  5
4CF
  8
0
 10
4775.0927363870724
 20
225.4999999999998
 30
0.0
 11
4791.5472190589771
 21
234.9999999999998
 31
0.0
  0
LINE
  5
4D0
  8
0
 10
4775.0927363870724
 20
206.4999999999998
 30
0.0
 11
4791.5472190589771
 21
215.9999999999998
 31
0.0
  0
LINE
  5
4D1
  8
0
 10
4775.0927363870724
 20
187.4999999999998
 30
0.0
 11
4791.5472190589771
 21
196.99999999999969
 31
0.0
  0
LINE
  5
4D2
  8
0
 10
4775.0927363870724
 20
168.4999999999998
 30
0.0
 11
4791.5472190589771
 21
177.9999999999998
 31
0.0
  0
LINE
  5
4D3
  8
0
 10
4775.0927363870724
 20
149.49999999999969
 30
0.0
 11
4791.5472190589771
 21
158.9999999999998
 31
0.0
  0
LINE
  5
4D4
  8
0
 10
4775.0927363870724
 20
130.49999999999969
 30
0.0
 11
4791.5472190589771
 21
139.99999999999969
 31
0.0
  0
LINE
  5
4D9
  8
0
 10
4775.0927363870724
 20
263.49999999999977
 30
0.0
 11
4775.0927363870724
 21
282.49999999999977
 31
0.0
  0
LINE
  5
4DA
  8
0
 10
4775.0927363870724
 20
225.4999999999998
 30
0.0
 11
4775.0927363870724
 21
244.4999999999998
 31
0.0
  0
LINE
  5
4DB
  8
0
 10
4775.0927363870724
 20
187.4999999999998
 30
0.0
 11
4775.0927363870724
 21
206.4999999999998
 31
0.0
  0
LINE
  5
4DC
  8
0
 10
4775.0927363870724
 20
149.49999999999969
 30
0.0
 11
4775.0927363870724
 21
168.4999999999998
 31
0.0
  0
LINE
  5
4DD
  8
0
 10
4775.0927363870724
 20
114.4999999999994
 30
0.0
 11
4775.0927363870724
 21
130.49999999999969
 31
0.0
  0
LINE
  5
4E0
  8
0
 10
4016.4544826719039
 20
212.5
 30
0.0
 11
4000.0
 21
222.0
 31
0.0
  0
LINE
  5
4E1
  8
0
 10
4016.4544826719039
 20
193.5
 30
0.0
 11
4000.0
 21
203.0
 31
0.0
  0
LINE
  5
4E2
  8
0
 10
4016.4544826719039
 20
174.5
 30
0.0
 11
4000.0
 21
184.0
 31
0.0
  0
LINE
  5
4E3
  8
0
 10
4016.4544826719039
 20
155.5
 30
0.0
 11
4000.0
 21
165.0
 31
0.0
  0
LINE
  5
4E4
  8
0
 10
4016.4544826719039
 20
136.5
 30
0.0
 11
4000.0
 21
146.0
 31
0.0
  0
LINE
  5
4E5
  8
0
 10
4016.4544826719039
 20
117.5
 30
0.0
 11
4000.0
 21
127.0
 31
0.0
  0
LINE
  5
4E6
  8
0
 10
4016.4544826719039
 20
98.500000000000014
 30
0.0
 11
4000.0
 21
108.0
 31
0.0
  0
LINE
  5
4E7
  8
0
 10
4016.4544826719039
 20
79.5
 30
0.0
 11
4000.0
 21
89.0
 31
0.0
  0
LINE
  5
4EC
  8
0
 10
4016.4544826719039
 20
212.5
 30
0.0
 11
4016.4544826719039
 21
193.5
 31
0.0
  0
LINE
  5
4ED
  8
0
 10
4016.4544826719039
 20
174.5
 30
0.0
 11
4016.4544826719039
 21
155.5
 31
0.0
  0
LINE
  5
4EE
  8
0
 10
4016.4544826719039
 20
136.5
 30
0.0
 11
4016.4544826719039
 21
117.5
 31
0.0
  0
LINE
  5
4EF
  8
0
 10
4016.4544826719039
 20
98.500000000000014
 30
0.0
 11
4016.4544826719039
 21
79.5
 31
0.0
  0
LINE
  5
4F2
  8
0
 10
4170.1739918436424
 20
152.25
 30
0.0
 11
4439.9409051224948
 21
308.0
 31
0.0
  0
LINE
  5
4F3
  8
0
 10
4439.9409051224948
 20
308.0
 30
0.0
 11
4613.1459858793833
 21
207.99999999999989
 31
0.0
  0
LINE
  5
4F4
  8
0
 10
4439.9409051224948
 20
308.0
 30
0.0
 11
4439.9409051224948
 21
476.0
 31
0.0
  0
LINE
  5
4F5
  8
0
 10
4032.9089653438091
 20
241.0
 30
0.0
 11
4024.6817240078558
 21
236.25
 31
0.0
  0
LINE
  5
4F6
  8
0
 10
4024.6817240078558
 20
236.25
 30
0.0
 11
4343.3790726005291
 21
52.249999999999737
 31
0.0
  0
LINE
  5
4F7
  8
0
 10
4351.6063139364824
 20
56.999999999999687
 30
0.0
 11
4343.3790726005291
 21
52.249999999999687
 31
0.0
  0
LINE
  5
4F8
  8
0
 10
4032.9089653438091
 20
241.0
 30
0.0
 11
4032.9089653438091
 21
231.5
 31
0.0
  0
LINE
  5
4F9
  8
0
 10
4448.1681464584472
 20
480.74999999999989
 30
0.0
 11
4448.1681464584472
 21
464.74999999999989
 31
0.0
  0
LINE
  5
4FA
  8
0
 10
4448.1681464584472
 20
464.74999999999989
 30
0.0
 11
4439.9409051224948
 21
459.99999999999989
 31
0.0
  0
LINE
  5
4FB
  8
0
 10
4448.1681464584472
 20
480.74999999999989
 30
0.0
 11
4766.8654950511209
 21
296.74999999999972
 31
0.0
  0
LINE
  5
4FC
  8
0
 10
4448.1681464584472
 20
464.74999999999989
 30
0.0
 11
4753.0090885905693
 21
288.74999999999977
 31
0.0
  0
LINE
  5
4FD
  8
0
 10
4439.9409051224948
 20
459.99999999999989
 30
0.0
 11
4744.7818472546169
 21
283.99999999999972
 31
0.0
  0
INSERT
  5
4FE
  8
0
  2
*U6
 10
0.0
 20
0.0
 30
0.0
  0
LINE
  5
564
  8
0
 10
20.269872981077821
 20
702.5
 30
0.0
 11
438.56014300896157
 21
944.0
 31
0.0
  0
LINE
  5
565
  8
0
 10
20.269872981077821
 20
702.5
 30
0.0
 11
50.580762113533147
 21
685.0
 31
0.0
  0
LINE
  5
566
  8
0
 10
50.580762113533147
 20
685.0
 30
0.0
 11
468.871032141417
 21
926.5
 31
0.0
  0
LINE
  5
567
  8
0
 10
468.871032141417
 20
926.5
 30
0.0
 11
438.56014300896157
 21
944.0
 31
0.0
  0
LINE
  5
568
  8
0
 10
50.580762113533147
 20
685.0
 30
0.0
 11
50.58076211353314
 21
676.0
 31
0.0
  0
LINE
  5
569
  8
0
 10
80.025625842204079
 20
683.0
 30
0.0
 11
439.42616841274611
 21
890.49999999999989
 31
0.0
  0
LINE
  5
56B
  8
0
 10
20.269872981077821
 20
702.5
 30
0.0
 11
20.269872981077789
 21
693.5
 31
0.0
  0
LINE
  5
56D
  8
0
 10
50.580762113533147
 20
685.0
 30
0.0
 11
72.231397208144116
 21
697.5
 31
0.0
  0
LINE
  5
570
  8
0
 10
72.231397208144116
 20
688.49999999999989
 30
0.0
 11
50.58076211353314
 21
676.0
 31
0.0
  0
LINE
  5
571
  8
0
 10
50.58076211353314
 20
676.0
 30
0.0
 11
20.269872981077789
 21
693.5
 31
0.0
  0
LINE
  5
572
  8
0
 10
67.901270189221947
 20
700.0
 30
0.0
 11
72.231397208144131
 21
697.5
 31
0.0
  0
LINE
  5
573
  8
0
 10
67.901270189221947
 20
700.0
 30
0.0
 11
75.695498823281895
 21
704.49999999999989
 31
0.0
  0
LINE
  5
574
  8
0
 10
80.025625842204079
 20
702.0
 30
0.0
 11
75.695498823281881
 21
704.49999999999989
 31
0.0
  0
LINE
  5
575
  8
0
 10
41.920508075688751
 20
715.0
 30
0.0
 11
46.250635094610949
 21
712.5
 31
0.0
  0
LINE
  5
576
  8
0
 10
54.044863728670897
 20
717.0
 30
0.0
 11
49.714736709748699
 21
719.5
 31
0.0
  0
LINE
  5
57A
  8
0
 10
46.250635094610949
 20
712.5
 30
0.0
 11
54.044863728670897
 21
717.0
 31
0.0
  0
LINE
  5
57E
  8
0
 10
435.09604139382378
 20
912.0
 30
0.0
 11
439.42616841274611
 21
909.5
 31
0.0
  0
LINE
  5
57F
  8
0
 10
435.09604139382378
 20
912.0
 30
0.0
 11
442.89027002788379
 21
916.5
 31
0.0
  0
LINE
  5
580
  8
0
 10
447.220397046806
 20
914.0
 30
0.0
 11
442.89027002788379
 21
916.5
 31
0.0
  0
LINE
  5
581
  8
0
 10
409.11527928029068
 20
927.0
 30
0.0
 11
413.44540629921289
 21
924.5
 31
0.0
  0
LINE
  5
582
  8
0
 10
421.23963493327278
 20
929.0
 30
0.0
 11
416.90950791435068
 21
931.49999999999989
 31
0.0
  0
LINE
  5
583
  8
0
 10
413.44540629921289
 20
924.5
 30
0.0
 11
421.23963493327278
 21
929.0
 31
0.0
  0
LINE
  5
584
  8
0
 10
80.025625842204079
 20
702.0
 30
0.0
 11
80.025625842204064
 21
627.0
 31
0.0
  0
LINE
  5
585
  8
0
 10
72.231397208144131
 20
697.5
 30
0.0
 11
72.231397208144116
 21
622.5
 31
0.0
  0
LINE
  5
586
  8
0
 10
41.920508075688758
 20
681.0
 30
0.0
 11
41.920508075688751
 21
640.0
 31
0.0
  0
LINE
  5
587
  8
0
 10
45.384609690826508
 20
634.0
 30
0.0
 11
45.38460969082648
 21
481.0
 31
0.0
  0
LINE
  5
588
  8
0
 10
68.767295593006367
 20
620.5
 30
0.0
 11
68.767295593006338
 21
467.49999999999989
 31
0.0
  0
LINE
  5
589
  8
0
 10
45.38460969082648
 20
481.0
 30
0.0
 11
68.767295593006338
 21
467.49999999999989
 31
0.0
  0
LINE
  5
58B
  8
0
 10
65.303193977868574
 20
469.5
 30
0.0
 11
65.303193977868574
 21
477.5
 31
0.0
  0
LINE
  5
58C
  8
0
 10
65.303193977868574
 20
477.5
 30
0.0
 11
48.848711305964251
 21
487.0
 31
0.0
  0
LINE
  5
591
  8
0
 10
48.848711305964251
 20
487.0
 30
0.0
 11
48.848711305964251
 21
479.0
 31
0.0
  0
LINE
  5
594
  8
0
 10
68.767295593006367
 20
620.5
 30
0.0
 11
72.231397208144116
 21
622.5
 31
0.0
  0
LINE
  5
595
  8
0
 10
80.025625842204064
 20
627.0
 30
0.0
 11
72.231397208144116
 21
622.5
 31
0.0
  0
LINE
  5
596
  8
0
 10
76.561524227066315
 20
625.0
 30
0.0
 11
76.561524227066286
 21
472.0
 31
0.0
  0
LINE
  5
597
  8
0
 10
76.561524227066286
 20
472.0
 30
0.0
 11
68.767295593006338
 21
467.49999999999989
 31
0.0
  0
LINE
  5
59A
  8
0
 10
45.384609690826508
 20
634.0
 30
0.0
 11
41.920508075688751
 21
640.0
 31
0.0
  0
LINE
  5
59B
  8
0
 10
447.220397046806
 20
914.0
 30
0.0
 11
447.220397046806
 21
839.0
 31
0.0
  0
LINE
  5
59C
  8
0
 10
439.42616841274611
 20
909.5
 30
0.0
 11
439.42616841274611
 21
834.5
 31
0.0
  0
LINE
  5
59D
  8
0
 10
409.11527928029068
 20
873.0
 30
0.0
 11
409.11527928029068
 21
852.0
 31
0.0
  0
LINE
  5
59E
  8
0
 10
412.57938089542853
 20
846.0
 30
0.0
 11
412.57938089542853
 21
697.0
 31
0.0
  0
LINE
  5
59F
  8
0
 10
435.96206679760832
 20
832.49999999999989
 30
0.0
 11
435.96206679760832
 21
679.49999999999989
 31
0.0
  0
LINE
  5
5A0
  8
0
 10
432.49796518247058
 20
681.5
 30
0.0
 11
435.96206679760832
 21
679.49999999999989
 31
0.0
  0
LINE
  5
5A1
  8
0
 10
432.49796518247058
 20
681.5
 30
0.0
 11
432.49796518247058
 21
689.5
 31
0.0
  0
LINE
  5
5A2
  8
0
 10
432.49796518247058
 20
689.5
 30
0.0
 11
416.04348251056621
 21
699.0
 31
0.0
  0
LINE
  5
5A4
  8
0
 10
435.96206679760832
 20
832.49999999999989
 30
0.0
 11
439.42616841274611
 21
834.5
 31
0.0
  0
LINE
  5
5A5
  8
0
 10
447.220397046806
 20
839.0
 30
0.0
 11
439.42616841274611
 21
834.5
 31
0.0
  0
LINE
  5
5A6
  8
0
 10
443.75629543166838
 20
837.0
 30
0.0
 11
443.75629543166832
 21
684.0
 31
0.0
  0
LINE
  5
5A7
  8
0
 10
443.75629543166832
 20
684.0
 30
0.0
 11
435.96206679760832
 21
679.49999999999989
 31
0.0
  0
LINE
  5
5A8
  8
0
 10
412.57938089542853
 20
846.0
 30
0.0
 11
409.11527928029068
 21
852.0
 31
0.0
  0
LINE
  5
5A9
  8
0
 10
468.871032141417
 20
926.5
 30
0.0
 11
468.871032141417
 21
917.5
 31
0.0
  0
LINE
  5
5AA
  8
0
 10
468.871032141417
 20
917.5
 30
0.0
 11
447.220397046806
 21
905.0
 31
0.0
  0
LINE
  5
5AB
  8
0
 10
432.49796518247058
 20
681.5
 30
0.0
 11
76.561524227066286
 21
476.0
 31
0.0
  0
LINE
  5
5AC
  8
0
 10
432.49796518247058
 20
689.5
 30
0.0
 11
76.561524227066286
 21
484.0
 31
0.0
  0
LINE
  5
5AD
  8
0
 10
76.5615242270663
 20
502.99999999999989
 30
0.0
 11
416.04348251056621
 21
699.0
 31
0.0
  0
LINE
  5
610
  8
0
 10
1020.269872981078
 20
702.5
 30
0.0
 11
1438.5601430089621
 21
944.0
 31
0.0
  0
LINE
  5
611
  8
0
 10
1020.269872981078
 20
702.5
 30
0.0
 11
1050.580762113533
 21
685.0
 31
0.0
  0
LINE
  5
612
  8
0
 10
1050.580762113533
 20
685.0
 30
0.0
 11
1468.8710321414169
 21
926.5
 31
0.0
  0
LINE
  5
613
  8
0
 10
1468.8710321414169
 20
926.5
 30
0.0
 11
1438.5601430089621
 21
944.0
 31
0.0
  0
LINE
  5
614
  8
0
 10
1050.580762113533
 20
685.0
 30
0.0
 11
1050.580762113533
 21
676.0
 31
0.0
  0
LINE
  5
615
  8
0
 10
1080.0256258422039
 20
683.0
 30
0.0
 11
1439.4261684127459
 21
890.49999999999989
 31
0.0
  0
LINE
  5
616
  8
0
 10
1020.269872981078
 20
702.5
 30
0.0
 11
1020.269872981078
 21
693.5
 31
0.0
  0
LINE
  5
617
  8
0
 10
1050.580762113533
 20
685.0
 30
0.0
 11
1072.231397208144
 21
697.5
 31
0.0
  0
LINE
  5
618
  8
0
 10
1072.231397208144
 20
688.49999999999989
 30
0.0
 11
1050.580762113533
 21
676.0
 31
0.0
  0
LINE
  5
619
  8
0
 10
1050.580762113533
 20
676.0
 30
0.0
 11
1020.269872981078
 21
693.5
 31
0.0
  0
LINE
  5
61A
  8
0
 10
1067.901270189222
 20
700.0
 30
0.0
 11
1072.231397208144
 21
697.5
 31
0.0
  0
LINE
  5
61B
  8
0
 10
1067.901270189222
 20
700.0
 30
0.0
 11
1075.6954988232819
 21
704.49999999999989
 31
0.0
  0
LINE
  5
61C
  8
0
 10
1080.0256258422039
 20
702.0
 30
0.0
 11
1075.6954988232819
 21
704.49999999999989
 31
0.0
  0
LINE
  5
61D
  8
0
 10
1041.920508075689
 20
715.0
 30
0.0
 11
1046.250635094611
 21
712.5
 31
0.0
  0
LINE
  5
61E
  8
0
 10
1054.0448637286711
 20
717.0
 30
0.0
 11
1049.7147367097491
 21
719.5
 31
0.0
  0
LINE
  5
61F
  8
0
 10
1046.250635094611
 20
712.5
 30
0.0
 11
1054.0448637286711
 21
717.0
 31
0.0
  0
LINE
  5
620
  8
0
 10
1435.096041393824
 20
912.0
 30
0.0
 11
1439.4261684127459
 21
909.5
 31
0.0
  0
LINE
  5
621
  8
0
 10
1435.096041393824
 20
912.0
 30
0.0
 11
1442.8902700278841
 21
916.5
 31
0.0
  0
LINE
  5
622
  8
0
 10
1447.2203970468061
 20
914.0
 30
0.0
 11
1442.8902700278841
 21
916.5
 31
0.0
  0
LINE
  5
623
  8
0
 10
1409.1152792802909
 20
927.0
 30
0.0
 11
1413.4454062992129
 21
924.5
 31
0.0
  0
LINE
  5
624
  8
0
 10
1421.239634933273
 20
929.0
 30
0.0
 11
1416.909507914351
 21
931.49999999999989
 31
0.0
  0
LINE
  5
625
  8
0
 10
1413.4454062992129
 20
924.5
 30
0.0
 11
1421.239634933273
 21
929.0
 31
0.0
  0
LINE
  5
626
  8
0
 10
1080.0256258422039
 20
702.0
 30
0.0
 11
1080.0256258422039
 21
627.0
 31
0.0
  0
LINE
  5
627
  8
0
 10
1072.231397208144
 20
697.5
 30
0.0
 11
1072.231397208144
 21
622.5
 31
0.0
  0
LINE
  5
628
  8
0
 10
1041.920508075689
 20
681.0
 30
0.0
 11
1041.920508075689
 21
640.0
 31
0.0
  0
LINE
  5
629
  8
0
 10
1045.384609690826
 20
634.0
 30
0.0
 11
1045.384609690826
 21
576.0
 31
0.0
  0
LINE
  5
62A
  8
0
 10
1068.7672955930061
 20
620.5
 30
0.0
 11
1068.7672955930061
 21
562.5
 31
0.0
  0
LINE
  5
62B
  8
0
 10
1045.384609690826
 20
576.0
 30
0.0
 11
1068.7672955930061
 21
562.5
 31
0.0
  0
LINE
  5
62C
  8
0
 10
1065.303193977868
 20
564.5
 30
0.0
 11
1065.303193977868
 21
572.5
 31
0.0
  0
LINE
  5
62D
  8
0
 10
1065.303193977868
 20
572.5
 30
0.0
 11
1048.8487113059639
 21
582.0
 31
0.0
  0
LINE
  5
62E
  8
0
 10
1048.8487113059639
 20
582.0
 30
0.0
 11
1048.8487113059639
 21
574.0
 31
0.0
  0
LINE
  5
62F
  8
0
 10
1068.7672955930061
 20
620.5
 30
0.0
 11
1072.231397208144
 21
622.5
 31
0.0
  0
LINE
  5
630
  8
0
 10
1080.0256258422039
 20
627.0
 30
0.0
 11
1072.231397208144
 21
622.5
 31
0.0
  0
LINE
  5
631
  8
0
 10
1076.561524227066
 20
625.0
 30
0.0
 11
1076.561524227066
 21
567.0
 31
0.0
  0
LINE
  5
632
  8
0
 10
1076.561524227066
 20
567.0
 30
0.0
 11
1068.7672955930061
 21
562.5
 31
0.0
  0
LINE
  5
633
  8
0
 10
1045.384609690826
 20
634.0
 30
0.0
 11
1041.920508075689
 21
640.0
 31
0.0
  0
LINE
  5
634
  8
0
 10
1447.2203970468061
 20
914.0
 30
0.0
 11
1447.2203970468061
 21
839.0
 31
0.0
  0
LINE
  5
635
  8
0
 10
1439.4261684127459
 20
909.5
 30
0.0
 11
1439.4261684127459
 21
834.5
 31
0.0
  0
LINE
  5
636
  8
0
 10
1409.1152792802909
 20
873.0
 30
0.0
 11
1409.1152792802909
 21
852.0
 31
0.0
  0
LINE
  5
637
  8
0
 10
1412.579380895429
 20
846.0
 30
0.0
 11
1412.579380895429
 21
792.0
 31
0.0
  0
LINE
  5
638
  8
0
 10
1435.962066797608
 20
832.49999999999989
 30
0.0
 11
1435.962066797608
 21
774.5
 31
0.0
  0
LINE
  5
639
  8
0
 10
1432.4979651824699
 20
776.5
 30
0.0
 11
1435.962066797608
 21
774.5
 31
0.0
  0
LINE
  5
63A
  8
0
 10
1432.4979651824699
 20
776.5
 30
0.0
 11
1432.4979651824699
 21
784.49999999999989
 31
0.0
  0
LINE
  5
63B
  8
0
 10
1432.4979651824699
 20
784.49999999999989
 30
0.0
 11
1416.043482510566
 21
794.0
 31
0.0
  0
LINE
  5
63C
  8
0
 10
1435.962066797608
 20
832.49999999999989
 30
0.0
 11
1439.4261684127459
 21
834.5
 31
0.0
  0
LINE
  5
63D
  8
0
 10
1447.2203970468061
 20
839.0
 30
0.0
 11
1439.4261684127459
 21
834.5
 31
0.0
  0
LINE
  5
63E
  8
0
 10
1443.7562954316679
 20
837.0
 30
0.0
 11
1443.7562954316679
 21
779.0
 31
0.0
  0
LINE
  5
63F
  8
0
 10
1443.7562954316679
 20
779.0
 30
0.0
 11
1435.962066797608
 21
774.5
 31
0.0
  0
LINE
  5
640
  8
0
 10
1412.579380895429
 20
846.0
 30
0.0
 11
1409.1152792802909
 21
852.0
 31
0.0
  0
LINE
  5
641
  8
0
 10
1468.8710321414169
 20
926.5
 30
0.0
 11
1468.8710321414169
 21
917.5
 31
0.0
  0
LINE
  5
642
  8
0
 10
1468.8710321414169
 20
917.5
 30
0.0
 11
1447.2203970468061
 21
905.0
 31
0.0
  0
LINE
  5
643
  8
0
 10
1432.4979651824699
 20
776.5
 30
0.0
 11
1076.561524227066
 21
571.0
 31
0.0
  0
LINE
  5
644
  8
0
 10
1432.4979651824699
 20
784.49999999999989
 30
0.0
 11
1076.561524227066
 21
579.0
 31
0.0
  0
LINE
  5
645
  8
0
 10
1076.561524227066
 20
598.0
 30
0.0
 11
1416.043482510566
 21
794.0
 31
0.0
  0
LINE
  5
646
  8
0
 10
2020.2698729810779
 20
702.5
 30
0.0
 11
2438.5601430089619
 21
944.0
 31
0.0
  0
LINE
  5
647
  8
0
 10
2020.2698729810779
 20
702.5
 30
0.0
 11
2050.5807621135332
 21
685.0
 31
0.0
  0
LINE
  5
648
  8
0
 10
2050.5807621135332
 20
685.0
 30
0.0
 11
2468.8710321414169
 21
926.5
 31
0.0
  0
LINE
  5
649
  8
0
 10
2468.8710321414169
 20
926.5
 30
0.0
 11
2438.5601430089619
 21
944.0
 31
0.0
  0
LINE
  5
64A
  8
0
 10
2050.5807621135332
 20
685.0
 30
0.0
 11
2050.5807621135332
 21
676.0
 31
0.0
  0
LINE
  5
64B
  8
0
 10
2080.0256258422041
 20
683.0
 30
0.0
 11
2439.4261684127459
 21
890.49999999999989
 31
0.0
  0
LINE
  5
64C
  8
0
 10
2020.2698729810779
 20
702.5
 30
0.0
 11
2020.2698729810779
 21
693.5
 31
0.0
  0
LINE
  5
64D
  8
0
 10
2050.5807621135332
 20
685.0
 30
0.0
 11
2072.2313972081438
 21
697.5
 31
0.0
  0
LINE
  5
64E
  8
0
 10
2072.2313972081438
 20
688.49999999999989
 30
0.0
 11
2050.5807621135332
 21
676.0
 31
0.0
  0
LINE
  5
64F
  8
0
 10
2050.5807621135332
 20
676.0
 30
0.0
 11
2020.2698729810779
 21
693.5
 31
0.0
  0
LINE
  5
650
  8
0
 10
2067.901270189222
 20
700.0
 30
0.0
 11
2072.2313972081438
 21
697.5
 31
0.0
  0
LINE
  5
651
  8
0
 10
2067.901270189222
 20
700.0
 30
0.0
 11
2075.6954988232819
 21
704.49999999999989
 31
0.0
  0
LINE
  5
652
  8
0
 10
2080.0256258422041
 20
702.0
 30
0.0
 11
2075.6954988232819
 21
704.49999999999989
 31
0.0
  0
LINE
  5
653
  8
0
 10
2041.920508075689
 20
715.0
 30
0.0
 11
2046.250635094611
 21
712.5
 31
0.0
  0
LINE
  5
654
  8
0
 10
2054.0448637286709
 20
717.0
 30
0.0
 11
2049.7147367097491
 21
719.5
 31
0.0
  0
LINE
  5
655
  8
0
 10
2046.250635094611
 20
712.5
 30
0.0
 11
2054.0448637286709
 21
717.0
 31
0.0
  0
LINE
  5
656
  8
0
 10
2435.0960413938242
 20
912.0
 30
0.0
 11
2439.4261684127459
 21
909.5
 31
0.0
  0
LINE
  5
657
  8
0
 10
2435.0960413938242
 20
912.0
 30
0.0
 11
2442.8902700278841
 21
916.5
 31
0.0
  0
LINE
  5
658
  8
0
 10
2447.2203970468058
 20
914.0
 30
0.0
 11
2442.8902700278841
 21
916.5
 31
0.0
  0
LINE
  5
659
  8
0
 10
2409.1152792802909
 20
927.0
 30
0.0
 11
2413.4454062992131
 21
924.5
 31
0.0
  0
LINE
  5
65A
  8
0
 10
2421.239634933273
 20
929.0
 30
0.0
 11
2416.9095079143508
 21
931.49999999999989
 31
0.0
  0
LINE
  5
65B
  8
0
 10
2413.4454062992131
 20
924.5
 30
0.0
 11
2421.239634933273
 21
929.0
 31
0.0
  0
LINE
  5
65C
  8
0
 10
2080.0256258422041
 20
702.0
 30
0.0
 11
2080.0256258422041
 21
627.0
 31
0.0
  0
LINE
  5
65D
  8
0
 10
2072.2313972081438
 20
697.5
 30
0.0
 11
2072.2313972081438
 21
622.5
 31
0.0
  0
LINE
  5
65E
  8
0
 10
2041.920508075689
 20
681.0
 30
0.0
 11
2041.920508075689
 21
640.0
 31
0.0
  0
LINE
  5
65F
  8
0
 10
2045.3846096908269
 20
634.0
 30
0.0
 11
2045.3846096908269
 21
598.0
 31
0.0
  0
LINE
  5
660
  8
0
 10
2068.767295593007
 20
620.5
 30
0.0
 11
2068.767295593007
 21
584.49999999999989
 31
0.0
  0
LINE
  5
661
  8
0
 10
2045.3846096908269
 20
598.0
 30
0.0
 11
2068.767295593007
 21
584.49999999999989
 31
0.0
  0
LINE
  5
662
  8
0
 10
2065.303193977868
 20
586.5
 30
0.0
 11
2065.303193977868
 21
594.5
 31
0.0
  0
LINE
  5
663
  8
0
 10
2065.303193977868
 20
594.5
 30
0.0
 11
2048.8487113059641
 21
604.0
 31
0.0
  0
LINE
  5
664
  8
0
 10
2048.8487113059641
 20
604.0
 30
0.0
 11
2048.8487113059641
 21
596.0
 31
0.0
  0
LINE
  5
665
  8
0
 10
2068.767295593007
 20
620.5
 30
0.0
 11
2072.2313972081438
 21
622.5
 31
0.0
  0
LINE
  5
666
  8
0
 10
2080.0256258422041
 20
627.0
 30
0.0
 11
2072.2313972081438
 21
622.5
 31
0.0
  0
LINE
  5
667
  8
0
 10
2076.561524227066
 20
625.0
 30
0.0
 11
2076.561524227066
 21
589.0
 31
0.0
  0
LINE
  5
668
  8
0
 10
2076.561524227066
 20
589.0
 30
0.0
 11
2068.767295593007
 21
584.49999999999989
 31
0.0
  0
LINE
  5
669
  8
0
 10
2045.3846096908269
 20
634.0
 30
0.0
 11
2041.920508075689
 21
640.0
 31
0.0
  0
LINE
  5
66A
  8
0
 10
2447.2203970468058
 20
914.0
 30
0.0
 11
2447.2203970468058
 21
839.0
 31
0.0
  0
LINE
  5
66B
  8
0
 10
2439.4261684127459
 20
909.5
 30
0.0
 11
2439.4261684127459
 21
834.5
 31
0.0
  0
LINE
  5
66C
  8
0
 10
2409.1152792802909
 20
873.0
 30
0.0
 11
2409.1152792802909
 21
852.0
 31
0.0
  0
LINE
  5
66D
  8
0
 10
2412.579380895429
 20
846.0
 30
0.0
 11
2412.579380895429
 21
814.0
 31
0.0
  0
LINE
  5
66E
  8
0
 10
2435.9620667976092
 20
832.49999999999989
 30
0.0
 11
2435.9620667976092
 21
796.49999999999989
 31
0.0
  0
LINE
  5
66F
  8
0
 10
2432.4979651824701
 20
798.5
 30
0.0
 11
2435.9620667976092
 21
796.49999999999989
 31
0.0
  0
LINE
  5
670
  8
0
 10
2432.4979651824701
 20
798.5
 30
0.0
 11
2432.4979651824701
 21
806.49999999999989
 31
0.0
  0
LINE
  5
671
  8
0
 10
2432.4979651824701
 20
806.49999999999989
 30
0.0
 11
2416.0434825105672
 21
816.0
 31
0.0
  0
LINE
  5
672
  8
0
 10
2435.9620667976092
 20
832.49999999999989
 30
0.0
 11
2439.4261684127459
 21
834.5
 31
0.0
  0
LINE
  5
673
  8
0
 10
2447.2203970468058
 20
839.0
 30
0.0
 11
2439.4261684127459
 21
834.5
 31
0.0
  0
LINE
  5
674
  8
0
 10
2443.7562954316681
 20
837.0
 30
0.0
 11
2443.7562954316681
 21
801.0
 31
0.0
  0
LINE
  5
675
  8
0
 10
2443.7562954316681
 20
801.0
 30
0.0
 11
2435.9620667976092
 21
796.49999999999989
 31
0.0
  0
LINE
  5
676
  8
0
 10
2412.579380895429
 20
846.0
 30
0.0
 11
2409.1152792802909
 21
852.0
 31
0.0
  0
LINE
  5
677
  8
0
 10
2468.8710321414169
 20
926.5
 30
0.0
 11
2468.8710321414169
 21
917.5
 31
0.0
  0
LINE
  5
678
  8
0
 10
2468.8710321414169
 20
917.5
 30
0.0
 11
2447.2203970468058
 21
905.0
 31
0.0
  0
LINE
  5
679
  8
0
 10
2432.4979651824701
 20
798.5
 30
0.0
 11
2076.561524227066
 21
593.0
 31
0.0
  0
LINE
  5
67A
  8
0
 10
2432.4979651824701
 20
806.49999999999989
 30
0.0
 11
2076.561524227066
 21
601.0
 31
0.0
  0
LINE
  5
67B
  8
0
 10
2076.561524227066
 20
620.0
 30
0.0
 11
2416.0434825105672
 21
816.0
 31
0.0
  0
LINE
  5
67C
  8
0
 10
3020.2698729810782
 20
702.5
 30
0.0
 11
3438.5601430089619
 21
944.0
 31
0.0
  0
LINE
  5
67D
  8
0
 10
3020.2698729810782
 20
702.5
 30
0.0
 11
3050.5807621135332
 21
685.0
 31
0.0
  0
LINE
  5
67E
  8
0
 10
3050.5807621135332
 20
685.0
 30
0.0
 11
3468.8710321414169
 21
926.5
 31
0.0
  0
LINE
  5
67F
  8
0
 10
3468.8710321414169
 20
926.5
 30
0.0
 11
3438.5601430089619
 21
944.0
 31
0.0
  0
LINE
  5
680
  8
0
 10
3050.5807621135332
 20
685.0
 30
0.0
 11
3050.5807621135332
 21
676.0
 31
0.0
  0
LINE
  5
681
  8
0
 10
3080.0256258422041
 20
683.0
 30
0.0
 11
3439.4261684127459
 21
890.49999999999989
 31
0.0
  0
LINE
  5
682
  8
0
 10
3020.2698729810782
 20
702.5
 30
0.0
 11
3020.2698729810782
 21
693.5
 31
0.0
  0
LINE
  5
683
  8
0
 10
3050.5807621135332
 20
685.0
 30
0.0
 11
3072.2313972081438
 21
697.5
 31
0.0
  0
LINE
  5
684
  8
0
 10
3072.2313972081438
 20
688.49999999999989
 30
0.0
 11
3050.5807621135332
 21
676.0
 31
0.0
  0
LINE
  5
685
  8
0
 10
3050.5807621135332
 20
676.0
 30
0.0
 11
3020.2698729810782
 21
693.5
 31
0.0
  0
LINE
  5
686
  8
0
 10
3067.901270189222
 20
700.0
 30
0.0
 11
3072.2313972081438
 21
697.5
 31
0.0
  0
LINE
  5
687
  8
0
 10
3067.901270189222
 20
700.0
 30
0.0
 11
3075.6954988232819
 21
704.49999999999989
 31
0.0
  0
LINE
  5
688
  8
0
 10
3080.0256258422041
 20
702.0
 30
0.0
 11
3075.6954988232819
 21
704.49999999999989
 31
0.0
  0
LINE
  5
689
  8
0
 10
3041.9205080756892
 20
715.0
 30
0.0
 11
3046.250635094611
 21
712.5
 31
0.0
  0
LINE
  5
68A
  8
0
 10
3054.0448637286709
 20
717.0
 30
0.0
 11
3049.7147367097491
 21
719.5
 31
0.0
  0
LINE
  5
68B
  8
0
 10
3046.250635094611
 20
712.5
 30
0.0
 11
3054.0448637286709
 21
717.0
 31
0.0
  0
LINE
  5
68C
  8
0
 10
3435.0960413938242
 20
912.0
 30
0.0
 11
3439.4261684127459
 21
909.5
 31
0.0
  0
LINE
  5
68D
  8
0
 10
3435.0960413938242
 20
912.0
 30
0.0
 11
3442.8902700278841
 21
916.5
 31
0.0
  0
LINE
  5
68E
  8
0
 10
3447.2203970468072
 20
914.0
 30
0.0
 11
3442.8902700278841
 21
916.5
 31
0.0
  0
LINE
  5
68F
  8
0
 10
3409.1152792802909
 20
927.0
 30
0.0
 11
3413.445406299214
 21
924.5
 31
0.0
  0
LINE
  5
690
  8
0
 10
3421.239634933273
 20
929.0
 30
0.0
 11
3416.9095079143508
 21
931.49999999999989
 31
0.0
  0
LINE
  5
691
  8
0
 10
3413.445406299214
 20
924.5
 30
0.0
 11
3421.239634933273
 21
929.0
 31
0.0
  0
LINE
  5
692
  8
0
 10
3080.0256258422041
 20
702.0
 30
0.0
 11
3080.0256258422041
 21
627.0
 31
0.0
  0
LINE
  5
693
  8
0
 10
3072.2313972081438
 20
697.5
 30
0.0
 11
3072.2313972081438
 21
622.5
 31
0.0
  0
LINE
  5
694
  8
0
 10
3041.9205080756892
 20
681.0
 30
0.0
 11
3041.9205080756892
 21
640.0
 31
0.0
  0
LINE
  5
695
  8
0
 10
3045.3846096908269
 20
634.0
 30
0.0
 11
3045.3846096908269
 21
532.00000000000011
 31
0.0
  0
LINE
  5
696
  8
0
 10
3068.767295593007
 20
620.5
 30
0.0
 11
3068.767295593007
 21
518.50000000000011
 31
0.0
  0
LINE
  5
697
  8
0
 10
3045.3846096908269
 20
532.00000000000011
 30
0.0
 11
3068.767295593007
 21
518.50000000000011
 31
0.0
  0
LINE
  5
698
  8
0
 10
3065.303193977868
 20
520.5
 30
0.0
 11
3065.303193977868
 21
528.50000000000011
 31
0.0
  0
LINE
  5
699
  8
0
 10
3065.303193977868
 20
528.50000000000011
 30
0.0
 11
3048.8487113059641
 21
538.00000000000011
 31
0.0
  0
LINE
  5
69A
  8
0
 10
3048.8487113059641
 20
538.00000000000011
 30
0.0
 11
3048.8487113059641
 21
530.00000000000011
 31
0.0
  0
LINE
  5
69B
  8
0
 10
3068.767295593007
 20
620.5
 30
0.0
 11
3072.2313972081438
 21
622.5
 31
0.0
  0
LINE
  5
69C
  8
0
 10
3080.0256258422041
 20
627.0
 30
0.0
 11
3072.2313972081438
 21
622.5
 31
0.0
  0
LINE
  5
69D
  8
0
 10
3076.5615242270669
 20
625.0
 30
0.0
 11
3076.5615242270669
 21
523.00000000000011
 31
0.0
  0
LINE
  5
69E
  8
0
 10
3076.5615242270669
 20
523.00000000000011
 30
0.0
 11
3068.767295593007
 21
518.50000000000011
 31
0.0
  0
LINE
  5
69F
  8
0
 10
3045.3846096908269
 20
634.0
 30
0.0
 11
3041.9205080756892
 21
640.0
 31
0.0
  0
LINE
  5
6A0
  8
0
 10
3447.2203970468072
 20
914.0
 30
0.0
 11
3447.2203970468072
 21
839.0
 31
0.0
  0
LINE
  5
6A1
  8
0
 10
3439.4261684127459
 20
909.5
 30
0.0
 11
3439.4261684127459
 21
834.5
 31
0.0
  0
LINE
  5
6A2
  8
0
 10
3409.1152792802909
 20
873.0
 30
0.0
 11
3409.1152792802909
 21
852.0
 31
0.0
  0
LINE
  5
6A3
  8
0
 10
3412.579380895429
 20
846.0
 30
0.0
 11
3412.579380895429
 21
748.00000000000011
 31
0.0
  0
LINE
  5
6A4
  8
0
 10
3435.9620667976078
 20
832.49999999999989
 30
0.0
 11
3435.9620667976078
 21
730.50000000000011
 31
0.0
  0
LINE
  5
6A5
  8
0
 10
3432.4979651824701
 20
732.50000000000011
 30
0.0
 11
3435.9620667976078
 21
730.50000000000011
 31
0.0
  0
LINE
  5
6A6
  8
0
 10
3432.4979651824701
 20
732.50000000000011
 30
0.0
 11
3432.4979651824701
 21
740.50000000000011
 31
0.0
  0
LINE
  5
6A7
  8
0
 10
3432.4979651824701
 20
740.50000000000011
 30
0.0
 11
3416.0434825105658
 21
750.0
 31
0.0
  0
LINE
  5
6A8
  8
0
 10
3435.9620667976078
 20
832.49999999999989
 30
0.0
 11
3439.4261684127459
 21
834.5
 31
0.0
  0
LINE
  5
6A9
  8
0
 10
3447.2203970468072
 20
839.0
 30
0.0
 11
3439.4261684127459
 21
834.5
 31
0.0
  0
LINE
  5
6AA
  8
0
 10
3443.7562954316681
 20
837.0
 30
0.0
 11
3443.7562954316681
 21
735.00000000000011
 31
0.0
  0
LINE
  5
6AB
  8
0
 10
3443.7562954316681
 20
735.00000000000011
 30
0.0
 11
3435.9620667976078
 21
730.50000000000011
 31
0.0
  0
LINE
  5
6AC
  8
0
 10
3412.579380895429
 20
846.0
 30
0.0
 11
3409.1152792802909
 21
852.0
 31
0.0
  0
LINE
  5
6AD
  8
0
 10
3468.8710321414169
 20
926.5
 30
0.0
 11
3468.8710321414169
 21
917.5
 31
0.0
  0
LINE
  5
6AE
  8
0
 10
3468.8710321414169
 20
917.5
 30
0.0
 11
3447.2203970468072
 21
905.0
 31
0.0
  0
LINE
  5
6AF
  8
0
 10
3432.4979651824701
 20
732.50000000000011
 30
0.0
 11
3076.5615242270669
 21
527.00000000000023
 31
0.0
  0
LINE
  5
6B0
  8
0
 10
3432.4979651824701
 20
740.50000000000011
 30
0.0
 11
3076.5615242270669
 21
535.00000000000011
 31
0.0
  0
LINE
  5
6B1
  8
0
 10
3076.5615242270669
 20
554.0
 30
0.0
 11
3416.0434825105658
 21
750.0
 31
0.0
  0
LINE
  5
6B2
  8
0
 10
4020.2698729810768
 20
702.5
 30
0.0
 11
4438.5601430089619
 21
944.0
 31
0.0
  0
LINE
  5
6B3
  8
0
 10
4020.2698729810768
 20
702.5
 30
0.0
 11
4050.5807621135332
 21
685.0
 31
0.0
  0
LINE
  5
6B4
  8
0
 10
4050.5807621135332
 20
685.0
 30
0.0
 11
4468.8710321414173
 21
926.5
 31
0.0
  0
LINE
  5
6B5
  8
0
 10
4468.8710321414173
 20
926.5
 30
0.0
 11
4438.5601430089619
 21
944.0
 31
0.0
  0
LINE
  5
6B6
  8
0
 10
4050.5807621135332
 20
685.0
 30
0.0
 11
4050.5807621135332
 21
676.0
 31
0.0
  0
LINE
  5
6B7
  8
0
 10
4080.0256258422041
 20
683.0
 30
0.0
 11
4439.4261684127459
 21
890.49999999999989
 31
0.0
  0
LINE
  5
6B8
  8
0
 10
4020.2698729810768
 20
702.5
 30
0.0
 11
4020.2698729810768
 21
693.5
 31
0.0
  0
LINE
  5
6B9
  8
0
 10
4050.5807621135332
 20
685.0
 30
0.0
 11
4072.2313972081438
 21
697.5
 31
0.0
  0
LINE
  5
6BA
  8
0
 10
4072.2313972081438
 20
688.49999999999989
 30
0.0
 11
4050.5807621135332
 21
676.0
 31
0.0
  0
LINE
  5
6BB
  8
0
 10
4050.5807621135332
 20
676.0
 30
0.0
 11
4020.2698729810768
 21
693.5
 31
0.0
  0
LINE
  5
6BC
  8
0
 10
4067.901270189222
 20
700.0
 30
0.0
 11
4072.2313972081438
 21
697.5
 31
0.0
  0
LINE
  5
6BD
  8
0
 10
4067.901270189222
 20
700.0
 30
0.0
 11
4075.695498823281
 21
704.49999999999989
 31
0.0
  0
LINE
  5
6BE
  8
0
 10
4080.0256258422041
 20
702.0
 30
0.0
 11
4075.695498823281
 21
704.49999999999989
 31
0.0
  0
LINE
  5
6BF
  8
0
 10
4041.9205080756892
 20
715.0
 30
0.0
 11
4046.250635094611
 21
712.5
 31
0.0
  0
LINE
  5
6C0
  8
0
 10
4054.0448637286709
 20
717.0
 30
0.0
 11
4049.7147367097491
 21
719.5
 31
0.0
  0
LINE
  5
6C1
  8
0
 10
4046.250635094611
 20
712.5
 30
0.0
 11
4054.0448637286709
 21
717.0
 31
0.0
  0
LINE
  5
6C2
  8
0
 10
4435.0960413938237
 20
912.0
 30
0.0
 11
4439.4261684127459
 21
909.5
 31
0.0
  0
LINE
  5
6C3
  8
0
 10
4435.0960413938237
 20
912.0
 30
0.0
 11
4442.8902700278832
 21
916.5
 31
0.0
  0
LINE
  5
6C4
  8
0
 10
4447.2203970468063
 20
914.0
 30
0.0
 11
4442.8902700278832
 21
916.5
 31
0.0
  0
LINE
  5
6C5
  8
0
 10
4409.1152792802914
 20
927.0
 30
0.0
 11
4413.4454062992127
 21
924.5
 31
0.0
  0
LINE
  5
6C6
  8
0
 10
4421.2396349332721
 20
929.0
 30
0.0
 11
4416.9095079143499
 21
931.49999999999989
 31
0.0
  0
LINE
  5
6C7
  8
0
 10
4413.4454062992127
 20
924.5
 30
0.0
 11
4421.2396349332721
 21
929.0
 31
0.0
  0
LINE
  5
6C8
  8
0
 10
4080.0256258422041
 20
702.0
 30
0.0
 11
4080.0256258422041
 21
627.0
 31
0.0
  0
LINE
  5
6C9
  8
0
 10
4072.2313972081438
 20
697.5
 30
0.0
 11
4072.2313972081438
 21
622.5
 31
0.0
  0
LINE
  5
6CA
  8
0
 10
4041.9205080756892
 20
681.0
 30
0.0
 11
4041.9205080756892
 21
640.0
 31
0.0
  0
LINE
  5
6CB
  8
0
 10
4045.3846096908269
 20
634.0
 30
0.0
 11
4045.3846096908269
 21
554.0
 31
0.0
  0
LINE
  5
6CC
  8
0
 10
4068.767295593007
 20
620.5
 30
0.0
 11
4068.767295593007
 21
540.5
 31
0.0
  0
LINE
  5
6CD
  8
0
 10
4045.3846096908269
 20
554.0
 30
0.0
 11
4068.767295593007
 21
540.5
 31
0.0
  0
LINE
  5
6CE
  8
0
 10
4065.303193977868
 20
542.49999999999989
 30
0.0
 11
4065.303193977868
 21
550.49999999999989
 31
0.0
  0
LINE
  5
6CF
  8
0
 10
4065.303193977868
 20
550.49999999999989
 30
0.0
 11
4048.8487113059632
 21
560.0
 31
0.0
  0
LINE
  5
6D0
  8
0
 10
4048.8487113059632
 20
560.0
 30
0.0
 11
4048.8487113059632
 21
552.0
 31
0.0
  0
LINE
  5
6D1
  8
0
 10
4068.767295593007
 20
620.5
 30
0.0
 11
4072.2313972081438
 21
622.5
 31
0.0
  0
LINE
  5
6D2
  8
0
 10
4080.0256258422041
 20
627.0
 30
0.0
 11
4072.2313972081438
 21
622.5
 31
0.0
  0
LINE
  5
6D3
  8
0
 10
4076.561524227066
 20
625.0
 30
0.0
 11
4076.561524227066
 21
545.0
 31
0.0
  0
LINE
  5
6D4
  8
0
 10
4076.561524227066
 20
545.0
 30
0.0
 11
4068.767295593007
 21
540.5
 31
0.0
  0
LINE
  5
6D5
  8
0
 10
4045.3846096908269
 20
634.0
 30
0.0
 11
4041.9205080756892
 21
640.0
 31
0.0
  0
LINE
  5
6D6
  8
0
 10
4447.2203970468063
 20
914.0
 30
0.0
 11
4447.2203970468063
 21
839.0
 31
0.0
  0
LINE
  5
6D7
  8
0
 10
4439.4261684127459
 20
909.5
 30
0.0
 11
4439.4261684127459
 21
834.5
 31
0.0
  0
LINE
  5
6D8
  8
0
 10
4409.1152792802914
 20
873.0
 30
0.0
 11
4409.1152792802914
 21
852.0
 31
0.0
  0
LINE
  5
6D9
  8
0
 10
4412.5793808954286
 20
846.0
 30
0.0
 11
4412.5793808954286
 21
770.00000000000034
 31
0.0
  0
LINE
  5
6DA
  8
0
 10
4435.9620667976087
 20
832.49999999999989
 30
0.0
 11
4435.9620667976087
 21
752.5
 31
0.0
  0
LINE
  5
6DB
  8
0
 10
4432.4979651824697
 20
754.49999999999989
 30
0.0
 11
4435.9620667976087
 21
752.5
 31
0.0
  0
LINE
  5
6DC
  8
0
 10
4432.4979651824697
 20
754.49999999999989
 30
0.0
 11
4432.4979651824697
 21
762.5
 31
0.0
  0
LINE
  5
6DD
  8
0
 10
4432.4979651824697
 20
762.5
 30
0.0
 11
4416.0434825105649
 21
772.0
 31
0.0
  0
LINE
  5
6DE
  8
0
 10
4435.9620667976087
 20
832.49999999999989
 30
0.0
 11
4439.4261684127459
 21
834.5
 31
0.0
  0
LINE
  5
6DF
  8
0
 10
4447.2203970468063
 20
839.0
 30
0.0
 11
4439.4261684127459
 21
834.5
 31
0.0
  0
LINE
  5
6E0
  8
0
 10
4443.7562954316681
 20
836.99999999999989
 30
0.0
 11
4443.7562954316681
 21
757.0
 31
0.0
  0
LINE
  5
6E1
  8
0
 10
4443.7562954316681
 20
757.0
 30
0.0
 11
4435.9620667976087
 21
752.5
 31
0.0
  0
LINE
  5
6E2
  8
0
 10
4412.5793808954286
 20
846.0
 30
0.0
 11
4409.1152792802914
 21
852.0
 31
0.0
  0
LINE
  5
6E3
  8
0
 10
4468.8710321414173
 20
926.5
 30
0.0
 11
4468.8710321414173
 21
917.5
 31
0.0
  0
LINE
  5
6E4
  8
0
 10
4468.8710321414173
 20
917.5
 30
0.0
 11
4447.2203970468063
 21
905.0
 31
0.0
  0
LINE
  5
6E5
  8
0
 10
4432.4979651824697
 20
754.49999999999989
 30
0.0
 11
4076.561524227066
 21
549.0
 31
0.0
  0
LINE
  5
6E6
  8
0
 10
4432.4979651824697
 20
762.5
 30
0.0
 11
4076.561524227066
 21
557.0
 31
0.0
  0
LINE
  5
6E7
  8
0
 10
4076.561524227066
 20
576.0
 30
0.0
 11
4416.0434825105649
 21
772.0
 31
0.0
  0
LINE
  5
755
  8
0
 10
0.0
 20
-700.0
 30
0.0
 11
439.94090512249488
 21
-446.0
 31
0.0
  0
LINE
  5
756
  8
0
 10
439.94090512249488
 20
-446.0
 30
0.0
 11
791.54721905897691
 21
-649.00000000000011
 31
0.0
  0
LINE
  5
757
  8
0
 10
791.54721905897691
 20
-649.00000000000011
 30
0.0
 11
351.60631393648191
 21
-902.99999999999989
 31
0.0
  0
LINE
  5
759
  8
0
 10
0.0
 20
-700.0
 30
0.0
 11
-0.0000000000000092
 21
-750.0
 31
0.0
  0
LINE
  5
75A
  8
0
 10
791.54721905897691
 20
-699.00000000000011
 30
0.0
 11
351.60631393648191
 21
-952.99999999999989
 31
0.0
  0
LINE
  5
75B
  8
0
 10
351.60631393648191
 20
-952.99999999999989
 30
0.0
 11
335.15183126457759
 21
-943.49999999999977
 31
0.0
  0
LINE
  5
75C
  8
0
 10
791.54721905897691
 20
-699.00000000000011
 30
0.0
 11
791.54721905897691
 21
-649.00000000000011
 31
0.0
  0
LINE
  5
75D
  8
0
 10
351.60631393648191
 20
-952.99999999999989
 30
0.0
 11
351.60631393648191
 21
-902.99999999999989
 31
0.0
  0
LINE
  5
75E
  8
0
 10
0.0
 20
-700.0
 30
0.0
 11
16.45448267190433
 21
-709.49999999999989
 31
0.0
  0
LINE
  5
75F
  8
0
 10
16.45448267190433
 20
-709.49999999999989
 30
0.0
 11
439.94090512249488
 21
-465.0
 31
0.0
  0
LINE
  5
760
  8
0
 10
16.45448267190433
 20
-709.49999999999989
 30
0.0
 11
16.45448267190433
 21
-718.5
 31
0.0
  0
LINE
  5
761
  8
0
 10
351.60631393648191
 20
-902.99999999999989
 30
0.0
 11
335.15183126457748
 21
-893.49999999999977
 31
0.0
  0
LINE
  5
762
  8
0
 10
335.15183126457748
 20
-893.49999999999977
 30
0.0
 11
758.63825371516805
 21
-648.99999999999989
 31
0.0
  0
LINE
  5
763
  8
0
 10
335.15183126457748
 20
-893.49999999999977
 30
0.0
 11
335.15183126457759
 21
-902.50000000000034
 31
0.0
  0
LINE
  5
764
  8
0
 10
423.48642245059051
 20
-455.49999999999989
 30
0.0
 11
775.09273638707282
 21
-658.5
 31
0.0
  0
LINE
  5
768
  8
0
 10
439.94090512249488
 20
-465.0
 30
0.0
 11
439.94090512249488
 21
-474.0
 31
0.0
  0
LINE
  5
769
  8
0
 10
16.45448267190433
 20
-709.49999999999989
 30
0.0
 11
16.454482671904319
 21
-718.5
 31
0.0
  0
LINE
  5
76A
  8
0
 10
16.45448267190433
 20
-718.5
 30
0.0
 11
439.94090512249488
 21
-474.0
 31
0.0
  0
LINE
  5
76B
  8
0
 10
439.94090512249488
 20
-474.0
 30
0.0
 11
750.84402508110793
 21
-653.5
 31
0.0
  0
LINE
  5
76C
  8
0
 10
775.09273638707282
 20
-658.5
 30
0.0
 11
775.09273638707282
 21
-708.5
 31
0.0
  0
LINE
  5
76D
  8
0
 10
11.2583302491977
 20
-715.5
 30
0.0
 11
340.34798368728423
 21
-905.50000000000034
 31
0.0
  0
LINE
  5
76E
  8
0
 10
11.2583302491977
 20
-715.5
 30
0.0
 11
11.258330249197691
 21
-730.49999999999989
 31
0.0
  0
LINE
  5
76F
  8
0
 10
11.258330249197691
 20
-730.49999999999989
 30
0.0
 11
340.34798368728423
 21
-920.50000000000011
 31
0.0
  0
LINE
  5
770
  8
0
 10
340.34798368728423
 20
-905.50000000000034
 30
0.0
 11
340.34798368728423
 21
-920.50000000000011
 31
0.0
  0
LINE
  5
771
  8
0
 10
16.454482671904319
 20
-733.49999999999989
 30
0.0
 11
16.454482671904309
 21
-759.49999999999989
 31
0.0
  0
LINE
  5
772
  8
0
 10
335.15183126457759
 20
-917.50000000000045
 30
0.0
 11
335.15183126457748
 21
-943.49999999999977
 31
0.0
  0
LINE
  5
773
  8
0
 10
16.454482671904309
 20
-759.49999999999989
 30
0.0
 11
-0.0000000000000092
 21
-750.0
 31
0.0
  0
LINE
  5
774
  8
0
 10
16.454482671904319
 20
-759.49999999999989
 30
0.0
 11
38.971143170299626
 21
-746.49999999999989
 31
0.0
  0
LINE
  5
775
  8
0
 10
1000.0
 20
-700.0
 30
0.0
 11
1439.940905122495
 21
-446.0
 31
0.0
  0
LINE
  5
776
  8
0
 10
1439.940905122495
 20
-446.0
 30
0.0
 11
1791.5472190589769
 21
-649.00000000000011
 31
0.0
  0
LINE
  5
777
  8
0
 10
1791.5472190589769
 20
-649.00000000000011
 30
0.0
 11
1351.6063139364819
 21
-902.99999999999989
 31
0.0
  0
LINE
  5
778
  8
0
 10
1000.0
 20
-700.0
 30
0.0
 11
1000.0
 21
-750.0
 31
0.0
  0
LINE
  5
779
  8
0
 10
1791.5472190589769
 20
-699.00000000000011
 30
0.0
 11
1351.6063139364819
 21
-952.99999999999989
 31
0.0
  0
LINE
  5
77B
  8
0
 10
1351.6063139364819
 20
-953.0
 30
0.0
 11
1000.0
 21
-750.0
 31
0.0
  0
LINE
  5
77C
  8
0
 10
1791.5472190589769
 20
-699.00000000000011
 30
0.0
 11
1791.5472190589769
 21
-649.00000000000011
 31
0.0
  0
LINE
  5
77D
  8
0
 10
1351.6063139364819
 20
-952.99999999999989
 30
0.0
 11
1351.6063139364819
 21
-902.99999999999989
 31
0.0
  0
LINE
  5
77E
  8
0
 10
1000.0
 20
-700.0
 30
0.0
 11
1351.6063139364819
 21
-902.99999999999989
 31
0.0
  0
LINE
  5
783
  8
0
 10
1335.151831264578
 20
-893.49999999999977
 30
0.0
 11
1335.151831264578
 21
-943.49999999999977
 31
0.0
  0
LINE
  5
788
  8
0
 10
1016.454482671904
 20
-709.49999999999989
 30
0.0
 11
1016.454482671904
 21
-759.49999999999989
 31
0.0
  0
LINE
  5
791
  8
0
 10
2000.0
 20
-700.0
 30
0.0
 11
2439.9409051224952
 21
-446.0
 31
0.0
  0
LINE
  5
792
  8
0
 10
2439.9409051224952
 20
-446.0
 30
0.0
 11
2791.5472190589771
 21
-649.00000000000011
 31
0.0
  0
LINE
  5
793
  8
0
 10
2791.5472190589771
 20
-649.00000000000011
 30
0.0
 11
2351.6063139364819
 21
-902.99999999999989
 31
0.0
  0
LINE
  5
79A
  8
0
 10
2000.0
 20
-700.0
 30
0.0
 11
2351.6063139364819
 21
-902.99999999999989
 31
0.0
  0
LINE
  5
79B
  8
0
 10
2043.3012701892219
 20
-700.0
 30
0.0
 11
2439.9409051224952
 21
-471.0
 31
0.0
  0
LINE
  5
79E
  8
0
 10
2351.6063139364819
 20
-877.99999999999966
 30
0.0
 11
2748.245948869755
 21
-648.99999999999989
 31
0.0
  0
LINE
  5
7A1
  8
0
 10
2418.2902700278842
 20
-458.49999999999989
 30
0.0
 11
2769.8965839643661
 21
-661.50000000000011
 31
0.0
  0
LINE
  5
7A2
  8
0
 10
2439.9409051224952
 20
-471.0
 30
0.0
 11
2439.9409051224952
 21
-480.0
 31
0.0
  0
LINE
  5
7A5
  8
0
 10
2051.095498823282
 20
-704.49999999999989
 30
0.0
 11
2439.9409051224952
 21
-480.0
 31
0.0
  0
LINE
  5
7A6
  8
0
 10
2439.9409051224952
 20
-480.0
 30
0.0
 11
2740.4517202356951
 21
-653.5
 31
0.0
  0
LINE
  5
7B0
  8
0
 10
2021.6506350946111
 20
-687.5
 30
0.0
 11
2373.256949031093
 21
-890.49999999999989
 31
0.0
  0
LINE
  5
7B2
  8
0
 10
2000.0
 20
-700.0
 30
0.0
 11
2000.0
 21
-719.0
 31
0.0
  0
LINE
  5
7B3
  8
0
 10
2351.6063139364819
 20
-902.99999999999989
 30
0.0
 11
2351.6063139364819
 21
-921.99999999999977
 31
0.0
  0
LINE
  5
7B4
  8
0
 10
2373.256949031093
 20
-890.49999999999989
 30
0.0
 11
2373.256949031093
 21
-909.49999999999977
 31
0.0
  0
LINE
  5
7B5
  8
0
 10
2769.8965839643661
 20
-661.50000000000011
 30
0.0
 11
2769.8965839643661
 21
-680.50000000000023
 31
0.0
  0
LINE
  5
7B6
  8
0
 10
2791.5472190589771
 20
-649.00000000000011
 30
0.0
 11
2791.5472190589771
 21
-668.00000000000023
 31
0.0
  0
LINE
  5
7B7
  8
0
 10
2000.0
 20
-719.0
 30
0.0
 11
2351.6063139364819
 21
-921.99999999999977
 31
0.0
  0
LINE
  5
7B8
  8
0
 10
2351.6063139364819
 20
-921.99999999999977
 30
0.0
 11
2791.5472190589771
 21
-668.00000000000023
 31
0.0
  0
INSERT
  5
7B9
  8
0
  2
*U7
 10
0.0
 20
0.0
 30
0.0
  0
INSERT
  5
7BA
  8
0
  2
*U8
 10
0.0
 20
0.0
 30
0.0
  0
INSERT
  5
7BB
  8
0
  2
*U9
 10
0.0
 20
0.0
 30
0.0
  0
ENDSEC
  0
EOF
